<?xml version="1.0" encoding="UTF-8" standalone="no"?><svg xmlns="http://www.w3.org/2000/svg" xmlns:xlink="http://www.w3.org/1999/xlink" contentStyleType="text/css" height="785px" preserveAspectRatio="none" style="width:928px;height:785px;background:#FFFFFF;" version="1.1" viewBox="0 0 928 785" width="928px" zoomAndPan="magnify"><defs/><g><rect fill="#DDDDDD" height="773.0508" style="stroke:#181818;stroke-width:0.5;" width="171" x="209.5" y="6"/><text fill="#000000" font-family="sans-serif" font-size="13" font-weight="bold" lengthAdjust="spacing" textLength="49" x="270.5" y="18.5684">IRouter</text><rect fill="#FFFFFF" height="201.4844" style="stroke:#181818;stroke-width:1.0;" width="10" x="248.5" y="138.7305"/><rect fill="#FFFFFF" height="314.7266" style="stroke:#181818;stroke-width:1.0;" width="10" x="335" y="394.8359"/><rect fill="#FFFFFF" height="570.832" style="stroke:#181818;stroke-width:1.0;" width="10" x="508" y="138.7305"/><rect fill="none" height="194.4844" style="stroke:#000000;stroke-width:1.5;" width="699" x="72" y="153.7305"/><rect fill="none" height="253.1055" style="stroke:#000000;stroke-width:1.5;" width="850.5" x="72" y="428.1465"/><line style="stroke:#181818;stroke-width:0.5;stroke-dasharray:5.0,5.0;" x1="38" x2="38" y1="56.7988" y2="727.5625"/><line style="stroke:#181818;stroke-width:0.5;stroke-dasharray:5.0,5.0;" x1="106" x2="106" y1="56.7988" y2="727.5625"/><line style="stroke:#181818;stroke-width:0.5;stroke-dasharray:5.0,5.0;" x1="253.5" x2="253.5" y1="56.7988" y2="727.5625"/><line style="stroke:#181818;stroke-width:0.5;stroke-dasharray:5.0,5.0;" x1="339.5" x2="339.5" y1="56.7988" y2="727.5625"/><line style="stroke:#181818;stroke-width:0.5;stroke-dasharray:5.0,5.0;" x1="513" x2="513" y1="56.7988" y2="727.5625"/><line style="stroke:#181818;stroke-width:0.5;stroke-dasharray:5.0,5.0;" x1="636.5" x2="636.5" y1="56.7988" y2="727.5625"/><line style="stroke:#181818;stroke-width:0.5;stroke-dasharray:5.0,5.0;" x1="724" x2="724" y1="56.7988" y2="727.5625"/><line style="stroke:#181818;stroke-width:0.5;stroke-dasharray:5.0,5.0;" x1="872.5" x2="872.5" y1="56.7988" y2="727.5625"/><rect fill="#E2E2F0" height="30.4883" rx="2.5" ry="2.5" style="stroke:#181818;stroke-width:0.5;" width="67" x="5" y="25.3105"/><text fill="#000000" font-family="sans-serif" font-size="14" lengthAdjust="spacing" textLength="53" x="12" y="45.8457">AuthOp</text><rect fill="#E2E2F0" height="30.4883" rx="2.5" ry="2.5" style="stroke:#181818;stroke-width:0.5;" width="67" x="5" y="726.5625"/><text fill="#000000" font-family="sans-serif" font-size="14" lengthAdjust="spacing" textLength="53" x="12" y="747.0977">AuthOp</text><text fill="#000000" font-family="sans-serif" font-size="14" lengthAdjust="spacing" textLength="31" x="88" y="53.8457">User</text><path d="M86,12.3105 L86,36.3105 M86,24.3105 L103,24.3105 " fill="none" style="stroke:#181818;stroke-width:0.5;"/><ellipse cx="115" cy="24.3105" fill="#E2E2F0" rx="12" ry="12" style="stroke:#181818;stroke-width:0.5;"/><text fill="#000000" font-family="sans-serif" font-size="14" lengthAdjust="spacing" textLength="31" x="88" y="740.0977">User</text><path d="M86,747.0508 L86,771.0508 M86,759.0508 L103,759.0508 " fill="none" style="stroke:#181818;stroke-width:0.5;"/><ellipse cx="115" cy="759.0508" fill="#E2E2F0" rx="12" ry="12" style="stroke:#181818;stroke-width:0.5;"/><rect fill="#E2E2F0" height="30.4883" rx="2.5" ry="2.5" style="stroke:#181818;stroke-width:0.5;" width="80" x="213.5" y="25.3105"/><text fill="#000000" font-family="sans-serif" font-size="14" lengthAdjust="spacing" textLength="66" x="220.5" y="45.8457">IPhoneVС</text><rect fill="#E2E2F0" height="30.4883" rx="2.5" ry="2.5" style="stroke:#181818;stroke-width:0.5;" width="80" x="213.5" y="726.5625"/><text fill="#000000" font-family="sans-serif" font-size="14" lengthAdjust="spacing" textLength="66" x="220.5" y="747.0977">IPhoneVС</text><rect fill="#E2E2F0" height="30.4883" rx="2.5" ry="2.5" style="stroke:#181818;stroke-width:0.5;" width="73" x="303.5" y="25.3105"/><text fill="#000000" font-family="sans-serif" font-size="14" lengthAdjust="spacing" textLength="59" x="310.5" y="45.8457">ICodeVС</text><rect fill="#E2E2F0" height="30.4883" rx="2.5" ry="2.5" style="stroke:#181818;stroke-width:0.5;" width="73" x="303.5" y="726.5625"/><text fill="#000000" font-family="sans-serif" font-size="14" lengthAdjust="spacing" textLength="59" x="310.5" y="747.0977">ICodeVС</text><rect fill="#E2E2F0" height="30.4883" rx="2.5" ry="2.5" style="stroke:#181818;stroke-width:0.5;" width="72" x="477" y="25.3105"/><text fill="#000000" font-family="sans-serif" font-size="14" lengthAdjust="spacing" textLength="58" x="484" y="45.8457">IAuthVM</text><rect fill="#E2E2F0" height="30.4883" rx="2.5" ry="2.5" style="stroke:#181818;stroke-width:0.5;" width="72" x="477" y="726.5625"/><text fill="#000000" font-family="sans-serif" font-size="14" lengthAdjust="spacing" textLength="58" x="484" y="747.0977">IAuthVM</text><rect fill="#E2E2F0" height="30.4883" rx="2.5" ry="2.5" style="stroke:#181818;stroke-width:0.5;" width="71" x="601.5" y="25.3105"/><text fill="#000000" font-family="sans-serif" font-size="14" lengthAdjust="spacing" textLength="57" x="608.5" y="45.8457">IStorage</text><rect fill="#E2E2F0" height="30.4883" rx="2.5" ry="2.5" style="stroke:#181818;stroke-width:0.5;" width="71" x="601.5" y="726.5625"/><text fill="#000000" font-family="sans-serif" font-size="14" lengthAdjust="spacing" textLength="57" x="608.5" y="747.0977">IStorage</text><rect fill="#E2E2F0" height="30.4883" rx="2.5" ry="2.5" style="stroke:#181818;stroke-width:0.5;" width="73" x="688" y="25.3105"/><text fill="#000000" font-family="sans-serif" font-size="14" lengthAdjust="spacing" textLength="59" x="695" y="45.8457">IAuthAPI</text><rect fill="#E2E2F0" height="30.4883" rx="2.5" ry="2.5" style="stroke:#181818;stroke-width:0.5;" width="73" x="688" y="726.5625"/><text fill="#000000" font-family="sans-serif" font-size="14" lengthAdjust="spacing" textLength="59" x="695" y="747.0977">IAuthAPI</text><text fill="#000000" font-family="sans-serif" font-size="14" lengthAdjust="spacing" textLength="74" x="832.5" y="53.8457">SMS-шлюз</text><path d="M852,12.3105 L852,36.3105 M852,24.3105 L869,24.3105 " fill="none" style="stroke:#181818;stroke-width:0.5;"/><ellipse cx="881" cy="24.3105" fill="#E2E2F0" rx="12" ry="12" style="stroke:#181818;stroke-width:0.5;"/><text fill="#000000" font-family="sans-serif" font-size="14" lengthAdjust="spacing" textLength="74" x="832.5" y="740.0977">SMS-шлюз</text><path d="M852,747.0508 L852,771.0508 M852,759.0508 L869,759.0508 " fill="none" style="stroke:#181818;stroke-width:0.5;"/><ellipse cx="881" cy="759.0508" fill="#E2E2F0" rx="12" ry="12" style="stroke:#181818;stroke-width:0.5;"/><rect fill="#FFFFFF" height="201.4844" style="stroke:#181818;stroke-width:1.0;" width="10" x="248.5" y="138.7305"/><rect fill="#FFFFFF" height="314.7266" style="stroke:#181818;stroke-width:1.0;" width="10" x="335" y="394.8359"/><rect fill="#FFFFFF" height="570.832" style="stroke:#181818;stroke-width:1.0;" width="10" x="508" y="138.7305"/><path d="M217,71.7988 L217,111.7988 L375,111.7988 L375,81.7988 L365,71.7988 L217,71.7988 " fill="#98FB98" style="stroke:#181818;stroke-width:0.5;"/><path d="M365,71.7988 L365,81.7988 L375,81.7988 L365,71.7988 " fill="#98FB98" style="stroke:#181818;stroke-width:0.5;"/><text fill="#000000" font-family="sans-serif" font-size="13" lengthAdjust="spacing" textLength="118" x="225" y="89.3672">Вью-контроллеры</text><text fill="#000000" font-family="sans-serif" font-size="13" lengthAdjust="spacing" textLength="133" x="225" y="104.6777">создаются роутером</text><path d="M429,71.7988 L429,111.7988 L597,111.7988 L597,81.7988 L587,71.7988 L429,71.7988 " fill="#98FB98" style="stroke:#181818;stroke-width:0.5;"/><path d="M587,71.7988 L587,81.7988 L597,81.7988 L587,71.7988 " fill="#98FB98" style="stroke:#181818;stroke-width:0.5;"/><text fill="#000000" font-family="sans-serif" font-size="13" lengthAdjust="spacing" textLength="147" x="435" y="89.3672">Одна вью-модель для</text><text fill="#000000" font-family="sans-serif" font-size="13" lengthAdjust="spacing" textLength="130" x="435" y="104.6777">двух экранов входа</text><path d="M642,71.7988 L642,111.7988 L807,111.7988 L807,81.7988 L797,71.7988 L642,71.7988 " fill="#98FB98" style="stroke:#181818;stroke-width:0.5;"/><path d="M797,71.7988 L797,81.7988 L807,81.7988 L797,71.7988 " fill="#98FB98" style="stroke:#181818;stroke-width:0.5;"/><text fill="#000000" font-family="sans-serif" font-size="13" lengthAdjust="spacing" textLength="144" x="648" y="89.3672">сервис инкпасулирует</text><text fill="#000000" font-family="sans-serif" font-size="13" lengthAdjust="spacing" textLength="106" x="648" y="104.6777">API авторизации</text><ellipse cx="248" cy="137.9805" fill="none" rx="4" ry="4" style="stroke:#00008B;stroke-width:1.5;"/><polygon fill="#00008B" points="231,134.7305,241,138.7305,231,142.7305,235,138.7305" style="stroke:#00008B;stroke-width:1.0;"/><line style="stroke:#00008B;stroke-width:1.0;" x1="38.5" x2="237" y1="138.7305" y2="138.7305"/><text fill="#800000" font-family="sans-serif" font-size="13" font-weight="bold" lengthAdjust="spacing" textLength="9" x="45.5" y="133.9883">1</text><text fill="#000000" font-family="sans-serif" font-size="13" lengthAdjust="spacing" textLength="45" x="58.5" y="133.9883">начало</text><path d="M72,153.7305 L332,153.7305 L332,161.041 L322,171.041 L72,171.041 L72,153.7305 " fill="#EEEEEE" style="stroke:#000000;stroke-width:1.5;"/><rect fill="none" height="194.4844" style="stroke:#000000;stroke-width:1.5;" width="699" x="72" y="153.7305"/><text fill="#000000" font-family="sans-serif" font-size="13" font-weight="bold" lengthAdjust="spacing" textLength="215" x="87" y="167.2988">Экран ввода номера телефона</text><polygon fill="#181818" points="236.5,188.3516,246.5,192.3516,236.5,196.3516,240.5,192.3516" style="stroke:#181818;stroke-width:1.0;"/><line style="stroke:#181818;stroke-width:1.0;" x1="106.5" x2="242.5" y1="192.3516" y2="192.3516"/><text fill="#800000" font-family="sans-serif" font-size="13" font-weight="bold" lengthAdjust="spacing" textLength="9" x="113.5" y="187.6094">2</text><text fill="#000000" font-family="sans-serif" font-size="13" lengthAdjust="spacing" textLength="40" x="126.5" y="187.6094">номер</text><text fill="#000000" font-family="sans-serif" font-size="13" lengthAdjust="spacing" textLength="4" x="166.5" y="187.6094"> </text><text fill="#000000" font-family="sans-serif" font-size="13" lengthAdjust="spacing" textLength="61" x="170.5" y="187.6094">телефона</text><polygon fill="#181818" points="496,217.6621,506,221.6621,496,225.6621,500,221.6621" style="stroke:#181818;stroke-width:1.0;"/><line style="stroke:#181818;stroke-width:1.0;" x1="258.5" x2="502" y1="221.6621" y2="221.6621"/><text fill="#800000" font-family="sans-serif" font-size="13" font-weight="bold" lengthAdjust="spacing" textLength="9" x="265.5" y="216.9199">3</text><text fill="#000000" font-family="sans-serif" font-size="13" lengthAdjust="spacing" textLength="40" x="278.5" y="216.9199">номер</text><text fill="#000000" font-family="sans-serif" font-size="13" lengthAdjust="spacing" textLength="4" x="318.5" y="216.9199"> </text><text fill="#000000" font-family="sans-serif" font-size="13" lengthAdjust="spacing" textLength="61" x="322.5" y="216.9199">телефона</text><polygon fill="#181818" points="712.5,246.9727,722.5,250.9727,712.5,254.9727,716.5,250.9727" style="stroke:#181818;stroke-width:1.0;"/><line style="stroke:#181818;stroke-width:1.0;" x1="518" x2="718.5" y1="250.9727" y2="250.9727"/><text fill="#800000" font-family="sans-serif" font-size="13" font-weight="bold" lengthAdjust="spacing" textLength="9" x="525" y="246.2305">4</text><text fill="#000000" font-family="sans-serif" font-size="13" lengthAdjust="spacing" textLength="40" x="538" y="246.2305">номер</text><text fill="#000000" font-family="sans-serif" font-size="13" lengthAdjust="spacing" textLength="4" x="578" y="246.2305"> </text><text fill="#000000" font-family="sans-serif" font-size="13" lengthAdjust="spacing" textLength="61" x="582" y="246.2305">телефона</text><polygon fill="#181818" points="529,291.5938,519,295.5938,529,299.5938,525,295.5938" style="stroke:#181818;stroke-width:1.0;"/><line style="stroke:#181818;stroke-width:1.0;stroke-dasharray:2.0,2.0;" x1="523" x2="723.5" y1="295.5938" y2="295.5938"/><text fill="#800000" font-family="sans-serif" font-size="13" font-weight="bold" lengthAdjust="spacing" textLength="9" x="535" y="283.1963">5</text><text fill="#000000" font-family="sans-serif" font-size="13" lengthAdjust="spacing" textLength="36" x="548" y="275.541">токен</text><text fill="#000000" font-family="sans-serif" font-size="13" lengthAdjust="spacing" textLength="82" x="548" y="290.8516">авторизации</text><polygon fill="#181818" points="625,336.2148,635,340.2148,625,344.2148,629,340.2148" style="stroke:#181818;stroke-width:1.0;"/><line style="stroke:#181818;stroke-width:1.0;" x1="518" x2="631" y1="340.2148" y2="340.2148"/><text fill="#800000" font-family="sans-serif" font-size="13" font-weight="bold" lengthAdjust="spacing" textLength="9" x="525" y="327.8174">6</text><text fill="#000000" font-family="sans-serif" font-size="13" lengthAdjust="spacing" textLength="36" x="538" y="320.1621">токен</text><text fill="#000000" font-family="sans-serif" font-size="13" lengthAdjust="spacing" textLength="82" x="538" y="335.4727">авторизации</text><polygon fill="#181818" points="356,390.8359,346,394.8359,356,398.8359,352,394.8359" style="stroke:#181818;stroke-width:1.0;"/><line style="stroke:#181818;stroke-width:1.0;" x1="350" x2="507" y1="394.8359" y2="394.8359"/><text fill="#800000" font-family="sans-serif" font-size="13" font-weight="bold" lengthAdjust="spacing" textLength="9" x="362" y="390.0938">7</text><text fill="#000000" font-family="sans-serif" font-size="13" lengthAdjust="spacing" textLength="36" x="375" y="390.0938">токен</text><text fill="#000000" font-family="sans-serif" font-size="13" lengthAdjust="spacing" textLength="4" x="411" y="390.0938"> </text><text fill="#000000" font-family="sans-serif" font-size="13" lengthAdjust="spacing" textLength="53" x="415" y="390.0938">получен</text><path d="M160,360.2148 L160,415.2148 L330,415.2148 L330,370.2148 L320,360.2148 L160,360.2148 " fill="#98FB98" style="stroke:#181818;stroke-width:0.5;"/><path d="M320,360.2148 L320,370.2148 L330,370.2148 L320,360.2148 " fill="#98FB98" style="stroke:#181818;stroke-width:0.5;"/><text fill="#000000" font-family="sans-serif" font-size="13" lengthAdjust="spacing" textLength="146" x="166" y="377.7832">Привязка вью-модели</text><text fill="#000000" font-family="sans-serif" font-size="13" lengthAdjust="spacing" textLength="149" x="166" y="393.0938">и роутера выполняется</text><text fill="#000000" font-family="sans-serif" font-size="13" lengthAdjust="spacing" textLength="106" x="166" y="408.4043">в теле операции</text><path d="M72,428.1465 L356,428.1465 L356,435.457 L346,445.457 L72,445.457 L72,428.1465 " fill="#EEEEEE" style="stroke:#000000;stroke-width:1.5;"/><rect fill="none" height="253.1055" style="stroke:#000000;stroke-width:1.5;" width="850.5" x="72" y="428.1465"/><text fill="#000000" font-family="sans-serif" font-size="13" font-weight="bold" lengthAdjust="spacing" textLength="239" x="87" y="441.7148">Экран ввода кода подтверждения</text><polygon fill="#181818" points="712.5,478.0781,722.5,482.0781,712.5,486.0781,716.5,482.0781" style="stroke:#181818;stroke-width:1.0;"/><line style="stroke:#181818;stroke-width:1.0;" x1="518" x2="718.5" y1="482.0781" y2="482.0781"/><text fill="#800000" font-family="sans-serif" font-size="13" font-weight="bold" lengthAdjust="spacing" textLength="9" x="525" y="469.6807">8</text><text fill="#000000" font-family="sans-serif" font-size="13" lengthAdjust="spacing" textLength="65" x="538" y="462.0254">запросить</text><text fill="#000000" font-family="sans-serif" font-size="13" lengthAdjust="spacing" textLength="55" x="538" y="477.3359">смс-код</text><polygon fill="#181818" points="860.5,507.3887,870.5,511.3887,860.5,515.3887,864.5,511.3887" style="stroke:#181818;stroke-width:1.0;"/><line style="stroke:#181818;stroke-width:1.0;" x1="724.5" x2="866.5" y1="511.3887" y2="511.3887"/><text fill="#800000" font-family="sans-serif" font-size="13" font-weight="bold" lengthAdjust="spacing" textLength="9" x="731.5" y="506.6465">9</text><text fill="#000000" font-family="sans-serif" font-size="13" lengthAdjust="spacing" textLength="40" x="744.5" y="506.6465">номер</text><text fill="#000000" font-family="sans-serif" font-size="13" lengthAdjust="spacing" textLength="4" x="784.5" y="506.6465"> </text><text fill="#000000" font-family="sans-serif" font-size="13" lengthAdjust="spacing" textLength="8" x="788.5" y="506.6465">и</text><text fill="#000000" font-family="sans-serif" font-size="13" lengthAdjust="spacing" textLength="4" x="796.5" y="506.6465"> </text><text fill="#000000" font-family="sans-serif" font-size="13" lengthAdjust="spacing" textLength="55" x="800.5" y="506.6465">смс-код</text><polygon fill="#181818" points="117.5,536.6992,107.5,540.6992,117.5,544.6992,113.5,540.6992" style="stroke:#181818;stroke-width:1.0;"/><line style="stroke:#181818;stroke-width:1.0;" x1="111.5" x2="871.5" y1="540.6992" y2="540.6992"/><text fill="#800000" font-family="sans-serif" font-size="13" font-weight="bold" lengthAdjust="spacing" textLength="18" x="123.5" y="535.957">10</text><text fill="#000000" font-family="sans-serif" font-size="13" lengthAdjust="spacing" textLength="55" x="145.5" y="535.957">смс-код</text><polygon fill="#181818" points="323,566.0098,333,570.0098,323,574.0098,327,570.0098" style="stroke:#181818;stroke-width:1.0;"/><line style="stroke:#181818;stroke-width:1.0;" x1="106.5" x2="329" y1="570.0098" y2="570.0098"/><text fill="#800000" font-family="sans-serif" font-size="13" font-weight="bold" lengthAdjust="spacing" textLength="18" x="113.5" y="565.2676">11</text><text fill="#000000" font-family="sans-serif" font-size="13" lengthAdjust="spacing" textLength="55" x="135.5" y="565.2676">смс-код</text><polygon fill="#181818" points="496,595.3203,506,599.3203,496,603.3203,500,599.3203" style="stroke:#181818;stroke-width:1.0;"/><line style="stroke:#181818;stroke-width:1.0;" x1="345" x2="502" y1="599.3203" y2="599.3203"/><text fill="#800000" font-family="sans-serif" font-size="13" font-weight="bold" lengthAdjust="spacing" textLength="18" x="352" y="594.5781">12</text><text fill="#000000" font-family="sans-serif" font-size="13" lengthAdjust="spacing" textLength="55" x="374" y="594.5781">смс-код</text><polygon fill="#181818" points="712.5,624.6309,722.5,628.6309,712.5,632.6309,716.5,628.6309" style="stroke:#181818;stroke-width:1.0;"/><line style="stroke:#181818;stroke-width:1.0;" x1="518" x2="718.5" y1="628.6309" y2="628.6309"/><text fill="#800000" font-family="sans-serif" font-size="13" font-weight="bold" lengthAdjust="spacing" textLength="18" x="525" y="623.8887">13</text><text fill="#000000" font-family="sans-serif" font-size="13" lengthAdjust="spacing" textLength="36" x="547" y="623.8887">токен</text><text fill="#000000" font-family="sans-serif" font-size="13" lengthAdjust="spacing" textLength="4" x="583" y="623.8887"> </text><text fill="#000000" font-family="sans-serif" font-size="13" lengthAdjust="spacing" textLength="8" x="587" y="623.8887">и</text><text fill="#000000" font-family="sans-serif" font-size="13" lengthAdjust="spacing" textLength="4" x="595" y="623.8887"> </text><text fill="#000000" font-family="sans-serif" font-size="13" lengthAdjust="spacing" textLength="55" x="599" y="623.8887">смс-код</text><polygon fill="#181818" points="529,669.252,519,673.252,529,677.252,525,673.252" style="stroke:#181818;stroke-width:1.0;"/><line style="stroke:#181818;stroke-width:1.0;stroke-dasharray:2.0,2.0;" x1="523" x2="723.5" y1="673.252" y2="673.252"/><text fill="#800000" font-family="sans-serif" font-size="13" font-weight="bold" lengthAdjust="spacing" textLength="18" x="535" y="660.8545">14</text><text fill="#000000" font-family="sans-serif" font-size="13" lengthAdjust="spacing" textLength="62" x="557" y="653.1992">результат</text><text fill="#000000" font-family="sans-serif" font-size="13" lengthAdjust="spacing" textLength="61" x="557" y="668.5098">проверки</text><polygon fill="#00008B" points="49.5,705.5625,39.5,709.5625,49.5,713.5625,45.5,709.5625" style="stroke:#00008B;stroke-width:1.0;"/><ellipse cx="512.5" cy="708.8125" fill="none" rx="4" ry="4" style="stroke:#00008B;stroke-width:1.5;"/><line style="stroke:#00008B;stroke-width:1.0;" x1="43.5" x2="508" y1="709.5625" y2="709.5625"/><text fill="#800000" font-family="sans-serif" font-size="13" font-weight="bold" lengthAdjust="spacing" textLength="18" x="55.5" y="704.8203">15</text><text fill="#000000" font-family="sans-serif" font-size="13" lengthAdjust="spacing" textLength="76" x="77.5" y="704.8203">завершение</text><!--SRC=[ZLJTJXf16BtVfvZWRJT5-nj3IQnDZ1T4Kr9lQYz6M9K8EvlzCRPNWhKsqKhI1sZJ1sX2Db0tWF0ACs_KCxEpoouGOxZO6UPyF-VC-SOxQTWETMcBjEXPnV8yUcHL6ryiihfMD6ZWCpje7LWkAPGEcUsJ6ciozqs5kepPvT91kM0OYFORjOP3SLpO2FpZ7QT0g4UeMXBcrX6-MZGEM63NgVkP53vubgiW0HOQi2O1PwIm_Pu5FexpQRTtZvbjxV4_AipH6ntwh3W7tcJr55kJwqsDV5uqBBjEK6WkGhQzLqdRtgleW1VpgQi-Sw6GGdhnMaDV5fVatDZTJfDkE0qDVPKLergfck8x7ubRVXUdRNbRr4_IlYuQXitazXIxXFcJXDVABcrQMwvbsUk4_nGtujRaGpxXzw8Zpl4TuJSGv-9wtnPjxEzud_V4BKxReaiaH5o8ZeJWS6my9RDQMeXSXLy8l-SzmiEur1XHVJv0zpS4Yv7exjluXaXwISGFFaJU7Y8cF9GnbmhUMoWZfSdMGQkoev17earuX0H3FaNVRN41FX7uN03GsRUXBq6141Gc28Z0hoU-uHiPHkm_y-FAE-gUl6q6rgSoImK45_0GLmWUyOb1QtxZL8eUavxj4xnnvBB08VnlGWbqy5DqY28uLYttY5HJYVvLNWF8AfERvNnfZLz4fzv6HDpCmtXzIneD8Hy5BvccEGkGwa7XWMIrNCnP5MtwnmJLhKKPCNwPPB69yxccqhNmpvNSnjPlMeT-teU_LQbGT55kkCoFF88Hexp15UmwBe01wKeBoJ40CaoL8ZYTnd1Duy6R7oOBcRMF9A6A_QUwk8TLkpClnMoNtXX4urFLR1in7KmJ5cFHZeUvRoH38YyWVXvorooPvl396mAyjD_wt75YoLJ_tAb-MZ86N6ncZa3s0gFby3dBdGDy9ySP5zU1rXqI2w0574Bun2ixJYapn2QRpOMKJU7nW2gv-I3hEZtCcN_q5Vm7]--></g></svg>