<?xml version="1.0" encoding="UTF-8" standalone="no"?><svg xmlns="http://www.w3.org/2000/svg" xmlns:xlink="http://www.w3.org/1999/xlink" contentStyleType="text/css" height="567px" preserveAspectRatio="none" style="width:852px;height:567px;background:#FFFFFF;" version="1.1" viewBox="0 0 852 567" width="852px" zoomAndPan="magnify"><defs/><g><rect fill="#DDDDDD" height="555.2559" style="stroke:#181818;stroke-width:0.5;" width="171" x="196.5" y="6"/><text fill="#000000" font-family="sans-serif" font-size="13" font-weight="bold" lengthAdjust="spacing" textLength="49" x="257.5" y="18.5684">IRouter</text><rect fill="#FFFFFF" height="177.1738" style="stroke:#181818;stroke-width:1.0;" width="10" x="235.5" y="138.7305"/><rect fill="#FFFFFF" height="175.8633" style="stroke:#181818;stroke-width:1.0;" width="10" x="322" y="315.9043"/><rect fill="#FFFFFF" height="353.0371" style="stroke:#181818;stroke-width:1.0;" width="10" x="495" y="138.7305"/><line style="stroke:#181818;stroke-width:0.5;stroke-dasharray:5.0,5.0;" x1="38" x2="38" y1="56.7988" y2="509.7676"/><line style="stroke:#181818;stroke-width:0.5;stroke-dasharray:5.0,5.0;" x1="106" x2="106" y1="56.7988" y2="509.7676"/><line style="stroke:#181818;stroke-width:0.5;stroke-dasharray:5.0,5.0;" x1="240.5" x2="240.5" y1="56.7988" y2="509.7676"/><line style="stroke:#181818;stroke-width:0.5;stroke-dasharray:5.0,5.0;" x1="326.5" x2="326.5" y1="56.7988" y2="509.7676"/><line style="stroke:#181818;stroke-width:0.5;stroke-dasharray:5.0,5.0;" x1="500" x2="500" y1="56.7988" y2="509.7676"/><line style="stroke:#181818;stroke-width:0.5;stroke-dasharray:5.0,5.0;" x1="676" x2="676" y1="56.7988" y2="509.7676"/><line style="stroke:#181818;stroke-width:0.5;stroke-dasharray:5.0,5.0;" x1="811.5" x2="811.5" y1="56.7988" y2="509.7676"/><rect fill="#E2E2F0" height="30.4883" rx="2.5" ry="2.5" style="stroke:#181818;stroke-width:0.5;" width="67" x="5" y="25.3105"/><text fill="#000000" font-family="sans-serif" font-size="14" lengthAdjust="spacing" textLength="53" x="12" y="45.8457">AuthOp</text><rect fill="#E2E2F0" height="30.4883" rx="2.5" ry="2.5" style="stroke:#181818;stroke-width:0.5;" width="67" x="5" y="508.7676"/><text fill="#000000" font-family="sans-serif" font-size="14" lengthAdjust="spacing" textLength="53" x="12" y="529.3027">AuthOp</text><text fill="#000000" font-family="sans-serif" font-size="14" lengthAdjust="spacing" textLength="31" x="88" y="53.8457">User</text><path d="M86,12.3105 L86,36.3105 M86,24.3105 L103,24.3105 " fill="none" style="stroke:#181818;stroke-width:0.5;"/><ellipse cx="115" cy="24.3105" fill="#E2E2F0" rx="12" ry="12" style="stroke:#181818;stroke-width:0.5;"/><text fill="#000000" font-family="sans-serif" font-size="14" lengthAdjust="spacing" textLength="31" x="88" y="522.3027">User</text><path d="M86,529.2559 L86,553.2559 M86,541.2559 L103,541.2559 " fill="none" style="stroke:#181818;stroke-width:0.5;"/><ellipse cx="115" cy="541.2559" fill="#E2E2F0" rx="12" ry="12" style="stroke:#181818;stroke-width:0.5;"/><rect fill="#E2E2F0" height="30.4883" rx="2.5" ry="2.5" style="stroke:#181818;stroke-width:0.5;" width="80" x="200.5" y="25.3105"/><text fill="#000000" font-family="sans-serif" font-size="14" lengthAdjust="spacing" textLength="66" x="207.5" y="45.8457">IPhoneVС</text><rect fill="#E2E2F0" height="30.4883" rx="2.5" ry="2.5" style="stroke:#181818;stroke-width:0.5;" width="80" x="200.5" y="508.7676"/><text fill="#000000" font-family="sans-serif" font-size="14" lengthAdjust="spacing" textLength="66" x="207.5" y="529.3027">IPhoneVС</text><rect fill="#E2E2F0" height="30.4883" rx="2.5" ry="2.5" style="stroke:#181818;stroke-width:0.5;" width="73" x="290.5" y="25.3105"/><text fill="#000000" font-family="sans-serif" font-size="14" lengthAdjust="spacing" textLength="59" x="297.5" y="45.8457">ICodeVС</text><rect fill="#E2E2F0" height="30.4883" rx="2.5" ry="2.5" style="stroke:#181818;stroke-width:0.5;" width="73" x="290.5" y="508.7676"/><text fill="#000000" font-family="sans-serif" font-size="14" lengthAdjust="spacing" textLength="59" x="297.5" y="529.3027">ICodeVС</text><rect fill="#E2E2F0" height="30.4883" rx="2.5" ry="2.5" style="stroke:#181818;stroke-width:0.5;" width="72" x="464" y="25.3105"/><text fill="#000000" font-family="sans-serif" font-size="14" lengthAdjust="spacing" textLength="58" x="471" y="45.8457">IAuthVM</text><rect fill="#E2E2F0" height="30.4883" rx="2.5" ry="2.5" style="stroke:#181818;stroke-width:0.5;" width="72" x="464" y="508.7676"/><text fill="#000000" font-family="sans-serif" font-size="14" lengthAdjust="spacing" textLength="58" x="471" y="529.3027">IAuthVM</text><rect fill="#E2E2F0" height="30.4883" rx="2.5" ry="2.5" style="stroke:#181818;stroke-width:0.5;" width="73" x="640" y="25.3105"/><text fill="#000000" font-family="sans-serif" font-size="14" lengthAdjust="spacing" textLength="59" x="647" y="45.8457">IAuthAPI</text><rect fill="#E2E2F0" height="30.4883" rx="2.5" ry="2.5" style="stroke:#181818;stroke-width:0.5;" width="73" x="640" y="508.7676"/><text fill="#000000" font-family="sans-serif" font-size="14" lengthAdjust="spacing" textLength="59" x="647" y="529.3027">IAuthAPI</text><text fill="#000000" font-family="sans-serif" font-size="14" lengthAdjust="spacing" textLength="74" x="771.5" y="53.8457">SMS-шлюз</text><path d="M791,12.3105 L791,36.3105 M791,24.3105 L808,24.3105 " fill="none" style="stroke:#181818;stroke-width:0.5;"/><ellipse cx="820" cy="24.3105" fill="#E2E2F0" rx="12" ry="12" style="stroke:#181818;stroke-width:0.5;"/><text fill="#000000" font-family="sans-serif" font-size="14" lengthAdjust="spacing" textLength="74" x="771.5" y="522.3027">SMS-шлюз</text><path d="M791,529.2559 L791,553.2559 M791,541.2559 L808,541.2559 " fill="none" style="stroke:#181818;stroke-width:0.5;"/><ellipse cx="820" cy="541.2559" fill="#E2E2F0" rx="12" ry="12" style="stroke:#181818;stroke-width:0.5;"/><rect fill="#FFFFFF" height="177.1738" style="stroke:#181818;stroke-width:1.0;" width="10" x="235.5" y="138.7305"/><rect fill="#FFFFFF" height="175.8633" style="stroke:#181818;stroke-width:1.0;" width="10" x="322" y="315.9043"/><rect fill="#FFFFFF" height="353.0371" style="stroke:#181818;stroke-width:1.0;" width="10" x="495" y="138.7305"/><path d="M204,71.7988 L204,111.7988 L362,111.7988 L362,81.7988 L352,71.7988 L204,71.7988 " fill="#98FB98" style="stroke:#181818;stroke-width:0.5;"/><path d="M352,71.7988 L352,81.7988 L362,81.7988 L352,71.7988 " fill="#98FB98" style="stroke:#181818;stroke-width:0.5;"/><text fill="#000000" font-family="sans-serif" font-size="13" lengthAdjust="spacing" textLength="118" x="219.5" y="89.3672">Вью-контроллеры</text><text fill="#000000" font-family="sans-serif" font-size="13" lengthAdjust="spacing" textLength="98" x="219.5" y="104.6777">создает роутер</text><path d="M416,71.7988 L416,111.7988 L584,111.7988 L584,81.7988 L574,71.7988 L416,71.7988 " fill="#98FB98" style="stroke:#181818;stroke-width:0.5;"/><path d="M574,71.7988 L574,81.7988 L584,81.7988 L574,71.7988 " fill="#98FB98" style="stroke:#181818;stroke-width:0.5;"/><text fill="#000000" font-family="sans-serif" font-size="13" lengthAdjust="spacing" textLength="147" x="422" y="89.3672">Одна вью-модель для</text><text fill="#000000" font-family="sans-serif" font-size="13" lengthAdjust="spacing" textLength="130" x="422" y="104.6777">двух экранов входа</text><path d="M594,71.7988 L594,111.7988 L759,111.7988 L759,81.7988 L749,71.7988 L594,71.7988 " fill="#98FB98" style="stroke:#181818;stroke-width:0.5;"/><path d="M749,71.7988 L749,81.7988 L759,81.7988 L749,71.7988 " fill="#98FB98" style="stroke:#181818;stroke-width:0.5;"/><text fill="#000000" font-family="sans-serif" font-size="13" lengthAdjust="spacing" textLength="144" x="600" y="89.3672">сервис инкпасулирует</text><text fill="#000000" font-family="sans-serif" font-size="13" lengthAdjust="spacing" textLength="106" x="600" y="104.6777">API авторизации</text><ellipse cx="235" cy="137.9805" fill="none" rx="4" ry="4" style="stroke:#00008B;stroke-width:1.5;"/><polygon fill="#00008B" points="218,134.7305,228,138.7305,218,142.7305,222,138.7305" style="stroke:#00008B;stroke-width:1.0;"/><line style="stroke:#00008B;stroke-width:1.0;" x1="38.5" x2="224" y1="138.7305" y2="138.7305"/><text fill="#000000" font-family="sans-serif" font-size="13" lengthAdjust="spacing" textLength="45" x="45.5" y="133.9883">начало</text><polygon fill="#181818" points="223.5,164.041,233.5,168.041,223.5,172.041,227.5,168.041" style="stroke:#181818;stroke-width:1.0;"/><line style="stroke:#181818;stroke-width:1.0;" x1="106.5" x2="229.5" y1="168.041" y2="168.041"/><text fill="#000000" font-family="sans-serif" font-size="13" lengthAdjust="spacing" textLength="40" x="113.5" y="163.2988">номер</text><text fill="#000000" font-family="sans-serif" font-size="13" lengthAdjust="spacing" textLength="4" x="153.5" y="163.2988"> </text><text fill="#000000" font-family="sans-serif" font-size="13" lengthAdjust="spacing" textLength="61" x="157.5" y="163.2988">телефона</text><polygon fill="#181818" points="483,193.3516,493,197.3516,483,201.3516,487,197.3516" style="stroke:#181818;stroke-width:1.0;"/><line style="stroke:#181818;stroke-width:1.0;" x1="245.5" x2="489" y1="197.3516" y2="197.3516"/><text fill="#000000" font-family="sans-serif" font-size="13" lengthAdjust="spacing" textLength="40" x="252.5" y="192.6094">номер</text><text fill="#000000" font-family="sans-serif" font-size="13" lengthAdjust="spacing" textLength="4" x="292.5" y="192.6094"> </text><text fill="#000000" font-family="sans-serif" font-size="13" lengthAdjust="spacing" textLength="61" x="296.5" y="192.6094">телефона</text><polygon fill="#181818" points="664.5,222.6621,674.5,226.6621,664.5,230.6621,668.5,226.6621" style="stroke:#181818;stroke-width:1.0;"/><line style="stroke:#181818;stroke-width:1.0;" x1="505" x2="670.5" y1="226.6621" y2="226.6621"/><text fill="#000000" font-family="sans-serif" font-size="13" lengthAdjust="spacing" textLength="40" x="512" y="221.9199">номер</text><text fill="#000000" font-family="sans-serif" font-size="13" lengthAdjust="spacing" textLength="4" x="552" y="221.9199"> </text><text fill="#000000" font-family="sans-serif" font-size="13" lengthAdjust="spacing" textLength="61" x="556" y="221.9199">телефона</text><polygon fill="#181818" points="516,267.2832,506,271.2832,516,275.2832,512,271.2832" style="stroke:#181818;stroke-width:1.0;"/><line style="stroke:#181818;stroke-width:1.0;" x1="510" x2="675.5" y1="271.2832" y2="271.2832"/><text fill="#000000" font-family="sans-serif" font-size="13" lengthAdjust="spacing" textLength="36" x="522" y="251.2305">токен</text><text fill="#000000" font-family="sans-serif" font-size="13" lengthAdjust="spacing" textLength="82" x="522" y="266.541">авторизации</text><polygon fill="#181818" points="343,311.9043,333,315.9043,343,319.9043,339,315.9043" style="stroke:#181818;stroke-width:1.0;"/><line style="stroke:#181818;stroke-width:1.0;" x1="337" x2="494" y1="315.9043" y2="315.9043"/><text fill="#000000" font-family="sans-serif" font-size="13" lengthAdjust="spacing" textLength="65" x="349" y="295.8516">запросить</text><text fill="#000000" font-family="sans-serif" font-size="13" lengthAdjust="spacing" textLength="55" x="349" y="311.1621">смс-код</text><polygon fill="#181818" points="799.5,341.2148,809.5,345.2148,799.5,349.2148,803.5,345.2148" style="stroke:#181818;stroke-width:1.0;"/><line style="stroke:#181818;stroke-width:1.0;" x1="676.5" x2="805.5" y1="345.2148" y2="345.2148"/><text fill="#000000" font-family="sans-serif" font-size="13" lengthAdjust="spacing" textLength="40" x="683.5" y="340.4727">номер</text><text fill="#000000" font-family="sans-serif" font-size="13" lengthAdjust="spacing" textLength="4" x="723.5" y="340.4727"> </text><text fill="#000000" font-family="sans-serif" font-size="13" lengthAdjust="spacing" textLength="8" x="727.5" y="340.4727">и</text><text fill="#000000" font-family="sans-serif" font-size="13" lengthAdjust="spacing" textLength="4" x="735.5" y="340.4727"> </text><text fill="#000000" font-family="sans-serif" font-size="13" lengthAdjust="spacing" textLength="55" x="739.5" y="340.4727">смс-код</text><polygon fill="#181818" points="117.5,370.5254,107.5,374.5254,117.5,378.5254,113.5,374.5254" style="stroke:#181818;stroke-width:1.0;"/><line style="stroke:#181818;stroke-width:1.0;" x1="111.5" x2="810.5" y1="374.5254" y2="374.5254"/><text fill="#000000" font-family="sans-serif" font-size="13" lengthAdjust="spacing" textLength="55" x="123.5" y="369.7832">смс-код</text><polygon fill="#181818" points="310,399.8359,320,403.8359,310,407.8359,314,403.8359" style="stroke:#181818;stroke-width:1.0;"/><line style="stroke:#181818;stroke-width:1.0;" x1="106.5" x2="316" y1="403.8359" y2="403.8359"/><text fill="#000000" font-family="sans-serif" font-size="13" lengthAdjust="spacing" textLength="55" x="113.5" y="399.0938">смс-код</text><polygon fill="#181818" points="483,429.1465,493,433.1465,483,437.1465,487,433.1465" style="stroke:#181818;stroke-width:1.0;"/><line style="stroke:#181818;stroke-width:1.0;" x1="332" x2="489" y1="433.1465" y2="433.1465"/><text fill="#000000" font-family="sans-serif" font-size="13" lengthAdjust="spacing" textLength="55" x="339" y="428.4043">смс-код</text><polygon fill="#181818" points="664.5,458.457,674.5,462.457,664.5,466.457,668.5,462.457" style="stroke:#181818;stroke-width:1.0;"/><line style="stroke:#181818;stroke-width:1.0;" x1="505" x2="670.5" y1="462.457" y2="462.457"/><text fill="#000000" font-family="sans-serif" font-size="13" lengthAdjust="spacing" textLength="36" x="512" y="457.7148">токен</text><text fill="#000000" font-family="sans-serif" font-size="13" lengthAdjust="spacing" textLength="4" x="548" y="457.7148"> </text><text fill="#000000" font-family="sans-serif" font-size="13" lengthAdjust="spacing" textLength="8" x="552" y="457.7148">и</text><text fill="#000000" font-family="sans-serif" font-size="13" lengthAdjust="spacing" textLength="4" x="560" y="457.7148"> </text><text fill="#000000" font-family="sans-serif" font-size="13" lengthAdjust="spacing" textLength="55" x="564" y="457.7148">смс-код</text><polygon fill="#00008B" points="49.5,487.7676,39.5,491.7676,49.5,495.7676,45.5,491.7676" style="stroke:#00008B;stroke-width:1.0;"/><ellipse cx="499.5" cy="491.0176" fill="none" rx="4" ry="4" style="stroke:#00008B;stroke-width:1.5;"/><line style="stroke:#00008B;stroke-width:1.0;" x1="43.5" x2="495" y1="491.7676" y2="491.7676"/><text fill="#000000" font-family="sans-serif" font-size="13" lengthAdjust="spacing" textLength="76" x="55.5" y="487.0254">завершение</text><!--SRC=[ZPFDQjj058NtynI3iwreqcK80JU5u8M9gQatTHTJUsX4Oade9wHTnNRJ1fgcq0Sez0s4i8cmO-KLxhnHp-ZFakEMeeL6Sy-zzymtLzwPQJd25IC-4fTjwNdYW-oQdoJVUx7B62A-EJ0TOVcyqGpyqnEdmON7HRfax-t06Wht8s-yyQIRHW8ii7_96wtNTk1ZjrwarJcrBTcZtwdQoJysD4Vsi9GCzFg8IMl8KNP3g2trsgMbNdjBlDbfbOAcOrPCTzjTGztGKjtHVIhnHjwny2LZbkrBRbz8jtJuB3V2TphYN1wxKbhxd7wgMtLdq88IMgc9ki9xYMUkhjItlgN6-Bwd6ONOcN0TLbCrqM7sdAzxPDRhbNyXRKKXfoXhyO1ICvh3x2t7Ogb-z2sy8nIyvkexBL0zH4P2aSwvJkNXapO0KEi3Yt134SLgp2b6WGKzKgZ6Qefpn3Z7L7llMw38qI22_GG9CSuLgYzununbqs2ytNabtBENvu5yTsYNu70Md4DzHVAI4YO6lda1niLzbT_bAEW9uiPXlK02033ADRqKy6UD70SiL3eZA_blVSuwLmF7VyaFZBLS4m2bEQt-1cJT8viPj42G7jC168Fg19U8nOCQPxCpOqFv54Iva_y2nVsXRZweDUyKRzJCHLglcUvlX0lEXSTwD9_s2jLwV0l7AfXuY_p4EQYCY66lxqlJYTA_vaQd0-AyIYGVbSfEJkGF]--></g></svg>