<?xml version="1.0" encoding="UTF-8" standalone="no"?><svg xmlns="http://www.w3.org/2000/svg" xmlns:xlink="http://www.w3.org/1999/xlink" contentStyleType="text/css" height="458px" preserveAspectRatio="none" style="width:662px;height:458px;background:#FFFFFF;" version="1.1" viewBox="0 0 662 458" width="662px" zoomAndPan="magnify"><defs/><g><rect fill="#DDDDDD" height="446.0137" style="stroke:#181818;stroke-width:0.5;" width="81" x="166" y="6"/><text fill="#000000" font-family="sans-serif" font-size="13" font-weight="bold" lengthAdjust="spacing" textLength="49" x="182" y="18.5684">IRouter</text><rect fill="#FFFFFF" height="294.416" style="stroke:#181818;stroke-width:1.0;" width="10" x="201.5" y="88.1094"/><rect fill="#FFFFFF" height="294.416" style="stroke:#181818;stroke-width:1.0;" width="10" x="303.5" y="88.1094"/><line style="stroke:#181818;stroke-width:0.5;stroke-dasharray:5.0,5.0;" x1="40" x2="40" y1="56.7988" y2="400.5254"/><line style="stroke:#181818;stroke-width:0.5;stroke-dasharray:5.0,5.0;" x1="109" x2="109" y1="56.7988" y2="400.5254"/><line style="stroke:#181818;stroke-width:0.5;stroke-dasharray:5.0,5.0;" x1="206" x2="206" y1="56.7988" y2="400.5254"/><line style="stroke:#181818;stroke-width:0.5;stroke-dasharray:5.0,5.0;" x1="308" x2="308" y1="56.7988" y2="400.5254"/><line style="stroke:#181818;stroke-width:0.5;stroke-dasharray:5.0,5.0;" x1="391" x2="391" y1="56.7988" y2="400.5254"/><line style="stroke:#181818;stroke-width:0.5;stroke-dasharray:5.0,5.0;" x1="473" x2="473" y1="56.7988" y2="400.5254"/><line style="stroke:#181818;stroke-width:0.5;stroke-dasharray:5.0,5.0;" x1="621.5" x2="621.5" y1="56.7988" y2="400.5254"/><rect fill="#E2E2F0" height="30.4883" rx="2.5" ry="2.5" style="stroke:#181818;stroke-width:0.5;" width="70" x="5" y="25.3105"/><text fill="#000000" font-family="sans-serif" font-size="14" lengthAdjust="spacing" textLength="56" x="12" y="45.8457">CodeOp</text><rect fill="#E2E2F0" height="30.4883" rx="2.5" ry="2.5" style="stroke:#181818;stroke-width:0.5;" width="70" x="5" y="399.5254"/><text fill="#000000" font-family="sans-serif" font-size="14" lengthAdjust="spacing" textLength="56" x="12" y="420.0605">CodeOp</text><text fill="#000000" font-family="sans-serif" font-size="14" lengthAdjust="spacing" textLength="31" x="91" y="53.8457">User</text><path d="M89,12.3105 L89,36.3105 M89,24.3105 L106,24.3105 " fill="none" style="stroke:#181818;stroke-width:0.5;"/><ellipse cx="118" cy="24.3105" fill="#E2E2F0" rx="12" ry="12" style="stroke:#181818;stroke-width:0.5;"/><text fill="#000000" font-family="sans-serif" font-size="14" lengthAdjust="spacing" textLength="31" x="91" y="413.0605">User</text><path d="M89,420.0137 L89,444.0137 M89,432.0137 L106,432.0137 " fill="none" style="stroke:#181818;stroke-width:0.5;"/><ellipse cx="118" cy="432.0137" fill="#E2E2F0" rx="12" ry="12" style="stroke:#181818;stroke-width:0.5;"/><rect fill="#E2E2F0" height="30.4883" rx="2.5" ry="2.5" style="stroke:#181818;stroke-width:0.5;" width="73" x="170" y="25.3105"/><text fill="#000000" font-family="sans-serif" font-size="14" lengthAdjust="spacing" textLength="59" x="177" y="45.8457">ICodeVС</text><rect fill="#E2E2F0" height="30.4883" rx="2.5" ry="2.5" style="stroke:#181818;stroke-width:0.5;" width="73" x="170" y="399.5254"/><text fill="#000000" font-family="sans-serif" font-size="14" lengthAdjust="spacing" textLength="59" x="177" y="420.0605">ICodeVС</text><rect fill="#E2E2F0" height="30.4883" rx="2.5" ry="2.5" style="stroke:#181818;stroke-width:0.5;" width="75" x="271" y="25.3105"/><text fill="#000000" font-family="sans-serif" font-size="14" lengthAdjust="spacing" textLength="61" x="278" y="45.8457">ICodeVM</text><rect fill="#E2E2F0" height="30.4883" rx="2.5" ry="2.5" style="stroke:#181818;stroke-width:0.5;" width="75" x="271" y="399.5254"/><text fill="#000000" font-family="sans-serif" font-size="14" lengthAdjust="spacing" textLength="61" x="278" y="420.0605">ICodeVM</text><rect fill="#E2E2F0" height="30.4883" rx="2.5" ry="2.5" style="stroke:#181818;stroke-width:0.5;" width="71" x="356" y="25.3105"/><text fill="#000000" font-family="sans-serif" font-size="14" lengthAdjust="spacing" textLength="57" x="363" y="45.8457">IStorage</text><rect fill="#E2E2F0" height="30.4883" rx="2.5" ry="2.5" style="stroke:#181818;stroke-width:0.5;" width="71" x="356" y="399.5254"/><text fill="#000000" font-family="sans-serif" font-size="14" lengthAdjust="spacing" textLength="57" x="363" y="420.0605">IStorage</text><rect fill="#E2E2F0" height="30.4883" rx="2.5" ry="2.5" style="stroke:#181818;stroke-width:0.5;" width="73" x="437" y="25.3105"/><text fill="#000000" font-family="sans-serif" font-size="14" lengthAdjust="spacing" textLength="59" x="444" y="45.8457">IAuthAPI</text><rect fill="#E2E2F0" height="30.4883" rx="2.5" ry="2.5" style="stroke:#181818;stroke-width:0.5;" width="73" x="437" y="399.5254"/><text fill="#000000" font-family="sans-serif" font-size="14" lengthAdjust="spacing" textLength="59" x="444" y="420.0605">IAuthAPI</text><text fill="#000000" font-family="sans-serif" font-size="14" lengthAdjust="spacing" textLength="74" x="581.5" y="53.8457">SMS-шлюз</text><path d="M601,12.3105 L601,36.3105 M601,24.3105 L618,24.3105 " fill="none" style="stroke:#181818;stroke-width:0.5;"/><ellipse cx="630" cy="24.3105" fill="#E2E2F0" rx="12" ry="12" style="stroke:#181818;stroke-width:0.5;"/><text fill="#000000" font-family="sans-serif" font-size="14" lengthAdjust="spacing" textLength="74" x="581.5" y="413.0605">SMS-шлюз</text><path d="M601,420.0137 L601,444.0137 M601,432.0137 L618,432.0137 " fill="none" style="stroke:#181818;stroke-width:0.5;"/><ellipse cx="630" cy="432.0137" fill="#E2E2F0" rx="12" ry="12" style="stroke:#181818;stroke-width:0.5;"/><rect fill="#FFFFFF" height="294.416" style="stroke:#181818;stroke-width:1.0;" width="10" x="201.5" y="88.1094"/><rect fill="#FFFFFF" height="294.416" style="stroke:#181818;stroke-width:1.0;" width="10" x="303.5" y="88.1094"/><ellipse cx="201" cy="87.3594" fill="none" rx="4" ry="4" style="stroke:#00008B;stroke-width:1.5;"/><polygon fill="#00008B" points="184,84.1094,194,88.1094,184,92.1094,188,88.1094" style="stroke:#00008B;stroke-width:1.0;"/><line style="stroke:#00008B;stroke-width:1.0;" x1="40" x2="190" y1="88.1094" y2="88.1094"/><text fill="#800000" font-family="sans-serif" font-size="13" font-weight="bold" lengthAdjust="spacing" textLength="9" x="47" y="83.3672">1</text><text fill="#000000" font-family="sans-serif" font-size="13" lengthAdjust="spacing" textLength="45" x="60" y="83.3672">начало</text><polygon fill="#181818" points="324.5,113.4199,314.5,117.4199,324.5,121.4199,320.5,117.4199" style="stroke:#181818;stroke-width:1.0;"/><line style="stroke:#181818;stroke-width:1.0;" x1="318.5" x2="390.5" y1="117.4199" y2="117.4199"/><text fill="#800000" font-family="sans-serif" font-size="13" font-weight="bold" lengthAdjust="spacing" textLength="9" x="330.5" y="112.6777">2</text><text fill="#000000" font-family="sans-serif" font-size="13" lengthAdjust="spacing" textLength="36" x="343.5" y="112.6777">token</text><polygon fill="#181818" points="461.5,158.041,471.5,162.041,461.5,166.041,465.5,162.041" style="stroke:#181818;stroke-width:1.0;"/><line style="stroke:#181818;stroke-width:1.0;" x1="313.5" x2="467.5" y1="162.041" y2="162.041"/><text fill="#800000" font-family="sans-serif" font-size="13" font-weight="bold" lengthAdjust="spacing" textLength="9" x="320.5" y="149.6436">3</text><text fill="#000000" font-family="sans-serif" font-size="13" lengthAdjust="spacing" textLength="44" x="333.5" y="141.9883">запрос</text><text fill="#000000" font-family="sans-serif" font-size="13" lengthAdjust="spacing" textLength="4" x="377.5" y="141.9883"> </text><text fill="#000000" font-family="sans-serif" font-size="13" lengthAdjust="spacing" textLength="62" x="381.5" y="141.9883">смс-кода</text><text fill="#000000" font-family="sans-serif" font-size="13" lengthAdjust="spacing" textLength="16" x="333.5" y="157.2988">по</text><text fill="#000000" font-family="sans-serif" font-size="13" lengthAdjust="spacing" textLength="4" x="349.5" y="157.2988"> </text><text fill="#000000" font-family="sans-serif" font-size="13" lengthAdjust="spacing" textLength="43" x="353.5" y="157.2988">токену</text><polygon fill="#181818" points="609.5,187.3516,619.5,191.3516,609.5,195.3516,613.5,191.3516" style="stroke:#181818;stroke-width:1.0;"/><line style="stroke:#181818;stroke-width:1.0;" x1="473.5" x2="615.5" y1="191.3516" y2="191.3516"/><text fill="#800000" font-family="sans-serif" font-size="13" font-weight="bold" lengthAdjust="spacing" textLength="9" x="480.5" y="186.6094">4</text><text fill="#000000" font-family="sans-serif" font-size="13" lengthAdjust="spacing" textLength="40" x="493.5" y="186.6094">номер</text><text fill="#000000" font-family="sans-serif" font-size="13" lengthAdjust="spacing" textLength="4" x="533.5" y="186.6094"> </text><text fill="#000000" font-family="sans-serif" font-size="13" lengthAdjust="spacing" textLength="8" x="537.5" y="186.6094">и</text><text fill="#000000" font-family="sans-serif" font-size="13" lengthAdjust="spacing" textLength="4" x="545.5" y="186.6094"> </text><text fill="#000000" font-family="sans-serif" font-size="13" lengthAdjust="spacing" textLength="55" x="549.5" y="186.6094">смс-код</text><polygon fill="#181818" points="120.5,216.6621,110.5,220.6621,120.5,224.6621,116.5,220.6621" style="stroke:#181818;stroke-width:1.0;"/><line style="stroke:#181818;stroke-width:1.0;" x1="114.5" x2="620.5" y1="220.6621" y2="220.6621"/><text fill="#800000" font-family="sans-serif" font-size="13" font-weight="bold" lengthAdjust="spacing" textLength="9" x="126.5" y="215.9199">5</text><text fill="#000000" font-family="sans-serif" font-size="13" lengthAdjust="spacing" textLength="55" x="139.5" y="215.9199">смс-код</text><polygon fill="#181818" points="189.5,245.9727,199.5,249.9727,189.5,253.9727,193.5,249.9727" style="stroke:#181818;stroke-width:1.0;"/><line style="stroke:#181818;stroke-width:1.0;" x1="109.5" x2="195.5" y1="249.9727" y2="249.9727"/><text fill="#800000" font-family="sans-serif" font-size="13" font-weight="bold" lengthAdjust="spacing" textLength="9" x="116.5" y="245.2305">6</text><text fill="#000000" font-family="sans-serif" font-size="13" lengthAdjust="spacing" textLength="55" x="129.5" y="245.2305">смс-код</text><polygon fill="#181818" points="291.5,275.2832,301.5,279.2832,291.5,283.2832,295.5,279.2832" style="stroke:#181818;stroke-width:1.0;"/><line style="stroke:#181818;stroke-width:1.0;" x1="211.5" x2="297.5" y1="279.2832" y2="279.2832"/><text fill="#800000" font-family="sans-serif" font-size="13" font-weight="bold" lengthAdjust="spacing" textLength="9" x="218.5" y="274.541">7</text><text fill="#000000" font-family="sans-serif" font-size="13" lengthAdjust="spacing" textLength="55" x="231.5" y="274.541">смс-код</text><polygon fill="#181818" points="461.5,304.5938,471.5,308.5938,461.5,312.5938,465.5,308.5938" style="stroke:#181818;stroke-width:1.0;"/><line style="stroke:#181818;stroke-width:1.0;" x1="313.5" x2="467.5" y1="308.5938" y2="308.5938"/><text fill="#800000" font-family="sans-serif" font-size="13" font-weight="bold" lengthAdjust="spacing" textLength="9" x="320.5" y="303.8516">8</text><text fill="#000000" font-family="sans-serif" font-size="13" lengthAdjust="spacing" textLength="36" x="333.5" y="303.8516">токен</text><text fill="#000000" font-family="sans-serif" font-size="13" lengthAdjust="spacing" textLength="4" x="369.5" y="303.8516"> </text><text fill="#000000" font-family="sans-serif" font-size="13" lengthAdjust="spacing" textLength="8" x="373.5" y="303.8516">и</text><text fill="#000000" font-family="sans-serif" font-size="13" lengthAdjust="spacing" textLength="4" x="381.5" y="303.8516"> </text><text fill="#000000" font-family="sans-serif" font-size="13" lengthAdjust="spacing" textLength="55" x="385.5" y="303.8516">смс-код</text><polygon fill="#181818" points="324.5,349.2148,314.5,353.2148,324.5,357.2148,320.5,353.2148" style="stroke:#181818;stroke-width:1.0;"/><line style="stroke:#181818;stroke-width:1.0;stroke-dasharray:2.0,2.0;" x1="318.5" x2="472.5" y1="353.2148" y2="353.2148"/><text fill="#800000" font-family="sans-serif" font-size="13" font-weight="bold" lengthAdjust="spacing" textLength="9" x="330.5" y="340.8174">9</text><text fill="#000000" font-family="sans-serif" font-size="13" lengthAdjust="spacing" textLength="62" x="343.5" y="333.1621">результат</text><text fill="#000000" font-family="sans-serif" font-size="13" lengthAdjust="spacing" textLength="61" x="343.5" y="348.4727">проверки</text><polygon fill="#00008B" points="51,378.5254,41,382.5254,51,386.5254,47,382.5254" style="stroke:#00008B;stroke-width:1.0;"/><ellipse cx="308" cy="381.7754" fill="none" rx="4" ry="4" style="stroke:#00008B;stroke-width:1.5;"/><line style="stroke:#00008B;stroke-width:1.0;" x1="45" x2="303.5" y1="382.5254" y2="382.5254"/><text fill="#800000" font-family="sans-serif" font-size="13" font-weight="bold" lengthAdjust="spacing" textLength="18" x="57" y="377.7832">10</text><text fill="#000000" font-family="sans-serif" font-size="13" lengthAdjust="spacing" textLength="76" x="79" y="377.7832">завершение</text><!--SRC=[RL7BJi905DtFLqpgkabz9mH941F3ej58T6DS37JK1kYGwTIeAz25Bep_u1yG8u48b5-uyqVUjbE4wkvEpwFtt1Es_Q379ElIBhjtUHYo6zxm7pdTt788YvG8ecwJIsgLhqMWQ4jqX3nmcHGYg9IR5OiGL2k_vVSOmbPDUFoaPr4M8ZKPgP0UoZSTqXHHu37vGAtpaCkK4k5W25i9uPvQzJCHAOJNRUk9xmLyB8qlQaQtxH0UU1Ir_odSNu5h13jEWTXGGcBeb1bciw7k5gdLIDrMJ-ifbILpppVKlTLy3RTXwrUOwdSOPxRTy9Yft7RV8IGxZdsvSSHa-x0JyQkACC5A5EOmr2ymX2d4XBMKVvU8CxJmTea9LxRpvKjKYJOFSi2kvAkYyHXD5xeFiHvGFO2P7jZm3J5ymP320cAgd_3r3IEOwsUIHqGBao3TBOOPZ7IVmcJTW-GnaPyqMoh0QTk8vJ7NKTDgZhl_ukjnVfVzkyloBBQz8kWZUQoViPet50_r4ytE0Pz98fHEJ3FbbMPiiLmfFM3AnNxnlp214V5uiPFYbnhv0G00]--></g></svg>