<?xml version="1.0" encoding="UTF-8" standalone="no"?><svg xmlns="http://www.w3.org/2000/svg" xmlns:xlink="http://www.w3.org/1999/xlink" contentStyleType="text/css" height="360px" preserveAspectRatio="none" style="width:622px;height:360px;background:#FFFFFF;" version="1.1" viewBox="0 0 622 360" width="622px" zoomAndPan="magnify"><defs/><g><rect fill="#DDDDDD" height="348.7715" style="stroke:#181818;stroke-width:0.5;" width="88" x="219.5" y="6"/><text fill="#000000" font-family="sans-serif" font-size="13" font-weight="bold" lengthAdjust="spacing" textLength="49" x="239" y="18.5684">IRouter</text><rect fill="#FFFFFF" height="146.5527" style="stroke:#181818;stroke-width:1.0;" width="10" x="258.5" y="138.7305"/><rect fill="#FFFFFF" height="146.5527" style="stroke:#181818;stroke-width:1.0;" width="10" x="410.5" y="138.7305"/><line style="stroke:#181818;stroke-width:0.5;stroke-dasharray:5.0,5.0;" x1="43" x2="43" y1="56.7988" y2="303.2832"/><line style="stroke:#181818;stroke-width:0.5;stroke-dasharray:5.0,5.0;" x1="116" x2="116" y1="56.7988" y2="303.2832"/><line style="stroke:#181818;stroke-width:0.5;stroke-dasharray:5.0,5.0;" x1="263.5" x2="263.5" y1="56.7988" y2="303.2832"/><line style="stroke:#181818;stroke-width:0.5;stroke-dasharray:5.0,5.0;" x1="415.5" x2="415.5" y1="56.7988" y2="303.2832"/><line style="stroke:#181818;stroke-width:0.5;stroke-dasharray:5.0,5.0;" x1="579" x2="579" y1="56.7988" y2="303.2832"/><rect fill="#E2E2F0" height="30.4883" rx="2.5" ry="2.5" style="stroke:#181818;stroke-width:0.5;" width="77" x="5" y="25.3105"/><text fill="#000000" font-family="sans-serif" font-size="14" lengthAdjust="spacing" textLength="63" x="12" y="45.8457">PhoneOp</text><rect fill="#E2E2F0" height="30.4883" rx="2.5" ry="2.5" style="stroke:#181818;stroke-width:0.5;" width="77" x="5" y="302.2832"/><text fill="#000000" font-family="sans-serif" font-size="14" lengthAdjust="spacing" textLength="63" x="12" y="322.8184">PhoneOp</text><text fill="#000000" font-family="sans-serif" font-size="14" lengthAdjust="spacing" textLength="31" x="98" y="53.8457">User</text><path d="M96,12.3105 L96,36.3105 M96,24.3105 L113,24.3105 " fill="none" style="stroke:#181818;stroke-width:0.5;"/><ellipse cx="125" cy="24.3105" fill="#E2E2F0" rx="12" ry="12" style="stroke:#181818;stroke-width:0.5;"/><text fill="#000000" font-family="sans-serif" font-size="14" lengthAdjust="spacing" textLength="31" x="98" y="315.8184">User</text><path d="M96,322.7715 L96,346.7715 M96,334.7715 L113,334.7715 " fill="none" style="stroke:#181818;stroke-width:0.5;"/><ellipse cx="125" cy="334.7715" fill="#E2E2F0" rx="12" ry="12" style="stroke:#181818;stroke-width:0.5;"/><rect fill="#E2E2F0" height="30.4883" rx="2.5" ry="2.5" style="stroke:#181818;stroke-width:0.5;" width="80" x="223.5" y="25.3105"/><text fill="#000000" font-family="sans-serif" font-size="14" lengthAdjust="spacing" textLength="66" x="230.5" y="45.8457">IPhoneVС</text><rect fill="#E2E2F0" height="30.4883" rx="2.5" ry="2.5" style="stroke:#181818;stroke-width:0.5;" width="80" x="223.5" y="302.2832"/><text fill="#000000" font-family="sans-serif" font-size="14" lengthAdjust="spacing" textLength="66" x="230.5" y="322.8184">IPhoneVС</text><rect fill="#E2E2F0" height="30.4883" rx="2.5" ry="2.5" style="stroke:#181818;stroke-width:0.5;" width="82" x="374.5" y="25.3105"/><text fill="#000000" font-family="sans-serif" font-size="14" lengthAdjust="spacing" textLength="68" x="381.5" y="45.8457">IPhoneVM</text><rect fill="#E2E2F0" height="30.4883" rx="2.5" ry="2.5" style="stroke:#181818;stroke-width:0.5;" width="82" x="374.5" y="302.2832"/><text fill="#000000" font-family="sans-serif" font-size="14" lengthAdjust="spacing" textLength="68" x="381.5" y="322.8184">IPhoneVM</text><rect fill="#E2E2F0" height="30.4883" rx="2.5" ry="2.5" style="stroke:#181818;stroke-width:0.5;" width="73" x="543" y="25.3105"/><text fill="#000000" font-family="sans-serif" font-size="14" lengthAdjust="spacing" textLength="59" x="550" y="45.8457">IAuthAPI</text><rect fill="#E2E2F0" height="30.4883" rx="2.5" ry="2.5" style="stroke:#181818;stroke-width:0.5;" width="73" x="543" y="302.2832"/><text fill="#000000" font-family="sans-serif" font-size="14" lengthAdjust="spacing" textLength="59" x="550" y="322.8184">IAuthAPI</text><rect fill="#FFFFFF" height="146.5527" style="stroke:#181818;stroke-width:1.0;" width="10" x="258.5" y="138.7305"/><rect fill="#FFFFFF" height="146.5527" style="stroke:#181818;stroke-width:1.0;" width="10" x="410.5" y="138.7305"/><path d="M328,71.7988 L328,111.7988 L503,111.7988 L503,81.7988 L493,71.7988 L328,71.7988 " fill="#98FB98" style="stroke:#181818;stroke-width:0.5;"/><path d="M493,71.7988 L493,81.7988 L503,81.7988 L493,71.7988 " fill="#98FB98" style="stroke:#181818;stroke-width:0.5;"/><text fill="#000000" font-family="sans-serif" font-size="13" lengthAdjust="spacing" textLength="154" x="334" y="89.3672">Отдельная вью-модель</text><text fill="#000000" font-family="sans-serif" font-size="13" lengthAdjust="spacing" textLength="140" x="334" y="104.6777">для номера телефона</text><ellipse cx="258" cy="137.9805" fill="none" rx="4" ry="4" style="stroke:#00008B;stroke-width:1.5;"/><polygon fill="#00008B" points="241,134.7305,251,138.7305,241,142.7305,245,138.7305" style="stroke:#00008B;stroke-width:1.0;"/><line style="stroke:#00008B;stroke-width:1.0;" x1="43.5" x2="247" y1="138.7305" y2="138.7305"/><text fill="#800000" font-family="sans-serif" font-size="13" font-weight="bold" lengthAdjust="spacing" textLength="9" x="50.5" y="133.9883">1</text><text fill="#000000" font-family="sans-serif" font-size="13" lengthAdjust="spacing" textLength="45" x="63.5" y="133.9883">начало</text><polygon fill="#181818" points="246.5,164.041,256.5,168.041,246.5,172.041,250.5,168.041" style="stroke:#181818;stroke-width:1.0;"/><line style="stroke:#181818;stroke-width:1.0;" x1="116.5" x2="252.5" y1="168.041" y2="168.041"/><text fill="#800000" font-family="sans-serif" font-size="13" font-weight="bold" lengthAdjust="spacing" textLength="9" x="123.5" y="163.2988">2</text><text fill="#000000" font-family="sans-serif" font-size="13" lengthAdjust="spacing" textLength="105" x="136.5" y="163.2988">номер телефона</text><polygon fill="#181818" points="398.5,193.3516,408.5,197.3516,398.5,201.3516,402.5,197.3516" style="stroke:#181818;stroke-width:1.0;"/><line style="stroke:#181818;stroke-width:1.0;" x1="268.5" x2="404.5" y1="197.3516" y2="197.3516"/><text fill="#800000" font-family="sans-serif" font-size="13" font-weight="bold" lengthAdjust="spacing" textLength="9" x="275.5" y="192.6094">3</text><text fill="#000000" font-family="sans-serif" font-size="13" lengthAdjust="spacing" textLength="105" x="288.5" y="192.6094">номер телефона</text><polygon fill="#181818" points="567.5,222.6621,577.5,226.6621,567.5,230.6621,571.5,226.6621" style="stroke:#181818;stroke-width:1.0;"/><line style="stroke:#181818;stroke-width:1.0;" x1="420.5" x2="573.5" y1="226.6621" y2="226.6621"/><text fill="#800000" font-family="sans-serif" font-size="13" font-weight="bold" lengthAdjust="spacing" textLength="9" x="427.5" y="221.9199">4</text><text fill="#000000" font-family="sans-serif" font-size="13" lengthAdjust="spacing" textLength="105" x="440.5" y="221.9199">номер телефона</text><polygon fill="#181818" points="431.5,251.9727,421.5,255.9727,431.5,259.9727,427.5,255.9727" style="stroke:#181818;stroke-width:1.0;"/><line style="stroke:#181818;stroke-width:1.0;stroke-dasharray:2.0,2.0;" x1="425.5" x2="578.5" y1="255.9727" y2="255.9727"/><text fill="#800000" font-family="sans-serif" font-size="13" font-weight="bold" lengthAdjust="spacing" textLength="9" x="437.5" y="251.2305">5</text><text fill="#000000" font-family="sans-serif" font-size="13" lengthAdjust="spacing" textLength="122" x="450.5" y="251.2305">токен авторизации</text><polygon fill="#00008B" points="54.5,281.2832,44.5,285.2832,54.5,289.2832,50.5,285.2832" style="stroke:#00008B;stroke-width:1.0;"/><ellipse cx="415" cy="284.5332" fill="none" rx="4" ry="4" style="stroke:#00008B;stroke-width:1.5;"/><line style="stroke:#00008B;stroke-width:1.0;" x1="48.5" x2="410.5" y1="285.2832" y2="285.2832"/><text fill="#800000" font-family="sans-serif" font-size="13" font-weight="bold" lengthAdjust="spacing" textLength="9" x="60.5" y="280.541">6</text><text fill="#000000" font-family="sans-serif" font-size="13" lengthAdjust="spacing" textLength="210" x="73.5" y="280.541">завершение [токен авторизации]</text><!--SRC=[ZP3BIiD058RtynI7T1s8jqs9XOeWNGIBe9lQnRGPQR3EX6bIT2SYwgBe6mXzWoAM5djvXfCtyaoQtWMxcZFd_Dy_PtuUHqh6TpMXmN9lb8oWhffA7tjSAoKBRgrWCHPo7GNr8EGqjieD9SLvQ05lGJYhGMcV3FOSLbEnzBb-0Eko9NIgYQd81Fj6S0zMwKB54OtNZKkfynLsbzPqoT03Xmdf0-5_GjuAusN8eRCXBSPHerWkfL9kwZ38f4SEOr950bIRRdERN9atnPaMGkO1FvCd_CO-Zf8EJh2NV01-9PtatSOnJkUJQqdLoCmcr1nZFtd47X19KxeyKvDO2dIMcrt9dN9zUzACHRMW5b_EG_h2A_Q8cZ9UZu8sf-MolJORs6LfndPXtI5ROFlvHRGBmji5y8m-osqtlMlRzf8WsHH_I3e1-jcNkL8yGnpGNr_e7CvZSLTYiTNAYWF3cIUJDsD3J1yg_zfMcI-s8zlgUUmN]--></g></svg>