<?xml version="1.0" encoding="UTF-8" standalone="no"?><svg xmlns="http://www.w3.org/2000/svg" xmlns:xlink="http://www.w3.org/1999/xlink" contentStyleType="text/css" height="420px" preserveAspectRatio="none" style="width:664px;height:420px;background:#FFFFFF;" version="1.1" viewBox="0 0 664 420" width="664px" zoomAndPan="magnify"><defs/><g><rect fill="#DDDDDD" height="408.7031" style="stroke:#181818;stroke-width:0.5;" width="88" x="219.5" y="6"/><text fill="#000000" font-family="sans-serif" font-size="13" font-weight="bold" lengthAdjust="spacing" textLength="49" x="239" y="18.5684">IRouter</text><rect fill="#FFFFFF" height="206.4844" style="stroke:#181818;stroke-width:1.0;" width="10" x="258.5" y="138.7305"/><rect fill="#FFFFFF" height="206.4844" style="stroke:#181818;stroke-width:1.0;" width="10" x="410.5" y="138.7305"/><line style="stroke:#181818;stroke-width:0.5;stroke-dasharray:5.0,5.0;" x1="43" x2="43" y1="56.7988" y2="363.2148"/><line style="stroke:#181818;stroke-width:0.5;stroke-dasharray:5.0,5.0;" x1="116" x2="116" y1="56.7988" y2="363.2148"/><line style="stroke:#181818;stroke-width:0.5;stroke-dasharray:5.0,5.0;" x1="263.5" x2="263.5" y1="56.7988" y2="363.2148"/><line style="stroke:#181818;stroke-width:0.5;stroke-dasharray:5.0,5.0;" x1="415.5" x2="415.5" y1="56.7988" y2="363.2148"/><line style="stroke:#181818;stroke-width:0.5;stroke-dasharray:5.0,5.0;" x1="539" x2="539" y1="56.7988" y2="363.2148"/><line style="stroke:#181818;stroke-width:0.5;stroke-dasharray:5.0,5.0;" x1="621" x2="621" y1="56.7988" y2="363.2148"/><rect fill="#E2E2F0" height="30.4883" rx="2.5" ry="2.5" style="stroke:#181818;stroke-width:0.5;" width="77" x="5" y="25.3105"/><text fill="#000000" font-family="sans-serif" font-size="14" lengthAdjust="spacing" textLength="63" x="12" y="45.8457">PhoneOp</text><rect fill="#E2E2F0" height="30.4883" rx="2.5" ry="2.5" style="stroke:#181818;stroke-width:0.5;" width="77" x="5" y="362.2148"/><text fill="#000000" font-family="sans-serif" font-size="14" lengthAdjust="spacing" textLength="63" x="12" y="382.75">PhoneOp</text><text fill="#000000" font-family="sans-serif" font-size="14" lengthAdjust="spacing" textLength="31" x="98" y="53.8457">User</text><path d="M96,12.3105 L96,36.3105 M96,24.3105 L113,24.3105 " fill="none" style="stroke:#181818;stroke-width:0.5;"/><ellipse cx="125" cy="24.3105" fill="#E2E2F0" rx="12" ry="12" style="stroke:#181818;stroke-width:0.5;"/><text fill="#000000" font-family="sans-serif" font-size="14" lengthAdjust="spacing" textLength="31" x="98" y="375.75">User</text><path d="M96,382.7031 L96,406.7031 M96,394.7031 L113,394.7031 " fill="none" style="stroke:#181818;stroke-width:0.5;"/><ellipse cx="125" cy="394.7031" fill="#E2E2F0" rx="12" ry="12" style="stroke:#181818;stroke-width:0.5;"/><rect fill="#E2E2F0" height="30.4883" rx="2.5" ry="2.5" style="stroke:#181818;stroke-width:0.5;" width="80" x="223.5" y="25.3105"/><text fill="#000000" font-family="sans-serif" font-size="14" lengthAdjust="spacing" textLength="66" x="230.5" y="45.8457">IPhoneVС</text><rect fill="#E2E2F0" height="30.4883" rx="2.5" ry="2.5" style="stroke:#181818;stroke-width:0.5;" width="80" x="223.5" y="362.2148"/><text fill="#000000" font-family="sans-serif" font-size="14" lengthAdjust="spacing" textLength="66" x="230.5" y="382.75">IPhoneVС</text><rect fill="#E2E2F0" height="30.4883" rx="2.5" ry="2.5" style="stroke:#181818;stroke-width:0.5;" width="82" x="374.5" y="25.3105"/><text fill="#000000" font-family="sans-serif" font-size="14" lengthAdjust="spacing" textLength="68" x="381.5" y="45.8457">IPhoneVM</text><rect fill="#E2E2F0" height="30.4883" rx="2.5" ry="2.5" style="stroke:#181818;stroke-width:0.5;" width="82" x="374.5" y="362.2148"/><text fill="#000000" font-family="sans-serif" font-size="14" lengthAdjust="spacing" textLength="68" x="381.5" y="382.75">IPhoneVM</text><rect fill="#E2E2F0" height="30.4883" rx="2.5" ry="2.5" style="stroke:#181818;stroke-width:0.5;" width="71" x="504" y="25.3105"/><text fill="#000000" font-family="sans-serif" font-size="14" lengthAdjust="spacing" textLength="57" x="511" y="45.8457">IStorage</text><rect fill="#E2E2F0" height="30.4883" rx="2.5" ry="2.5" style="stroke:#181818;stroke-width:0.5;" width="71" x="504" y="362.2148"/><text fill="#000000" font-family="sans-serif" font-size="14" lengthAdjust="spacing" textLength="57" x="511" y="382.75">IStorage</text><rect fill="#E2E2F0" height="30.4883" rx="2.5" ry="2.5" style="stroke:#181818;stroke-width:0.5;" width="73" x="585" y="25.3105"/><text fill="#000000" font-family="sans-serif" font-size="14" lengthAdjust="spacing" textLength="59" x="592" y="45.8457">IAuthAPI</text><rect fill="#E2E2F0" height="30.4883" rx="2.5" ry="2.5" style="stroke:#181818;stroke-width:0.5;" width="73" x="585" y="362.2148"/><text fill="#000000" font-family="sans-serif" font-size="14" lengthAdjust="spacing" textLength="59" x="592" y="382.75">IAuthAPI</text><rect fill="#FFFFFF" height="206.4844" style="stroke:#181818;stroke-width:1.0;" width="10" x="258.5" y="138.7305"/><rect fill="#FFFFFF" height="206.4844" style="stroke:#181818;stroke-width:1.0;" width="10" x="410.5" y="138.7305"/><path d="M328,71.7988 L328,111.7988 L503,111.7988 L503,81.7988 L493,71.7988 L328,71.7988 " fill="#98FB98" style="stroke:#181818;stroke-width:0.5;"/><path d="M493,71.7988 L493,81.7988 L503,81.7988 L493,71.7988 " fill="#98FB98" style="stroke:#181818;stroke-width:0.5;"/><text fill="#000000" font-family="sans-serif" font-size="13" lengthAdjust="spacing" textLength="154" x="334" y="89.3672">Отдельная вью-модель</text><text fill="#000000" font-family="sans-serif" font-size="13" lengthAdjust="spacing" textLength="140" x="334" y="104.6777">для номера телефона</text><ellipse cx="258" cy="137.9805" fill="none" rx="4" ry="4" style="stroke:#00008B;stroke-width:1.5;"/><polygon fill="#00008B" points="241,134.7305,251,138.7305,241,142.7305,245,138.7305" style="stroke:#00008B;stroke-width:1.0;"/><line style="stroke:#00008B;stroke-width:1.0;" x1="43.5" x2="247" y1="138.7305" y2="138.7305"/><text fill="#800000" font-family="sans-serif" font-size="13" font-weight="bold" lengthAdjust="spacing" textLength="9" x="50.5" y="133.9883">1</text><text fill="#000000" font-family="sans-serif" font-size="13" lengthAdjust="spacing" textLength="45" x="63.5" y="133.9883">начало</text><polygon fill="#181818" points="246.5,164.041,256.5,168.041,246.5,172.041,250.5,168.041" style="stroke:#181818;stroke-width:1.0;"/><line style="stroke:#181818;stroke-width:1.0;" x1="116.5" x2="252.5" y1="168.041" y2="168.041"/><text fill="#800000" font-family="sans-serif" font-size="13" font-weight="bold" lengthAdjust="spacing" textLength="9" x="123.5" y="163.2988">2</text><text fill="#000000" font-family="sans-serif" font-size="13" lengthAdjust="spacing" textLength="40" x="136.5" y="163.2988">номер</text><text fill="#000000" font-family="sans-serif" font-size="13" lengthAdjust="spacing" textLength="4" x="176.5" y="163.2988"> </text><text fill="#000000" font-family="sans-serif" font-size="13" lengthAdjust="spacing" textLength="61" x="180.5" y="163.2988">телефона</text><polygon fill="#181818" points="398.5,193.3516,408.5,197.3516,398.5,201.3516,402.5,197.3516" style="stroke:#181818;stroke-width:1.0;"/><line style="stroke:#181818;stroke-width:1.0;" x1="268.5" x2="404.5" y1="197.3516" y2="197.3516"/><text fill="#800000" font-family="sans-serif" font-size="13" font-weight="bold" lengthAdjust="spacing" textLength="9" x="275.5" y="192.6094">3</text><text fill="#000000" font-family="sans-serif" font-size="13" lengthAdjust="spacing" textLength="40" x="288.5" y="192.6094">номер</text><text fill="#000000" font-family="sans-serif" font-size="13" lengthAdjust="spacing" textLength="4" x="328.5" y="192.6094"> </text><text fill="#000000" font-family="sans-serif" font-size="13" lengthAdjust="spacing" textLength="61" x="332.5" y="192.6094">телефона</text><polygon fill="#181818" points="609.5,222.6621,619.5,226.6621,609.5,230.6621,613.5,226.6621" style="stroke:#181818;stroke-width:1.0;"/><line style="stroke:#181818;stroke-width:1.0;" x1="420.5" x2="615.5" y1="226.6621" y2="226.6621"/><text fill="#800000" font-family="sans-serif" font-size="13" font-weight="bold" lengthAdjust="spacing" textLength="9" x="427.5" y="221.9199">4</text><text fill="#000000" font-family="sans-serif" font-size="13" lengthAdjust="spacing" textLength="40" x="440.5" y="221.9199">номер</text><text fill="#000000" font-family="sans-serif" font-size="13" lengthAdjust="spacing" textLength="4" x="480.5" y="221.9199"> </text><text fill="#000000" font-family="sans-serif" font-size="13" lengthAdjust="spacing" textLength="61" x="484.5" y="221.9199">телефона</text><polygon fill="#181818" points="431.5,267.2832,421.5,271.2832,431.5,275.2832,427.5,271.2832" style="stroke:#181818;stroke-width:1.0;"/><line style="stroke:#181818;stroke-width:1.0;stroke-dasharray:2.0,2.0;" x1="425.5" x2="620.5" y1="271.2832" y2="271.2832"/><text fill="#800000" font-family="sans-serif" font-size="13" font-weight="bold" lengthAdjust="spacing" textLength="9" x="437.5" y="258.8857">5</text><text fill="#000000" font-family="sans-serif" font-size="13" lengthAdjust="spacing" textLength="36" x="450.5" y="251.2305">токен</text><text fill="#000000" font-family="sans-serif" font-size="13" lengthAdjust="spacing" textLength="82" x="450.5" y="266.541">авторизации</text><polygon fill="#181818" points="527.5,311.9043,537.5,315.9043,527.5,319.9043,531.5,315.9043" style="stroke:#181818;stroke-width:1.0;"/><line style="stroke:#181818;stroke-width:1.0;" x1="420.5" x2="533.5" y1="315.9043" y2="315.9043"/><text fill="#800000" font-family="sans-serif" font-size="13" font-weight="bold" lengthAdjust="spacing" textLength="9" x="427.5" y="303.5068">6</text><text fill="#000000" font-family="sans-serif" font-size="13" lengthAdjust="spacing" textLength="36" x="440.5" y="295.8516">токен</text><text fill="#000000" font-family="sans-serif" font-size="13" lengthAdjust="spacing" textLength="82" x="440.5" y="311.1621">авторизации</text><polygon fill="#00008B" points="54.5,341.2148,44.5,345.2148,54.5,349.2148,50.5,345.2148" style="stroke:#00008B;stroke-width:1.0;"/><ellipse cx="415" cy="344.4648" fill="none" rx="4" ry="4" style="stroke:#00008B;stroke-width:1.5;"/><line style="stroke:#00008B;stroke-width:1.0;" x1="48.5" x2="410.5" y1="345.2148" y2="345.2148"/><text fill="#800000" font-family="sans-serif" font-size="13" font-weight="bold" lengthAdjust="spacing" textLength="9" x="60.5" y="340.4727">7</text><text fill="#000000" font-family="sans-serif" font-size="13" lengthAdjust="spacing" textLength="76" x="73.5" y="340.4727">завершение</text><!--SRC=[ZP7BJi9058RtynIJicvIyR8Ws0HZObWq48bkrCL0Hsc0cMRQ4dHbZ54NHD_0X3SWH0AHopDCtyWpPO02BbZDkVpVkKtGy9XF16dX5kauD0Z80wruJnGVP2r4ef2pg5Mb0XlvUyv2NEDDBauT8ZXdThvg6mW17NerpoUGDifrpcZ9Dp09iB-mCHSk53YmK9L7p2NY4HjN0HM99W932x9AqC56yP978QGt2nUJojUojouDZaOFBKIPYm7_5t9IZAEH8sjBMWcvWDqJQR2mjVHuMrg8mdgXN4oaHDc-fwKd5aACXq2smLjsp9H9aru8IbaEo-_uHVx8ePp4NJcJ_VWBoq7SZJzDEPNpPUQMWJLHkHa4ft8OFyi-1XAouBn245Yu_UB4vatcd8Z6MJEYTpPVNIU7amxliW_K795QwBK93AVdsWx87ag-mxGtA-W1TjklVc55EFi0ZjBhk-sdpvkckIP0DfU_89rXs6oWN3ZFM8vWrpTun-a- -Yltfaf-FdLCawSM6obE3Hf_g3B0395BTu-u4tFG7m00]--></g></svg>