<?xml version="1.0" encoding="UTF-8" standalone="no"?><svg xmlns="http://www.w3.org/2000/svg" xmlns:xlink="http://www.w3.org/1999/xlink" contentStyleType="text/css" height="437px" preserveAspectRatio="none" style="width:417px;height:437px;background:#282C34;" version="1.1" viewBox="0 0 417 437" width="417px" zoomAndPan="magnify"><defs/><g><rect fill="#282C34" height="437" style="stroke:none;stroke-width:1.0;" width="417" x="0" y="0"/><!--class IRouter--><g id="elem_IRouter"><rect codeLine="2" fill="#424856" height="48" id="IRouter" rx="2.5" ry="2.5" style="stroke:#ABB2BF;stroke-width:0.5;" width="82" x="166.5" y="7"/><ellipse cx="181.5" cy="23" fill="#B4A7E5" rx="11" ry="11" style="stroke:#181818;stroke-width:1.0;"/><path d="M177.9277,19.2651 L177.9277,17.1069 L185.3071,17.1069 L185.3071,19.2651 L182.8418,19.2651 L182.8418,27.3418 L185.3071,27.3418 L185.3071,29.5 L177.9277,29.5 L177.9277,27.3418 L180.3931,27.3418 L180.3931,19.2651 Z " fill="#DBE9FA"/><text fill="#DBE9FA" font-family="-apple-system, BlinkMacSystemFont, &quot;Segoe UI&quot;, Roboto, &quot;Helvetica Neue&quot;, Arial, &quot;Noto Sans&quot;, sans-serif, &quot;Apple Color Emoji&quot;, &quot;Segoe UI Emoji&quot;, &quot;Segoe UI Symbol&quot;, &quot;Noto Color Emoji&quot;" font-size="14" font-style="italic" lengthAdjust="spacing" textLength="50" x="195.5" y="28.291">IRouter</text><line style="stroke:#ABB2BF;stroke-width:0.5;" x1="167.5" x2="247.5" y1="39" y2="39"/><line style="stroke:#ABB2BF;stroke-width:0.5;" x1="167.5" x2="247.5" y1="47" y2="47"/></g><!--class IStorage--><g id="elem_IStorage"><rect codeLine="3" fill="#424856" height="48" id="IStorage" rx="2.5" ry="2.5" style="stroke:#ABB2BF;stroke-width:0.5;" width="89" x="7" y="132"/><ellipse cx="22" cy="148" fill="#B4A7E5" rx="11" ry="11" style="stroke:#181818;stroke-width:1.0;"/><path d="M18.4277,144.2651 L18.4277,142.1069 L25.8071,142.1069 L25.8071,144.2651 L23.3418,144.2651 L23.3418,152.3418 L25.8071,152.3418 L25.8071,154.5 L18.4277,154.5 L18.4277,152.3418 L20.8931,152.3418 L20.8931,144.2651 Z " fill="#DBE9FA"/><text fill="#DBE9FA" font-family="-apple-system, BlinkMacSystemFont, &quot;Segoe UI&quot;, Roboto, &quot;Helvetica Neue&quot;, Arial, &quot;Noto Sans&quot;, sans-serif, &quot;Apple Color Emoji&quot;, &quot;Segoe UI Emoji&quot;, &quot;Segoe UI Symbol&quot;, &quot;Noto Color Emoji&quot;" font-size="14" font-style="italic" lengthAdjust="spacing" textLength="57" x="36" y="153.291">IStorage</text><line style="stroke:#ABB2BF;stroke-width:0.5;" x1="8" x2="95" y1="164" y2="164"/><line style="stroke:#ABB2BF;stroke-width:0.5;" x1="8" x2="95" y1="172" y2="172"/></g><!--class IPhoneViewModel--><g id="elem_IPhoneViewModel"><rect codeLine="4" fill="#424856" height="48" id="IPhoneViewModel" rx="2.5" ry="2.5" style="stroke:#ABB2BF;stroke-width:0.5;" width="153" x="131" y="132"/><ellipse cx="146" cy="148" fill="#B4A7E5" rx="11" ry="11" style="stroke:#181818;stroke-width:1.0;"/><path d="M142.4277,144.2651 L142.4277,142.1069 L149.8071,142.1069 L149.8071,144.2651 L147.3418,144.2651 L147.3418,152.3418 L149.8071,152.3418 L149.8071,154.5 L142.4277,154.5 L142.4277,152.3418 L144.8931,152.3418 L144.8931,144.2651 Z " fill="#DBE9FA"/><text fill="#DBE9FA" font-family="-apple-system, BlinkMacSystemFont, &quot;Segoe UI&quot;, Roboto, &quot;Helvetica Neue&quot;, Arial, &quot;Noto Sans&quot;, sans-serif, &quot;Apple Color Emoji&quot;, &quot;Segoe UI Emoji&quot;, &quot;Segoe UI Symbol&quot;, &quot;Noto Color Emoji&quot;" font-size="14" font-style="italic" lengthAdjust="spacing" textLength="121" x="160" y="153.291">IPhoneViewModel</text><line style="stroke:#ABB2BF;stroke-width:0.5;" x1="132" x2="283" y1="164" y2="164"/><line style="stroke:#ABB2BF;stroke-width:0.5;" x1="132" x2="283" y1="172" y2="172"/></g><!--class IAuthAPI--><g id="elem_IAuthAPI"><rect codeLine="5" fill="#424856" height="48" id="IAuthAPI" rx="2.5" ry="2.5" style="stroke:#ABB2BF;stroke-width:0.5;" width="91" x="319" y="132"/><ellipse cx="334" cy="148" fill="#B4A7E5" rx="11" ry="11" style="stroke:#181818;stroke-width:1.0;"/><path d="M330.4277,144.2651 L330.4277,142.1069 L337.8071,142.1069 L337.8071,144.2651 L335.3418,144.2651 L335.3418,152.3418 L337.8071,152.3418 L337.8071,154.5 L330.4277,154.5 L330.4277,152.3418 L332.8931,152.3418 L332.8931,144.2651 Z " fill="#DBE9FA"/><text fill="#DBE9FA" font-family="-apple-system, BlinkMacSystemFont, &quot;Segoe UI&quot;, Roboto, &quot;Helvetica Neue&quot;, Arial, &quot;Noto Sans&quot;, sans-serif, &quot;Apple Color Emoji&quot;, &quot;Segoe UI Emoji&quot;, &quot;Segoe UI Symbol&quot;, &quot;Noto Color Emoji&quot;" font-size="14" font-style="italic" lengthAdjust="spacing" textLength="59" x="348" y="153.291">IAuthAPI</text><line style="stroke:#ABB2BF;stroke-width:0.5;" x1="320" x2="409" y1="164" y2="164"/><line style="stroke:#ABB2BF;stroke-width:0.5;" x1="320" x2="409" y1="172" y2="172"/></g><!--class PhoneViewModel--><g id="elem_PhoneViewModel"><rect codeLine="6" fill="#424856" height="48" id="PhoneViewModel" rx="2.5" ry="2.5" style="stroke:#ABB2BF;stroke-width:0.5;" width="149" x="133" y="257"/><ellipse cx="148" cy="273" fill="#ADD1B2" rx="11" ry="11" style="stroke:#181818;stroke-width:1.0;"/><path d="M150.4731,279.1431 Q149.8921,279.4419 149.2529,279.5913 Q148.6138,279.7407 147.9082,279.7407 Q145.4014,279.7407 144.0815,278.0889 Q142.7617,276.437 142.7617,273.3159 Q142.7617,270.1865 144.0815,268.5347 Q145.4014,266.8828 147.9082,266.8828 Q148.6138,266.8828 149.2612,267.0322 Q149.9087,267.1816 150.4731,267.4805 L150.4731,270.2031 Q149.8423,269.6221 149.2488,269.3523 Q148.6553,269.0825 148.0244,269.0825 Q146.6797,269.0825 145.9949,270.1492 Q145.3101,271.2158 145.3101,273.3159 Q145.3101,275.4077 145.9949,276.4744 Q146.6797,277.541 148.0244,277.541 Q148.6553,277.541 149.2488,277.2712 Q149.8423,277.0015 150.4731,276.4204 Z " fill="#DBE9FA"/><text fill="#DBE9FA" font-family="-apple-system, BlinkMacSystemFont, &quot;Segoe UI&quot;, Roboto, &quot;Helvetica Neue&quot;, Arial, &quot;Noto Sans&quot;, sans-serif, &quot;Apple Color Emoji&quot;, &quot;Segoe UI Emoji&quot;, &quot;Segoe UI Symbol&quot;, &quot;Noto Color Emoji&quot;" font-size="14" lengthAdjust="spacing" textLength="117" x="162" y="278.291">PhoneViewModel</text><line style="stroke:#ABB2BF;stroke-width:0.5;" x1="134" x2="281" y1="289" y2="289"/><line style="stroke:#ABB2BF;stroke-width:0.5;" x1="134" x2="281" y1="297" y2="297"/></g><!--class SomeManager--><g id="elem_SomeManager"><rect codeLine="7" fill="#424856" height="48" id="SomeManager" rx="2.5" ry="2.5" style="stroke:#ABB2BF;stroke-width:0.5;" width="130" x="142.5" y="382"/><ellipse cx="157.5" cy="398" fill="#ADD1B2" rx="11" ry="11" style="stroke:#181818;stroke-width:1.0;"/><path d="M159.9731,404.1431 Q159.3921,404.4419 158.7529,404.5913 Q158.1138,404.7407 157.4082,404.7407 Q154.9014,404.7407 153.5815,403.0889 Q152.2617,401.437 152.2617,398.3159 Q152.2617,395.1865 153.5815,393.5347 Q154.9014,391.8828 157.4082,391.8828 Q158.1138,391.8828 158.7612,392.0322 Q159.4087,392.1816 159.9731,392.4805 L159.9731,395.2031 Q159.3423,394.6221 158.7488,394.3523 Q158.1553,394.0825 157.5244,394.0825 Q156.1797,394.0825 155.4949,395.1492 Q154.8101,396.2158 154.8101,398.3159 Q154.8101,400.4077 155.4949,401.4744 Q156.1797,402.541 157.5244,402.541 Q158.1553,402.541 158.7488,402.2712 Q159.3423,402.0015 159.9731,401.4204 Z " fill="#DBE9FA"/><text fill="#DBE9FA" font-family="-apple-system, BlinkMacSystemFont, &quot;Segoe UI&quot;, Roboto, &quot;Helvetica Neue&quot;, Arial, &quot;Noto Sans&quot;, sans-serif, &quot;Apple Color Emoji&quot;, &quot;Segoe UI Emoji&quot;, &quot;Segoe UI Symbol&quot;, &quot;Noto Color Emoji&quot;" font-size="14" lengthAdjust="spacing" textLength="98" x="171.5" y="403.291">SomeManager</text><line style="stroke:#ABB2BF;stroke-width:0.5;" x1="143.5" x2="271.5" y1="414" y2="414"/><line style="stroke:#ABB2BF;stroke-width:0.5;" x1="143.5" x2="271.5" y1="422" y2="422"/></g><!--reverse link IAuthAPI to PhoneViewModel--><g id="link_IAuthAPI_PhoneViewModel"><path codeLine="9" d="M329.56,184.38 C301.85,206.08 263.55,236.08 237.29,256.66 " fill="none" id="IAuthAPI-backto-PhoneViewModel" style="stroke:#61AFEF;stroke-width:1.0;"/><polygon fill="#61AFEF" points="333.41,181.36,323.8572,183.7568,329.4725,184.4415,328.7877,190.0568,333.41,181.36" style="stroke:#61AFEF;stroke-width:1.0;"/><text fill="#DBE9FA" font-family="-apple-system, BlinkMacSystemFont, &quot;Segoe UI&quot;, Roboto, &quot;Helvetica Neue&quot;, Arial, &quot;Noto Sans&quot;, sans-serif, &quot;Apple Color Emoji&quot;, &quot;Segoe UI Emoji&quot;, &quot;Segoe UI Symbol&quot;, &quot;Noto Color Emoji&quot;" font-size="13" lengthAdjust="spacing" textLength="22" x="296.5" y="223.5684">use</text></g><!--reverse link IPhoneViewModel to PhoneViewModel--><g id="link_IPhoneViewModel_PhoneViewModel"><path codeLine="10" d="M207.5,201.86 C207.5,220.44 207.5,241.21 207.5,256.66 " fill="none" id="IPhoneViewModel-backto-PhoneViewModel" style="stroke:#61AFEF;stroke-width:1.0;"/><polygon fill="none" points="200.5,201.94,207.5,181.94,214.5,201.94,200.5,201.94" style="stroke:#61AFEF;stroke-width:1.0;"/></g><!--reverse link IStorage to PhoneViewModel--><g id="link_IStorage_PhoneViewModel"><path codeLine="11" d="M86.22,184.38 C113.75,206.08 151.8,236.08 177.9,256.66 " fill="none" id="IStorage-backto-PhoneViewModel" style="stroke:#61AFEF;stroke-width:1.0;"/><polygon fill="#61AFEF" points="82.4,181.36,86.9874,190.0752,86.3251,184.4573,91.9431,183.795,82.4,181.36" style="stroke:#61AFEF;stroke-width:1.0;"/><text fill="#DBE9FA" font-family="-apple-system, BlinkMacSystemFont, &quot;Segoe UI&quot;, Roboto, &quot;Helvetica Neue&quot;, Arial, &quot;Noto Sans&quot;, sans-serif, &quot;Apple Color Emoji&quot;, &quot;Segoe UI Emoji&quot;, &quot;Segoe UI Symbol&quot;, &quot;Noto Color Emoji&quot;" font-size="13" lengthAdjust="spacing" textLength="22" x="140.5" y="223.5684">use</text></g><!--reverse link PhoneViewModel to SomeManager--><g id="link_PhoneViewModel_SomeManager"><path codeLine="12" d="M207.5,311.84 C207.5,333.31 207.5,361.85 207.5,381.66 " fill="none" id="PhoneViewModel-backto-SomeManager" style="stroke:#61AFEF;stroke-width:1.0;"/><polygon fill="#61AFEF" points="207.5,306.94,203.5,315.94,207.5,311.94,211.5,315.94,207.5,306.94" style="stroke:#61AFEF;stroke-width:1.0;"/><text fill="#DBE9FA" font-family="-apple-system, BlinkMacSystemFont, &quot;Segoe UI&quot;, Roboto, &quot;Helvetica Neue&quot;, Arial, &quot;Noto Sans&quot;, sans-serif, &quot;Apple Color Emoji&quot;, &quot;Segoe UI Emoji&quot;, &quot;Segoe UI Symbol&quot;, &quot;Noto Color Emoji&quot;" font-size="13" lengthAdjust="spacing" textLength="38" x="208.5" y="348.5684">create</text></g><!--link IRouter to IPhoneViewModel--><g id="link_IRouter_IPhoneViewModel"><path codeLine="13" d="M207.5,55.42 C207.5,75.26 207.5,103.8 207.5,125.25 " fill="none" id="IRouter-to-IPhoneViewModel" style="stroke:#61AFEF;stroke-width:1.0;"/><polygon fill="#61AFEF" points="207.5,130.15,211.5,121.15,207.5,125.15,203.5,121.15,207.5,130.15" style="stroke:#61AFEF;stroke-width:1.0;"/><text fill="#DBE9FA" font-family="-apple-system, BlinkMacSystemFont, &quot;Segoe UI&quot;, Roboto, &quot;Helvetica Neue&quot;, Arial, &quot;Noto Sans&quot;, sans-serif, &quot;Apple Color Emoji&quot;, &quot;Segoe UI Emoji&quot;, &quot;Segoe UI Symbol&quot;, &quot;Noto Color Emoji&quot;" font-size="13" lengthAdjust="spacing" textLength="22" x="208.5" y="98.5684">use</text></g><!--SRC=[RP312eCm44Jl-Ohj1qJl7WIF7WIfq7j8fbMgYIHPlFJZAnYAMc_BCFDcsDjWzSW6bEKUmR4F2BbH_YrZZmdPpDCe1XlXdqg3whlZzTuhNNHUlR2NsjvPF0OiZJCun2kEVTNMGeyg13hvDh5p4nfbLwGNukWWoRCiVnGgY0EkF9_oRyGrAOrFf5rrCfnI1MaF5I7I7qWQjrZvrxRnlW00]--></g></svg>