<?xml version="1.0" encoding="UTF-8" standalone="no"?><svg xmlns="http://www.w3.org/2000/svg" xmlns:xlink="http://www.w3.org/1999/xlink" contentStyleType="text/css" height="266px" preserveAspectRatio="none" style="width:282px;height:266px;background:#FFFFFF;" version="1.1" viewBox="0 0 282 266" width="282px" zoomAndPan="magnify"><defs/><g><text fill="#000000" font-family="sans-serif" font-size="14" font-weight="bold" lengthAdjust="spacing" textLength="139" x="64.5" y="23.5352">Simple State Model</text><ellipse cx="61.5" cy="53.4883" fill="#222222" rx="10" ry="10" style="stroke:none;stroke-width:1.0;"/><g id="GlassEmpty"><rect fill="#F1F1F1" height="50.6211" rx="12.5" ry="12.5" style="stroke:#181818;stroke-width:0.5;" width="109" x="7" y="123.4883"/><line style="stroke:#181818;stroke-width:0.5;" x1="7" x2="116" y1="149.9766" y2="149.9766"/><text fill="#000000" font-family="sans-serif" font-size="14" lengthAdjust="spacing" textLength="78" x="22.5" y="142.0234">GlassEmpty</text><text fill="#000000" font-family="sans-serif" font-size="12" lengthAdjust="spacing" textLength="89" x="12" y="166.5781">Contents - void</text></g><ellipse cx="126.5" cy="246.9883" fill="none" rx="10" ry="10" style="stroke:#222222;stroke-width:1.0;"/><ellipse cx="127" cy="247.4883" fill="#222222" rx="6" ry="6" style="stroke:none;stroke-width:1.0;"/><g id="GlassFull"><rect fill="#F1F1F1" height="50.6211" rx="12.5" ry="12.5" style="stroke:#181818;stroke-width:0.5;" width="81" x="151" y="123.4883"/><line style="stroke:#181818;stroke-width:0.5;" x1="151" x2="232" y1="149.9766" y2="149.9766"/><text fill="#000000" font-family="sans-serif" font-size="14" lengthAdjust="spacing" textLength="61" x="161" y="142.0234">GlassFull</text><text fill="#000000" font-family="sans-serif" font-size="12" lengthAdjust="spacing" textLength="33" x="156" y="166.5781">Water</text></g><g id="elem_GMN10"><path d="M172,234.4883 L172,242.9883 L136.73,246.9883 L172,250.9883 L172,259.7988 A0,0 0 0 0 172,259.7988 L275,259.7988 A0,0 0 0 0 275,259.7988 L275,244.4883 L265,234.4883 L172,234.4883 A0,0 0 0 0 172,234.4883 " fill="#FEFFDD" style="stroke:#181818;stroke-width:0.5;"/><path d="M265,234.4883 L265,244.4883 L275,244.4883 L265,234.4883 " fill="#FEFFDD" style="stroke:#181818;stroke-width:0.5;"/><text fill="#000000" font-family="sans-serif" font-size="13" lengthAdjust="spacing" textLength="82" x="178" y="252.0566">this is a note</text></g><!--link *start to GlassEmpty--><g id="link_*start_GlassEmpty"><path d="M61.5,63.7983 C61.5,76.1583 61.5,98.6183 61.5,117.2283 " fill="none" id="*start-to-GlassEmpty" style="stroke:#181818;stroke-width:1.0;"/><polygon fill="#181818" points="61.5,121.8583,65.5,112.8583,61.5,116.8583,57.5,112.8583,61.5,121.8583" style="stroke:#181818;stroke-width:1.0;"/></g><!--link GlassEmpty to *end--><g id="link_GlassEmpty_*end"><path d="M78.41,174.9583 C90.89,193.3983 107.4,217.7883 117.47,232.6583 " fill="none" id="GlassEmpty-to-*end" style="stroke:#181818;stroke-width:1.0;"/><polygon fill="#181818" points="120.27,236.7883,118.5059,227.0987,117.4538,232.6568,111.8956,231.6047,120.27,236.7883" style="stroke:#181818;stroke-width:1.0;"/></g><!--link GlassEmpty to GlassFull--><g id="link_GlassEmpty_GlassFull"><path d="M116.34,148.9883 C125.65,148.9883 134.95,148.9883 144.25,148.9883 " fill="none" id="GlassEmpty-to-GlassFull" style="stroke:#181818;stroke-width:1.0;"/><polygon fill="#181818" points="149.18,148.9883,140.18,144.9883,144.18,148.9883,140.18,152.9883,149.18,148.9883" style="stroke:#181818;stroke-width:1.0;"/></g><!--link GlassFull to *end--><g id="link_GlassFull_*end"><path d="M174.59,174.9583 C162.11,193.3983 145.6,217.7883 135.53,232.6583 " fill="none" id="GlassFull-to-*end" style="stroke:#181818;stroke-width:1.0;"/><polygon fill="#181818" points="132.73,236.7883,141.1044,231.6047,135.5462,232.6568,134.4941,227.0987,132.73,236.7883" style="stroke:#181818;stroke-width:1.0;"/></g><!--SRC=[LKwx2W913Epp5R4Lzgwti16rihAuGYmEDxWBsGURhE3Vk-VpX426IUQnyF72rH9sVI59jGX9p_xgrAYZG5skWG50lJBXqOSyBHsLy90iCPoMPpHcZNiUHROXwnr-y7bf7tDgXPiKbQ8A6hmbR-5Fy7RQLMRueYOQMcIPCHzdYAbrALDZKES5sumuaK3Hli03]--></g></svg>