<?xml version="1.0" encoding="UTF-8" standalone="no"?><svg xmlns="http://www.w3.org/2000/svg" xmlns:xlink="http://www.w3.org/1999/xlink" contentStyleType="text/css" height="748px" preserveAspectRatio="none" style="width:890px;height:748px;background:#FFFFFF;" version="1.1" viewBox="0 0 890 748" width="890px" zoomAndPan="magnify"><defs/><g><rect fill="#DDDDDD" height="736.4297" style="stroke:#181818;stroke-width:0.5;" width="171" x="209.5" y="6"/><text fill="#000000" font-family="sans-serif" font-size="13" font-weight="bold" lengthAdjust="spacing" textLength="14" x="288" y="18.5684">UI</text><rect fill="#FFFFFF" height="201.4844" style="stroke:#181818;stroke-width:1.0;" width="10" x="248.5" y="138.7305"/><rect fill="#FFFFFF" height="296.416" style="stroke:#181818;stroke-width:1.0;" width="10" x="335" y="376.5254"/><rect fill="#FFFFFF" height="534.2109" style="stroke:#181818;stroke-width:1.0;" width="10" x="470" y="138.7305"/><rect fill="none" height="194.4844" style="stroke:#000000;stroke-width:1.5;" width="661" x="72" y="153.7305"/><rect fill="none" height="253.1055" style="stroke:#000000;stroke-width:1.5;" width="812.5" x="72" y="391.5254"/><line style="stroke:#181818;stroke-width:0.5;stroke-dasharray:5.0,5.0;" x1="38" x2="38" y1="56.7988" y2="690.9414"/><line style="stroke:#181818;stroke-width:0.5;stroke-dasharray:5.0,5.0;" x1="106" x2="106" y1="56.7988" y2="690.9414"/><line style="stroke:#181818;stroke-width:0.5;stroke-dasharray:5.0,5.0;" x1="253.5" x2="253.5" y1="56.7988" y2="690.9414"/><line style="stroke:#181818;stroke-width:0.5;stroke-dasharray:5.0,5.0;" x1="339.5" x2="339.5" y1="56.7988" y2="690.9414"/><line style="stroke:#181818;stroke-width:0.5;stroke-dasharray:5.0,5.0;" x1="475" x2="475" y1="56.7988" y2="690.9414"/><line style="stroke:#181818;stroke-width:0.5;stroke-dasharray:5.0,5.0;" x1="598.5" x2="598.5" y1="56.7988" y2="690.9414"/><line style="stroke:#181818;stroke-width:0.5;stroke-dasharray:5.0,5.0;" x1="686" x2="686" y1="56.7988" y2="690.9414"/><line style="stroke:#181818;stroke-width:0.5;stroke-dasharray:5.0,5.0;" x1="834.5" x2="834.5" y1="56.7988" y2="690.9414"/><rect fill="#E2E2F0" height="30.4883" rx="2.5" ry="2.5" style="stroke:#181818;stroke-width:0.5;" width="67" x="5" y="25.3105"/><text fill="#000000" font-family="sans-serif" font-size="14" lengthAdjust="spacing" textLength="53" x="12" y="45.8457">AuthOp</text><rect fill="#E2E2F0" height="30.4883" rx="2.5" ry="2.5" style="stroke:#181818;stroke-width:0.5;" width="67" x="5" y="689.9414"/><text fill="#000000" font-family="sans-serif" font-size="14" lengthAdjust="spacing" textLength="53" x="12" y="710.4766">AuthOp</text><text fill="#000000" font-family="sans-serif" font-size="14" lengthAdjust="spacing" textLength="31" x="88" y="53.8457">User</text><path d="M86,12.3105 L86,36.3105 M86,24.3105 L103,24.3105 " fill="none" style="stroke:#181818;stroke-width:0.5;"/><ellipse cx="115" cy="24.3105" fill="#E2E2F0" rx="12" ry="12" style="stroke:#181818;stroke-width:0.5;"/><text fill="#000000" font-family="sans-serif" font-size="14" lengthAdjust="spacing" textLength="31" x="88" y="703.4766">User</text><path d="M86,710.4297 L86,734.4297 M86,722.4297 L103,722.4297 " fill="none" style="stroke:#181818;stroke-width:0.5;"/><ellipse cx="115" cy="722.4297" fill="#E2E2F0" rx="12" ry="12" style="stroke:#181818;stroke-width:0.5;"/><rect fill="#E2E2F0" height="30.4883" rx="2.5" ry="2.5" style="stroke:#181818;stroke-width:0.5;" width="80" x="213.5" y="25.3105"/><text fill="#000000" font-family="sans-serif" font-size="14" lengthAdjust="spacing" textLength="66" x="220.5" y="45.8457">IPhoneVС</text><rect fill="#E2E2F0" height="30.4883" rx="2.5" ry="2.5" style="stroke:#181818;stroke-width:0.5;" width="80" x="213.5" y="689.9414"/><text fill="#000000" font-family="sans-serif" font-size="14" lengthAdjust="spacing" textLength="66" x="220.5" y="710.4766">IPhoneVС</text><rect fill="#E2E2F0" height="30.4883" rx="2.5" ry="2.5" style="stroke:#181818;stroke-width:0.5;" width="73" x="303.5" y="25.3105"/><text fill="#000000" font-family="sans-serif" font-size="14" lengthAdjust="spacing" textLength="59" x="310.5" y="45.8457">ICodeVС</text><rect fill="#E2E2F0" height="30.4883" rx="2.5" ry="2.5" style="stroke:#181818;stroke-width:0.5;" width="73" x="303.5" y="689.9414"/><text fill="#000000" font-family="sans-serif" font-size="14" lengthAdjust="spacing" textLength="59" x="310.5" y="710.4766">ICodeVС</text><rect fill="#E2E2F0" height="30.4883" rx="2.5" ry="2.5" style="stroke:#181818;stroke-width:0.5;" width="72" x="439" y="25.3105"/><text fill="#000000" font-family="sans-serif" font-size="14" lengthAdjust="spacing" textLength="58" x="446" y="45.8457">IAuthVM</text><rect fill="#E2E2F0" height="30.4883" rx="2.5" ry="2.5" style="stroke:#181818;stroke-width:0.5;" width="72" x="439" y="689.9414"/><text fill="#000000" font-family="sans-serif" font-size="14" lengthAdjust="spacing" textLength="58" x="446" y="710.4766">IAuthVM</text><rect fill="#E2E2F0" height="30.4883" rx="2.5" ry="2.5" style="stroke:#181818;stroke-width:0.5;" width="71" x="563.5" y="25.3105"/><text fill="#000000" font-family="sans-serif" font-size="14" lengthAdjust="spacing" textLength="57" x="570.5" y="45.8457">IStorage</text><rect fill="#E2E2F0" height="30.4883" rx="2.5" ry="2.5" style="stroke:#181818;stroke-width:0.5;" width="71" x="563.5" y="689.9414"/><text fill="#000000" font-family="sans-serif" font-size="14" lengthAdjust="spacing" textLength="57" x="570.5" y="710.4766">IStorage</text><rect fill="#E2E2F0" height="30.4883" rx="2.5" ry="2.5" style="stroke:#181818;stroke-width:0.5;" width="73" x="650" y="25.3105"/><text fill="#000000" font-family="sans-serif" font-size="14" lengthAdjust="spacing" textLength="59" x="657" y="45.8457">IAuthAPI</text><rect fill="#E2E2F0" height="30.4883" rx="2.5" ry="2.5" style="stroke:#181818;stroke-width:0.5;" width="73" x="650" y="689.9414"/><text fill="#000000" font-family="sans-serif" font-size="14" lengthAdjust="spacing" textLength="59" x="657" y="710.4766">IAuthAPI</text><text fill="#000000" font-family="sans-serif" font-size="14" lengthAdjust="spacing" textLength="74" x="794.5" y="53.8457">SMS-шлюз</text><path d="M814,12.3105 L814,36.3105 M814,24.3105 L831,24.3105 " fill="none" style="stroke:#181818;stroke-width:0.5;"/><ellipse cx="843" cy="24.3105" fill="#E2E2F0" rx="12" ry="12" style="stroke:#181818;stroke-width:0.5;"/><text fill="#000000" font-family="sans-serif" font-size="14" lengthAdjust="spacing" textLength="74" x="794.5" y="703.4766">SMS-шлюз</text><path d="M814,710.4297 L814,734.4297 M814,722.4297 L831,722.4297 " fill="none" style="stroke:#181818;stroke-width:0.5;"/><ellipse cx="843" cy="722.4297" fill="#E2E2F0" rx="12" ry="12" style="stroke:#181818;stroke-width:0.5;"/><rect fill="#FFFFFF" height="201.4844" style="stroke:#181818;stroke-width:1.0;" width="10" x="248.5" y="138.7305"/><rect fill="#FFFFFF" height="296.416" style="stroke:#181818;stroke-width:1.0;" width="10" x="335" y="376.5254"/><rect fill="#FFFFFF" height="534.2109" style="stroke:#181818;stroke-width:1.0;" width="10" x="470" y="138.7305"/><path d="M391,71.7988 L391,111.7988 L559,111.7988 L559,81.7988 L549,71.7988 L391,71.7988 " fill="#98FB98" style="stroke:#181818;stroke-width:0.5;"/><path d="M549,71.7988 L549,81.7988 L559,81.7988 L549,71.7988 " fill="#98FB98" style="stroke:#181818;stroke-width:0.5;"/><text fill="#000000" font-family="sans-serif" font-size="13" lengthAdjust="spacing" textLength="147" x="397" y="89.3672">Одна вью-модель для</text><text fill="#000000" font-family="sans-serif" font-size="13" lengthAdjust="spacing" textLength="130" x="397" y="104.6777">двух экранов входа</text><path d="M604,71.7988 L604,111.7988 L769,111.7988 L769,81.7988 L759,71.7988 L604,71.7988 " fill="#98FB98" style="stroke:#181818;stroke-width:0.5;"/><path d="M759,71.7988 L759,81.7988 L769,81.7988 L759,71.7988 " fill="#98FB98" style="stroke:#181818;stroke-width:0.5;"/><text fill="#000000" font-family="sans-serif" font-size="13" lengthAdjust="spacing" textLength="144" x="610" y="89.3672">сервис инкпасулирует</text><text fill="#000000" font-family="sans-serif" font-size="13" lengthAdjust="spacing" textLength="106" x="610" y="104.6777">API авторизации</text><ellipse cx="248" cy="137.9805" fill="none" rx="4" ry="4" style="stroke:#00008B;stroke-width:1.5;"/><polygon fill="#00008B" points="231,134.7305,241,138.7305,231,142.7305,235,138.7305" style="stroke:#00008B;stroke-width:1.0;"/><line style="stroke:#00008B;stroke-width:1.0;" x1="38.5" x2="237" y1="138.7305" y2="138.7305"/><text fill="#800000" font-family="sans-serif" font-size="13" font-weight="bold" lengthAdjust="spacing" textLength="9" x="45.5" y="133.9883">1</text><text fill="#000000" font-family="sans-serif" font-size="13" lengthAdjust="spacing" textLength="45" x="58.5" y="133.9883">начало</text><path d="M72,153.7305 L332,153.7305 L332,161.041 L322,171.041 L72,171.041 L72,153.7305 " fill="#EEEEEE" style="stroke:#000000;stroke-width:1.5;"/><rect fill="none" height="194.4844" style="stroke:#000000;stroke-width:1.5;" width="661" x="72" y="153.7305"/><text fill="#000000" font-family="sans-serif" font-size="13" font-weight="bold" lengthAdjust="spacing" textLength="215" x="87" y="167.2988">Экран ввода номера телефона</text><polygon fill="#181818" points="236.5,188.3516,246.5,192.3516,236.5,196.3516,240.5,192.3516" style="stroke:#181818;stroke-width:1.0;"/><line style="stroke:#181818;stroke-width:1.0;" x1="106.5" x2="242.5" y1="192.3516" y2="192.3516"/><text fill="#800000" font-family="sans-serif" font-size="13" font-weight="bold" lengthAdjust="spacing" textLength="9" x="113.5" y="187.6094">2</text><text fill="#000000" font-family="sans-serif" font-size="13" lengthAdjust="spacing" textLength="40" x="126.5" y="187.6094">номер</text><text fill="#000000" font-family="sans-serif" font-size="13" lengthAdjust="spacing" textLength="4" x="166.5" y="187.6094"> </text><text fill="#000000" font-family="sans-serif" font-size="13" lengthAdjust="spacing" textLength="61" x="170.5" y="187.6094">телефона</text><polygon fill="#181818" points="458,217.6621,468,221.6621,458,225.6621,462,221.6621" style="stroke:#181818;stroke-width:1.0;"/><line style="stroke:#181818;stroke-width:1.0;" x1="258.5" x2="464" y1="221.6621" y2="221.6621"/><text fill="#800000" font-family="sans-serif" font-size="13" font-weight="bold" lengthAdjust="spacing" textLength="9" x="265.5" y="216.9199">3</text><text fill="#000000" font-family="sans-serif" font-size="13" lengthAdjust="spacing" textLength="40" x="278.5" y="216.9199">номер</text><text fill="#000000" font-family="sans-serif" font-size="13" lengthAdjust="spacing" textLength="4" x="318.5" y="216.9199"> </text><text fill="#000000" font-family="sans-serif" font-size="13" lengthAdjust="spacing" textLength="61" x="322.5" y="216.9199">телефона</text><polygon fill="#181818" points="674.5,246.9727,684.5,250.9727,674.5,254.9727,678.5,250.9727" style="stroke:#181818;stroke-width:1.0;"/><line style="stroke:#181818;stroke-width:1.0;" x1="480" x2="680.5" y1="250.9727" y2="250.9727"/><text fill="#800000" font-family="sans-serif" font-size="13" font-weight="bold" lengthAdjust="spacing" textLength="9" x="487" y="246.2305">4</text><text fill="#000000" font-family="sans-serif" font-size="13" lengthAdjust="spacing" textLength="40" x="500" y="246.2305">номер</text><text fill="#000000" font-family="sans-serif" font-size="13" lengthAdjust="spacing" textLength="4" x="540" y="246.2305"> </text><text fill="#000000" font-family="sans-serif" font-size="13" lengthAdjust="spacing" textLength="61" x="544" y="246.2305">телефона</text><polygon fill="#181818" points="491,291.5938,481,295.5938,491,299.5938,487,295.5938" style="stroke:#181818;stroke-width:1.0;"/><line style="stroke:#181818;stroke-width:1.0;stroke-dasharray:2.0,2.0;" x1="485" x2="685.5" y1="295.5938" y2="295.5938"/><text fill="#800000" font-family="sans-serif" font-size="13" font-weight="bold" lengthAdjust="spacing" textLength="9" x="497" y="283.1963">5</text><text fill="#000000" font-family="sans-serif" font-size="13" lengthAdjust="spacing" textLength="36" x="510" y="275.541">токен</text><text fill="#000000" font-family="sans-serif" font-size="13" lengthAdjust="spacing" textLength="82" x="510" y="290.8516">авторизации</text><polygon fill="#181818" points="587,336.2148,597,340.2148,587,344.2148,591,340.2148" style="stroke:#181818;stroke-width:1.0;"/><line style="stroke:#181818;stroke-width:1.0;" x1="480" x2="593" y1="340.2148" y2="340.2148"/><text fill="#800000" font-family="sans-serif" font-size="13" font-weight="bold" lengthAdjust="spacing" textLength="9" x="487" y="327.8174">6</text><text fill="#000000" font-family="sans-serif" font-size="13" lengthAdjust="spacing" textLength="36" x="500" y="320.1621">токен</text><text fill="#000000" font-family="sans-serif" font-size="13" lengthAdjust="spacing" textLength="82" x="500" y="335.4727">авторизации</text><polygon fill="#181818" points="356,372.5254,346,376.5254,356,380.5254,352,376.5254" style="stroke:#181818;stroke-width:1.0;"/><line style="stroke:#181818;stroke-width:1.0;" x1="350" x2="469" y1="376.5254" y2="376.5254"/><text fill="#800000" font-family="sans-serif" font-size="13" font-weight="bold" lengthAdjust="spacing" textLength="9" x="362" y="371.7832">7</text><text fill="#000000" font-family="sans-serif" font-size="13" lengthAdjust="spacing" textLength="36" x="375" y="371.7832">токен</text><text fill="#000000" font-family="sans-serif" font-size="13" lengthAdjust="spacing" textLength="4" x="411" y="371.7832"> </text><text fill="#000000" font-family="sans-serif" font-size="13" lengthAdjust="spacing" textLength="53" x="415" y="371.7832">получен</text><path d="M72,391.5254 L356,391.5254 L356,398.8359 L346,408.8359 L72,408.8359 L72,391.5254 " fill="#EEEEEE" style="stroke:#000000;stroke-width:1.5;"/><rect fill="none" height="253.1055" style="stroke:#000000;stroke-width:1.5;" width="812.5" x="72" y="391.5254"/><text fill="#000000" font-family="sans-serif" font-size="13" font-weight="bold" lengthAdjust="spacing" textLength="239" x="87" y="405.0938">Экран ввода кода подтверждения</text><polygon fill="#181818" points="674.5,441.457,684.5,445.457,674.5,449.457,678.5,445.457" style="stroke:#181818;stroke-width:1.0;"/><line style="stroke:#181818;stroke-width:1.0;" x1="480" x2="680.5" y1="445.457" y2="445.457"/><text fill="#800000" font-family="sans-serif" font-size="13" font-weight="bold" lengthAdjust="spacing" textLength="9" x="487" y="433.0596">8</text><text fill="#000000" font-family="sans-serif" font-size="13" lengthAdjust="spacing" textLength="65" x="500" y="425.4043">запросить</text><text fill="#000000" font-family="sans-serif" font-size="13" lengthAdjust="spacing" textLength="55" x="500" y="440.7148">смс-код</text><polygon fill="#181818" points="822.5,470.7676,832.5,474.7676,822.5,478.7676,826.5,474.7676" style="stroke:#181818;stroke-width:1.0;"/><line style="stroke:#181818;stroke-width:1.0;" x1="686.5" x2="828.5" y1="474.7676" y2="474.7676"/><text fill="#800000" font-family="sans-serif" font-size="13" font-weight="bold" lengthAdjust="spacing" textLength="9" x="693.5" y="470.0254">9</text><text fill="#000000" font-family="sans-serif" font-size="13" lengthAdjust="spacing" textLength="40" x="706.5" y="470.0254">номер</text><text fill="#000000" font-family="sans-serif" font-size="13" lengthAdjust="spacing" textLength="4" x="746.5" y="470.0254"> </text><text fill="#000000" font-family="sans-serif" font-size="13" lengthAdjust="spacing" textLength="8" x="750.5" y="470.0254">и</text><text fill="#000000" font-family="sans-serif" font-size="13" lengthAdjust="spacing" textLength="4" x="758.5" y="470.0254"> </text><text fill="#000000" font-family="sans-serif" font-size="13" lengthAdjust="spacing" textLength="55" x="762.5" y="470.0254">смс-код</text><polygon fill="#181818" points="117.5,500.0781,107.5,504.0781,117.5,508.0781,113.5,504.0781" style="stroke:#181818;stroke-width:1.0;"/><line style="stroke:#181818;stroke-width:1.0;" x1="111.5" x2="833.5" y1="504.0781" y2="504.0781"/><text fill="#800000" font-family="sans-serif" font-size="13" font-weight="bold" lengthAdjust="spacing" textLength="18" x="123.5" y="499.3359">10</text><text fill="#000000" font-family="sans-serif" font-size="13" lengthAdjust="spacing" textLength="55" x="145.5" y="499.3359">смс-код</text><polygon fill="#181818" points="323,529.3887,333,533.3887,323,537.3887,327,533.3887" style="stroke:#181818;stroke-width:1.0;"/><line style="stroke:#181818;stroke-width:1.0;" x1="106.5" x2="329" y1="533.3887" y2="533.3887"/><text fill="#800000" font-family="sans-serif" font-size="13" font-weight="bold" lengthAdjust="spacing" textLength="18" x="113.5" y="528.6465">11</text><text fill="#000000" font-family="sans-serif" font-size="13" lengthAdjust="spacing" textLength="55" x="135.5" y="528.6465">смс-код</text><polygon fill="#181818" points="458,558.6992,468,562.6992,458,566.6992,462,562.6992" style="stroke:#181818;stroke-width:1.0;"/><line style="stroke:#181818;stroke-width:1.0;" x1="345" x2="464" y1="562.6992" y2="562.6992"/><text fill="#800000" font-family="sans-serif" font-size="13" font-weight="bold" lengthAdjust="spacing" textLength="18" x="352" y="557.957">12</text><text fill="#000000" font-family="sans-serif" font-size="13" lengthAdjust="spacing" textLength="55" x="374" y="557.957">смс-код</text><polygon fill="#181818" points="674.5,588.0098,684.5,592.0098,674.5,596.0098,678.5,592.0098" style="stroke:#181818;stroke-width:1.0;"/><line style="stroke:#181818;stroke-width:1.0;" x1="480" x2="680.5" y1="592.0098" y2="592.0098"/><text fill="#800000" font-family="sans-serif" font-size="13" font-weight="bold" lengthAdjust="spacing" textLength="18" x="487" y="587.2676">13</text><text fill="#000000" font-family="sans-serif" font-size="13" lengthAdjust="spacing" textLength="36" x="509" y="587.2676">токен</text><text fill="#000000" font-family="sans-serif" font-size="13" lengthAdjust="spacing" textLength="4" x="545" y="587.2676"> </text><text fill="#000000" font-family="sans-serif" font-size="13" lengthAdjust="spacing" textLength="8" x="549" y="587.2676">и</text><text fill="#000000" font-family="sans-serif" font-size="13" lengthAdjust="spacing" textLength="4" x="557" y="587.2676"> </text><text fill="#000000" font-family="sans-serif" font-size="13" lengthAdjust="spacing" textLength="55" x="561" y="587.2676">смс-код</text><polygon fill="#181818" points="491,632.6309,481,636.6309,491,640.6309,487,636.6309" style="stroke:#181818;stroke-width:1.0;"/><line style="stroke:#181818;stroke-width:1.0;stroke-dasharray:2.0,2.0;" x1="485" x2="685.5" y1="636.6309" y2="636.6309"/><text fill="#800000" font-family="sans-serif" font-size="13" font-weight="bold" lengthAdjust="spacing" textLength="18" x="497" y="624.2334">14</text><text fill="#000000" font-family="sans-serif" font-size="13" lengthAdjust="spacing" textLength="62" x="519" y="616.5781">результат</text><text fill="#000000" font-family="sans-serif" font-size="13" lengthAdjust="spacing" textLength="61" x="519" y="631.8887">проверки</text><polygon fill="#00008B" points="49.5,668.9414,39.5,672.9414,49.5,676.9414,45.5,672.9414" style="stroke:#00008B;stroke-width:1.0;"/><ellipse cx="474.5" cy="672.1914" fill="none" rx="4" ry="4" style="stroke:#00008B;stroke-width:1.5;"/><line style="stroke:#00008B;stroke-width:1.0;" x1="43.5" x2="470" y1="672.9414" y2="672.9414"/><text fill="#800000" font-family="sans-serif" font-size="13" font-weight="bold" lengthAdjust="spacing" textLength="18" x="55.5" y="668.1992">15</text><text fill="#000000" font-family="sans-serif" font-size="13" lengthAdjust="spacing" textLength="76" x="77.5" y="668.1992">завершение</text><!--SRC=[ZLHBJXj14DttALfcFOeXNo774Y4IOc61P8LDoA9jJy02Ju_cWqXMs0J8Wi0D8kK0aImBXv4DvWhLDyhhdXvxF5W8UJ7LtU_LvrMLmuEsvuj0T7X77DVSC1HxRhtztUNBAsKcuaXwSQVX1hnK-IgzY3VbeGpUrqGWfLUjDAebni2EsissB_1SMekZ_Is_n4N8XJ6v35gWBvTPGyPUImJVUEbJw0O64iEmW1KDECRRPcdUu-RsllJS7VfZ6BuzMDRBSW6yBbjJR5FRwnRvginShyKHey3G6U_KfXdlr2pXTT5rFP81n378CBKjz4rvWS-rxSsfqpM_RQ5lyphKQtL7_QInkgBRr6qdt11HvlPTcJ5FwkCHJZQvfMrnw6u4hkkjSlfDDtHFVKu3TQck7BgZ2Mw6y7Z9OOpLzQw7xq2TgZEkVj58dL0VZ0aDDEVCmFli1PyFezFDnr5T6e8ve4HrEILmCA87wgkkEgKnBa_m7QhUheUQEG8CL8yc82Hq2zGvlWbZwJWudvS-Yk3Wms7iVgdAQJjH2-fG5o2FQS94CseVQI7IecVd3C_s0XdxdFvc9Q4S_4mvt1HuPrBkSwG2FN3uWKl4O6RcdEfyQ8j_Z9xE6nXfCa_ZRPSi6a8-2rvn76T6qEf1uQ6kQh6OioXs49z3QhcFPSHAv9ob2pFlwm7c6FDpeOzFopxA3CsvWPE1wS4_CvBtc9FhMIFJK0lbGiRq0Du4OvUe7aOPnftgEca0basehZxTbpcDAIdWiwK2NlT-jV2SpSEq-BbN-n-Iw_xZP0e5vDLB5iCB_Ju1-5Rl4hQuXtxrU2g05N24vcMDsl8hkGrov6mejMm6ZtyK8pSDyostcvIxiItu3m00]--></g></svg>