<?xml version="1.0" encoding="UTF-8" standalone="no"?><svg xmlns="http://www.w3.org/2000/svg" xmlns:xlink="http://www.w3.org/1999/xlink" contentStyleType="text/css" height="332px" preserveAspectRatio="none" style="width:338px;height:332px;background:#FFFFFF;" version="1.1" viewBox="0 0 338 332" width="338px" zoomAndPan="magnify"><defs/><g><rect fill="none" height="75.9316" style="stroke:#000000;stroke-width:1.5;" width="322.5" x="10" y="53.4883"/><rect fill="none" height="46.6211" style="stroke:#000000;stroke-width:1.5;" width="322.5" x="10" y="143.4199"/><rect fill="none" height="75.9316" style="stroke:#000000;stroke-width:1.5;" width="322.5" x="10" y="204.041"/><line style="stroke:#181818;stroke-width:0.5;stroke-dasharray:5.0,5.0;" x1="53" x2="53" y1="36.4883" y2="296.9727"/><line style="stroke:#181818;stroke-width:0.5;stroke-dasharray:5.0,5.0;" x1="195.5" x2="195.5" y1="36.4883" y2="296.9727"/><line style="stroke:#181818;stroke-width:0.5;stroke-dasharray:5.0,5.0;" x1="288.5" x2="288.5" y1="36.4883" y2="296.9727"/><rect fill="#E2E2F0" height="30.4883" rx="2.5" ry="2.5" style="stroke:#181818;stroke-width:0.5;" width="67" x="20" y="5"/><text fill="#000000" font-family="sans-serif" font-size="14" lengthAdjust="spacing" textLength="53" x="27" y="25.5352">AuthOp</text><rect fill="#E2E2F0" height="30.4883" rx="2.5" ry="2.5" style="stroke:#181818;stroke-width:0.5;" width="67" x="20" y="295.9727"/><text fill="#000000" font-family="sans-serif" font-size="14" lengthAdjust="spacing" textLength="53" x="27" y="316.5078">AuthOp</text><rect fill="#E2E2F0" height="30.4883" rx="2.5" ry="2.5" style="stroke:#181818;stroke-width:0.5;" width="72" x="159.5" y="5"/><text fill="#000000" font-family="sans-serif" font-size="14" lengthAdjust="spacing" textLength="58" x="166.5" y="25.5352">IAuthVM</text><rect fill="#E2E2F0" height="30.4883" rx="2.5" ry="2.5" style="stroke:#181818;stroke-width:0.5;" width="72" x="159.5" y="295.9727"/><text fill="#000000" font-family="sans-serif" font-size="14" lengthAdjust="spacing" textLength="58" x="166.5" y="316.5078">IAuthVM</text><rect fill="#E2E2F0" height="30.4883" rx="2.5" ry="2.5" style="stroke:#181818;stroke-width:0.5;" width="68" x="254.5" y="5"/><text fill="#000000" font-family="sans-serif" font-size="14" lengthAdjust="spacing" textLength="54" x="261.5" y="25.5352">Window</text><rect fill="#E2E2F0" height="30.4883" rx="2.5" ry="2.5" style="stroke:#181818;stroke-width:0.5;" width="68" x="254.5" y="295.9727"/><text fill="#000000" font-family="sans-serif" font-size="14" lengthAdjust="spacing" textLength="54" x="261.5" y="316.5078">Window</text><path d="M10,53.4883 L93,53.4883 L93,60.7988 L83,70.7988 L10,70.7988 L10,53.4883 " fill="#EEEEEE" style="stroke:#000000;stroke-width:1.5;"/><rect fill="none" height="75.9316" style="stroke:#000000;stroke-width:1.5;" width="322.5" x="10" y="53.4883"/><text fill="#000000" font-family="sans-serif" font-size="13" font-weight="bold" lengthAdjust="spacing" textLength="38" x="25" y="67.0566">Setup</text><polygon fill="#181818" points="183.5,88.1094,193.5,92.1094,183.5,96.1094,187.5,92.1094" style="stroke:#181818;stroke-width:1.0;"/><line style="stroke:#181818;stroke-width:1.0;" x1="53.5" x2="189.5" y1="92.1094" y2="92.1094"/><text fill="#800000" font-family="sans-serif" font-size="13" font-weight="bold" lengthAdjust="spacing" textLength="9" x="60.5" y="87.3672">1</text><text fill="#000000" font-family="sans-serif" font-size="13" lengthAdjust="spacing" textLength="54" x="73.5" y="87.3672">onFinish</text><text fill="#000000" font-family="sans-serif" font-size="13" lengthAdjust="spacing" textLength="4" x="127.5" y="87.3672"> </text><text fill="#000000" font-family="sans-serif" font-size="13" lengthAdjust="spacing" textLength="47" x="131.5" y="87.3672">handler</text><polygon fill="#181818" points="276.5,117.4199,286.5,121.4199,276.5,125.4199,280.5,121.4199" style="stroke:#181818;stroke-width:1.0;"/><line style="stroke:#181818;stroke-width:1.0;" x1="53.5" x2="282.5" y1="121.4199" y2="121.4199"/><text fill="#800000" font-family="sans-serif" font-size="13" font-weight="bold" lengthAdjust="spacing" textLength="9" x="60.5" y="116.6777">2</text><text fill="#000000" font-family="sans-serif" font-size="13" lengthAdjust="spacing" textLength="45" x="73.5" y="116.6777">authVC</text><path d="M10,143.4199 L86,143.4199 L86,150.7305 L76,160.7305 L10,160.7305 L10,143.4199 " fill="#EEEEEE" style="stroke:#000000;stroke-width:1.5;"/><rect fill="none" height="46.6211" style="stroke:#000000;stroke-width:1.5;" width="322.5" x="10" y="143.4199"/><text fill="#000000" font-family="sans-serif" font-size="13" font-weight="bold" lengthAdjust="spacing" textLength="31" x="25" y="156.9883">Start</text><polygon fill="#181818" points="276.5,178.041,286.5,182.041,276.5,186.041,280.5,182.041" style="stroke:#181818;stroke-width:1.0;"/><line style="stroke:#181818;stroke-width:1.0;" x1="53.5" x2="282.5" y1="182.041" y2="182.041"/><text fill="#800000" font-family="sans-serif" font-size="13" font-weight="bold" lengthAdjust="spacing" textLength="9" x="60.5" y="177.2988">3</text><text fill="#000000" font-family="sans-serif" font-size="13" lengthAdjust="spacing" textLength="123" x="73.5" y="177.2988">makeKeyAndVisible</text><path d="M10,204.041 L112,204.041 L112,211.3516 L102,221.3516 L10,221.3516 L10,204.041 " fill="#EEEEEE" style="stroke:#000000;stroke-width:1.5;"/><rect fill="none" height="75.9316" style="stroke:#000000;stroke-width:1.5;" width="322.5" x="10" y="204.041"/><text fill="#000000" font-family="sans-serif" font-size="13" font-weight="bold" lengthAdjust="spacing" textLength="57" x="25" y="217.6094">onFinish</text><polygon fill="#181818" points="276.5,238.6621,286.5,242.6621,276.5,246.6621,280.5,242.6621" style="stroke:#181818;stroke-width:1.0;"/><line style="stroke:#181818;stroke-width:1.0;" x1="195.5" x2="282.5" y1="242.6621" y2="242.6621"/><text fill="#800000" font-family="sans-serif" font-size="13" font-weight="bold" lengthAdjust="spacing" textLength="9" x="202.5" y="237.9199">4</text><text fill="#000000" font-family="sans-serif" font-size="13" lengthAdjust="spacing" textLength="56" x="215.5" y="237.9199">booksVC</text><polygon fill="#181818" points="64.5,267.9727,54.5,271.9727,64.5,275.9727,60.5,271.9727" style="stroke:#181818;stroke-width:1.0;"/><line style="stroke:#181818;stroke-width:1.0;" x1="58.5" x2="194.5" y1="271.9727" y2="271.9727"/><text fill="#800000" font-family="sans-serif" font-size="13" font-weight="bold" lengthAdjust="spacing" textLength="9" x="70.5" y="267.2305">5</text><text fill="#000000" font-family="sans-serif" font-size="13" lengthAdjust="spacing" textLength="54" x="83.5" y="267.2305">onFinish</text><text fill="#000000" font-family="sans-serif" font-size="13" lengthAdjust="spacing" textLength="4" x="137.5" y="267.2305"> </text><text fill="#000000" font-family="sans-serif" font-size="13" lengthAdjust="spacing" textLength="34" x="141.5" y="267.2305">event</text><!--SRC=[RO_BQiD034NtynN2-u1JQ1V1DOH2e1JJHS1Tonar7cnBmpoQjb_VYJCfxcCdqBddIdumRD7X11E-D-Gz7cblFWdMDwN268JZr963edeL3d2GKTnzWqw4wwgh2wLIEfY3iPZMnJQ6_jaMW1vm7a6SJl5r-PDxF8DjymssJGPlVu4lXhMSPkuqZvcxAvKwEeaMzXIYLRbjLMVT1eHtXetleKVM8xa5SZ5jBkY38jPNLqZT_u0J3lH47rlMhV6c6scHkVQe_CSYreaCFXLaORNwUnoz4OUpxGi0]--></g></svg>