<?xml version="1.0" encoding="UTF-8" standalone="no"?><svg xmlns="http://www.w3.org/2000/svg" xmlns:xlink="http://www.w3.org/1999/xlink" contentStyleType="text/css" height="749.1892px" preserveAspectRatio="none" style="width:701px;height:749px;background:#FFFFFF;" version="1.1" viewBox="0 0 701 749" width="701.2613px" zoomAndPan="magnify"><defs/><g><ellipse cx="20.1802" cy="275.8631" fill="#222222" rx="12.6126" ry="12.6126" style="stroke:none;stroke-width:1.2612612612612613;"/><ellipse cx="672.2523" cy="275.8631" fill="none" rx="12.6126" ry="12.6126" style="stroke:#222222;stroke-width:1.2612612612612613;"/><ellipse cx="672.8829" cy="276.4937" fill="#222222" rx="7.5676" ry="7.5676" style="stroke:none;stroke-width:1.2612612612612613;"/><g id="Waiting"><rect fill="#F1F1F1" height="63.8464" rx="15.7658" ry="15.7658" style="stroke:#181818;stroke-width:0.6306306306306306;" width="326.6667" x="188.5586" y="677.8523"/><line style="stroke:#181818;stroke-width:0.6306306306306306;" x1="188.5586" x2="515.2252" y1="711.2609" y2="711.2609"/><text fill="#000000" font-family="sans-serif" font-size="17.6577" lengthAdjust="spacing" textLength="108.4685" x="297.6577" y="701.2299">TimerScreen</text><text fill="#000000" font-family="sans-serif" font-size="15.1351" lengthAdjust="spacing" textLength="301.4414" x="194.8649" y="732.1998">Показываем таймер обратного отсчета</text></g><path d="M92.3874,57.3874 L275.9009,57.3874 A15.7658,15.7658 0 0 1 291.6667,73.1532 L291.6667,90.796 L76.6216,90.796 L76.6216,73.1532 A15.7658,15.7658 0 0 1 92.3874,57.3874 " fill="#F1F1F1" style="stroke:#F1F1F1;stroke-width:1.2612612612612613;"/><rect fill="none" height="436.9492" rx="15.7658" ry="15.7658" style="stroke:#181818;stroke-width:0.6306306306306306;" width="215.045" x="76.6216" y="57.3874"/><line style="stroke:#181818;stroke-width:0.6306306306306306;" x1="76.6216" x2="291.6667" y1="90.796" y2="90.796"/><text fill="#000000" font-family="sans-serif" font-size="17.6577" lengthAdjust="spacing" textLength="112.2523" x="128.018" y="80.7651">PhoneScreen</text><rect fill="#F1F1F1" height="54.2047" rx="15.7658" ry="15.7658" style="stroke:#181818;stroke-width:0.6306306306306306;" width="170.2703" x="91.7568" y="176.5618"/><text fill="#000000" font-family="sans-serif" font-size="17.6577" lengthAdjust="spacing" textLength="137.4775" x="108.1532" y="199.9395">Ожидаем ввода</text><text fill="#000000" font-family="sans-serif" font-size="17.6577" lengthAdjust="spacing" textLength="157.6577" x="98.0631" y="220.7355">номера телефона</text><rect fill="#F1F1F1" height="54.2047" rx="15.7658" ry="15.7658" style="stroke:#181818;stroke-width:0.6306306306306306;" width="151.3514" x="101.2162" y="335.4429"/><text fill="#000000" font-family="sans-serif" font-size="17.6577" lengthAdjust="spacing" textLength="118.5586" x="117.6126" y="358.8206">Запрос СМС-</text><text fill="#000000" font-family="sans-serif" font-size="17.6577" lengthAdjust="spacing" textLength="138.7387" x="107.5225" y="379.6166">подтверждения</text><ellipse cx="176.8919" cy="117.2825" fill="#222222" rx="12.6126" ry="12.6126" style="stroke:none;stroke-width:1.2612612612612613;"/><ellipse cx="176.8919" cy="469.1113" fill="none" rx="12.6126" ry="12.6126" style="stroke:#222222;stroke-width:1.2612612612612613;"/><ellipse cx="177.5225" cy="469.742" fill="#222222" rx="7.5676" ry="7.5676" style="stroke:none;stroke-width:1.2612612612612613;"/><!--link *start*PhoneScreen to waitPhone--><g id="link_*start*PhoneScreen_waitPhone"><path d="M176.8919,130.1978 C176.8919,140.1492 176.8919,154.969 176.8919,168.5906 " fill="none" id="*start*PhoneScreen-to-waitPhone" style="stroke:#181818;stroke-width:1.2612612612612613;"/><polygon fill="#181818" points="176.8919,174.7456,181.9369,163.3942,176.8919,168.4393,171.8468,163.3942,176.8919,174.7456" style="stroke:#181818;stroke-width:1.2612612612612613;"/></g><!--link requestCode to waitPhone--><g id="link_requestCode_waitPhone"><path d="M197.8667,334.9384 C202.2054,328.0897 206.1405,320.4591 208.4234,312.7402 C215.9027,287.4897 215.9027,278.724 208.4234,253.4609 C206.8216,248.0501 204.4,242.6645 201.5874,237.569 " fill="none" id="requestCode-to-waitPhone" style="stroke:#DD0000;stroke-width:1.2612612612612613;"/><polygon fill="#DD0000" points="197.8667,232.5366,199.2842,244.8774,201.0688,237.9694,207.9768,239.754,197.8667,232.5366" style="stroke:#DD0000;stroke-width:1.2612612612612613;"/><text fill="#000000" font-family="sans-serif" font-size="16.3964" lengthAdjust="spacing" textLength="64.3243" x="214.7297" y="280.0336">Ошибка</text><text fill="#000000" font-family="sans-serif" font-size="16.3964" lengthAdjust="spacing" textLength="64.3243" x="214.7297" y="299.3442">запроса</text></g><!--link waitPhone to requestCode--><g id="link_waitPhone_requestCode"><path d="M131.5243,231.3762 C124.373,237.6573 117.9784,245.0357 113.8288,253.4609 C102.2,277.1095 102.2,289.1041 113.8288,312.7402 C116.9441,319.0717 121.3207,324.7978 126.3279,329.9186 " fill="none" id="waitPhone-to-requestCode" style="stroke:#181818;stroke-width:1.2612612612612613;"/><polygon fill="#181818" points="130.2631,333.5762,125.4547,322.1226,125.6708,329.2541,118.5393,329.4702,130.2631,333.5762" style="stroke:#181818;stroke-width:1.2612612612612613;"/><text fill="#000000" font-family="sans-serif" font-size="16.3964" lengthAdjust="spacing" textLength="52.973" x="116.982" y="270.5741">Номер</text><text fill="#000000" font-family="sans-serif" font-size="16.3964" lengthAdjust="spacing" textLength="56.7568" x="115.0901" y="289.8847">введен</text><text fill="#000000" font-family="sans-serif" font-size="16.3964" lengthAdjust="spacing" textLength="5.045" x="156.0811" y="309.1953"> </text></g><!--link requestCode to *end*PhoneScreen--><g id="link_requestCode_*end*PhoneScreen"><path d="M176.8919,390.0681 C176.8919,408.2681 176.8919,432.1186 176.8919,448.578 " fill="none" id="requestCode-to-*end*PhoneScreen" style="stroke:#181818;stroke-width:1.2612612612612613;"/><polygon fill="#181818" points="176.8919,454.7582,181.9369,443.4068,176.8919,448.4519,171.8468,443.4068,176.8919,454.7582" style="stroke:#181818;stroke-width:1.2612612612612613;"/><text fill="#000000" font-family="sans-serif" font-size="16.3964" lengthAdjust="spacing" textLength="47.9279" x="178.1532" y="429.4678">Успех</text></g><path d="M401.7117,8.8288 L599.7297,8.8288 A15.7658,15.7658 0 0 1 615.4955,24.5946 L615.4955,42.2375 L385.9459,42.2375 L385.9459,24.5946 A15.7658,15.7658 0 0 1 401.7117,8.8288 " fill="#F1F1F1" style="stroke:#F1F1F1;stroke-width:1.2612612612612613;"/><rect fill="none" height="534.0663" rx="15.7658" ry="15.7658" style="stroke:#181818;stroke-width:0.6306306306306306;" width="229.5495" x="385.9459" y="8.8288"/><line style="stroke:#181818;stroke-width:0.6306306306306306;" x1="385.9459" x2="615.4955" y1="42.2375" y2="42.2375"/><text fill="#000000" font-family="sans-serif" font-size="17.6577" lengthAdjust="spacing" textLength="103.4234" x="449.009" y="32.2065">CodeScreen</text><rect fill="#F1F1F1" height="54.2047" rx="15.7658" ry="15.7658" style="stroke:#181818;stroke-width:0.6306306306306306;" width="199.2793" x="401.0811" y="128.0032"/><text fill="#000000" font-family="sans-serif" font-size="17.6577" lengthAdjust="spacing" textLength="137.4775" x="431.982" y="151.3809">Ожидаем ввода</text><text fill="#000000" font-family="sans-serif" font-size="17.6577" lengthAdjust="spacing" textLength="186.6667" x="407.3874" y="172.1769">кода подтверждения</text><rect fill="#F1F1F1" height="54.2047" rx="15.7658" ry="15.7658" style="stroke:#181818;stroke-width:0.6306306306306306;" width="142.5225" x="429.4595" y="286.8843"/><text fill="#000000" font-family="sans-serif" font-size="17.6577" lengthAdjust="spacing" textLength="129.9099" x="435.7658" y="310.262">Запрос токена</text><text fill="#000000" font-family="sans-serif" font-size="17.6577" lengthAdjust="spacing" textLength="114.7748" x="443.3333" y="331.058">авторизации</text><rect fill="#F1F1F1" height="50.4505" rx="15.7658" ry="15.7658" style="stroke:#181818;stroke-width:0.6306306306306306;" width="169.009" x="416.2162" y="407.9402"/><text fill="#000000" font-family="sans-serif" font-size="17.6577" lengthAdjust="spacing" textLength="156.3964" x="422.5225" y="439.8388">Сохраняем токен</text><ellipse cx="500.7207" cy="68.724" fill="#222222" rx="12.6126" ry="12.6126" style="stroke:none;stroke-width:1.2612612612612613;"/><ellipse cx="500.7207" cy="517.6699" fill="none" rx="12.6126" ry="12.6126" style="stroke:#222222;stroke-width:1.2612612612612613;"/><ellipse cx="501.3514" cy="518.3005" fill="#222222" rx="7.5676" ry="7.5676" style="stroke:none;stroke-width:1.2612612612612613;"/><!--link *start*CodeScreen to waitCode--><g id="link_*start*CodeScreen_waitCode"><path d="M500.7207,81.6393 C500.7207,91.5906 500.7207,106.4104 500.7207,120.0321 " fill="none" id="*start*CodeScreen-to-waitCode" style="stroke:#181818;stroke-width:1.2612612612612613;"/><polygon fill="#181818" points="500.7207,126.187,505.7658,114.8357,500.7207,119.8807,495.6757,114.8357,500.7207,126.187" style="stroke:#181818;stroke-width:1.2612612612612613;"/></g><!--link requestToken to waitCode--><g id="link_requestToken_waitCode"><path d="M521.6955,286.3798 C526.0342,279.5312 529.9694,271.9005 532.2523,264.1816 C539.7315,238.9186 539.7315,230.1654 532.2523,204.9023 C530.6505,199.4915 528.2288,194.1059 525.4162,189.0104 " fill="none" id="requestToken-to-waitCode" style="stroke:#DD0000;stroke-width:1.2612612612612613;"/><polygon fill="#DD0000" points="521.6955,183.978,523.1131,196.3188,524.8976,189.4109,531.8056,191.1954,521.6955,183.978" style="stroke:#DD0000;stroke-width:1.2612612612612613;"/><text fill="#000000" font-family="sans-serif" font-size="16.3964" lengthAdjust="spacing" textLength="64.3243" x="538.5586" y="240.9345">Ошибка</text></g><!--link requestToken to saveToken--><g id="link_requestToken_saveToken"><path d="M500.7207,341.724 C500.7207,359.0159 500.7207,381.6933 500.7207,399.9816 " fill="none" id="requestToken-to-saveToken" style="stroke:#181818;stroke-width:1.2612612612612613;"/><polygon fill="#181818" points="500.7207,406.2627,505.7658,394.9113,500.7207,399.9564,495.6757,394.9113,500.7207,406.2627" style="stroke:#181818;stroke-width:1.2612612612612613;"/><text fill="#000000" font-family="sans-serif" font-size="16.3964" lengthAdjust="spacing" textLength="47.9279" x="501.982" y="380.9093">Успех</text></g><!--link waitCode to requestToken--><g id="link_waitCode_requestToken"><path d="M455.3532,182.8177 C448.2018,189.0987 441.8072,196.4771 437.6577,204.9023 C426.0288,228.551 426.0288,240.5456 437.6577,264.1816 C440.773,270.5131 445.1495,276.2393 450.1568,281.36 " fill="none" id="waitCode-to-requestToken" style="stroke:#181818;stroke-width:1.2612612612612613;"/><polygon fill="#181818" points="454.0919,285.0177,449.2835,273.564,449.4996,280.6955,442.3681,280.9116,454.0919,285.0177" style="stroke:#181818;stroke-width:1.2612612612612613;"/><text fill="#000000" font-family="sans-serif" font-size="16.3964" lengthAdjust="spacing" textLength="31.5315" x="451.5315" y="222.0156">Код</text><text fill="#000000" font-family="sans-serif" font-size="16.3964" lengthAdjust="spacing" textLength="56.7568" x="438.9189" y="241.3262">введен</text><text fill="#000000" font-family="sans-serif" font-size="16.3964" lengthAdjust="spacing" textLength="5.045" x="479.9099" y="260.6368"> </text></g><!--link saveToken to *end*CodeScreen--><g id="link_saveToken_*end*CodeScreen"><path d="M500.7207,458.5798 C500.7207,470.8645 500.7207,485.5834 500.7207,497.0987 " fill="none" id="saveToken-to-*end*CodeScreen" style="stroke:#181818;stroke-width:1.2612612612612613;"/><polygon fill="#181818" points="500.7207,503.2285,505.7658,491.8771,500.7207,496.9222,495.6757,491.8771,500.7207,503.2285" style="stroke:#181818;stroke-width:1.2612612612612613;"/></g><!--link *start to PhoneScreen--><g id="link_*start_PhoneScreen"><path d="M33.3099,275.8631 C45.1784,275.8631 57.0595,275.8631 68.9279,275.8631 " fill="none" id="*start-to-PhoneScreen" style="stroke:#181818;stroke-width:1.2612612612612613;"/><polygon fill="#181818" points="75.0577,275.8631,63.7063,270.818,68.7514,275.8631,63.7063,280.9081,75.0577,275.8631" style="stroke:#181818;stroke-width:1.2612612612612613;"/></g><!--link PhoneScreen to CodeScreen--><g id="link_PhoneScreen_CodeScreen"><path d="M292.209,275.8631 C319.8306,275.8631 349.7351,275.8631 378.0252,275.8631 " fill="none" id="PhoneScreen-to-CodeScreen" style="stroke:#181818;stroke-width:1.2612612612612613;"/><polygon fill="#181818" points="384.3189,275.8631,372.9676,270.818,378.0126,275.8631,372.9676,280.9081,384.3189,275.8631" style="stroke:#181818;stroke-width:1.2612612612612613;"/><text fill="#000000" font-family="sans-serif" font-size="16.3964" lengthAdjust="spacing" textLength="47.9279" x="314.8486" y="267.7511">Успех</text></g><!--link CodeScreen to Waiting--><g id="link_CodeScreen_Waiting"><path d="M409.0018,542.9604 C391.7351,593.045 375.7676,639.3081 365.1351,670.1207 " fill="none" id="CodeScreen-to-Waiting" style="stroke:#DD0000;stroke-width:1.2612612612612613;"/><polygon fill="#DD0000" points="362.6883,675.973,371.1548,666.8832,364.7419,670.0104,361.6147,663.5975,362.6883,675.973" style="stroke:#DD0000;stroke-width:1.2612612612612613;"/><text fill="#000000" font-family="sans-serif" font-size="16.3964" lengthAdjust="spacing" textLength="59.2793" x="426.9369" y="597.8484">Отмена</text><text fill="#000000" font-family="sans-serif" font-size="16.3964" lengthAdjust="spacing" textLength="99.6396" x="406.7568" y="617.159">(используем</text><text fill="#000000" font-family="sans-serif" font-size="16.3964" lengthAdjust="spacing" textLength="118.5586" x="397.2973" y="636.4696">другой номер)</text></g><!--link CodeScreen to Waiting--><g id="link_CodeScreen_Waiting"><path d="M560.3532,543.427 C556.8468,577.9099 546.8955,611.1946 527.2072,640.0144 C517.773,653.8252 505.1099,664.8486 490.8703,673.6523 " fill="none" id="CodeScreen-to-Waiting-1" style="stroke:#DD0000;stroke-width:1.2612612612612613;"/><polygon fill="#DD0000" points="485.9387,677.2973,498.2796,675.8797,491.3716,674.0952,493.1561,667.1872,485.9387,677.2973" style="stroke:#DD0000;stroke-width:1.2612612612612613;"/><text fill="#000000" font-family="sans-serif" font-size="16.3964" lengthAdjust="spacing" textLength="94.5946" x="575.1351" y="597.8484">Превышено</text><text fill="#000000" font-family="sans-serif" font-size="16.3964" lengthAdjust="spacing" textLength="92.0721" x="576.3964" y="617.159">количество</text><text fill="#000000" font-family="sans-serif" font-size="16.3964" lengthAdjust="spacing" textLength="137.4775" x="553.6937" y="636.4696">попыток запроса</text></g><!--link PhoneScreen to Waiting--><g id="link_PhoneScreen_Waiting"><path d="M96.8523,494.8685 C89.7766,546.2901 95.1495,598.2414 126.1261,640.0144 C140.391,659.2486 159.9027,673.2613 181.5459,683.4523 " fill="none" id="PhoneScreen-to-Waiting" style="stroke:#DD0000;stroke-width:1.2612612612612613;"/><polygon fill="#DD0000" points="187.0577,686.4919,178.7631,677.2449,181.3031,683.9123,174.6357,686.4522,187.0577,686.4919" style="stroke:#DD0000;stroke-width:1.2612612612612613;"/><text fill="#000000" font-family="sans-serif" font-size="16.3964" lengthAdjust="spacing" textLength="94.5946" x="148.8288" y="597.8484">Превышено</text><text fill="#000000" font-family="sans-serif" font-size="16.3964" lengthAdjust="spacing" textLength="92.0721" x="150.0901" y="617.159">количество</text><text fill="#000000" font-family="sans-serif" font-size="16.3964" lengthAdjust="spacing" textLength="137.4775" x="127.3874" y="636.4696">попыток запроса</text></g><!--link Waiting to PhoneScreen--><g id="link_Waiting_PhoneScreen"><path d="M325.7712,677.4991 C317.1694,666.2108 308.1135,653.0306 301.4414,640.0144 C279.2685,596.7658 260.173,548.4973 244.2054,501.6288 " fill="none" id="Waiting-to-PhoneScreen" style="stroke:#181818;stroke-width:1.2612612612612613;"/><polygon fill="#181818" points="241.8721,495.991,240.7315,508.3605,243.8934,501.9646,250.2893,505.1265,241.8721,495.991" style="stroke:#181818;stroke-width:1.2612612612612613;"/><text fill="#000000" font-family="sans-serif" font-size="16.3964" lengthAdjust="spacing" textLength="59.2793" x="304.5946" y="607.3078">Минута</text><text fill="#000000" font-family="sans-serif" font-size="16.3964" lengthAdjust="spacing" textLength="63.0631" x="302.7027" y="626.6184">прошла</text></g><!--link CodeScreen to *end--><g id="link_CodeScreen_*end"><path d="M615.9748,275.8631 C627.8685,275.8631 639.7622,275.8631 651.6559,275.8631 " fill="none" id="CodeScreen-to-*end" style="stroke:#181818;stroke-width:1.2612612612612613;"/><polygon fill="#181818" points="657.7982,275.8631,646.4468,270.818,651.4919,275.8631,646.4468,280.9081,657.7982,275.8631" style="stroke:#181818;stroke-width:1.2612612612612613;"/></g><!--SRC=[jLJ1Qjj04BthAuRqqXOClXLwoANvW483FIGv26kfHHifjPIQ4WAEqxI6578ib3R5v0SKrueL9t5-OVQF-cQbbLTD8RdK5qkpC- -zUM_jRXWeKjixwKSALDBfXJjf64TUql7VANhMRbC_3DAkj_5qYrghzB8RH-fLfwTKv3dFSlGY3kpRS-8pVS2tdEiZpwctDXwjhRNnsKB_QpzCm-YDD9_g8LzppZUSRKQFkJ2p2xxINtcc3t5mlHdnL0_m_1lrIqBdGYRquCb3y7_f0K0c-bYF3Ci2S7CX0DKNe1o0VsAgGdkBlY6-vyGppl0wu0KKPSs5_o-LHMnQBWG_kE0RVOYnJ43Cn0ZmMSE8LPB0l2JrKqKhw-6swfL7A-GdjTuzooF2HGOqpFGn16PYEWa9NvP64yxFmPQXAEuZ29Jq41l9NkZqzYi-L_6UHrIfu5E-WFXf1GuM626lsAFEapDXpR5GhZ-XY2jX9FSXrE0wUD-MbX6FuSouLVawDIuBt0K898T2dnYSddg_gv9Kl0AIkTKmoqLtEfefrqtbbHrXbtEn39oDy0WWorw1To4n-zCkI-Q3UR4YBvNQsjzAWhWVbR4sVbtMSoVy1re-Bv_e7iDaaygjV_bUNb_xsyN1H2euBCGK_HdVXMlyUlnMHGxM6Cr74ZikzOczT1MYcKly3yeEkN5LcbpOkt5PnvsqxinKnjOypNylMk8uITQDtyMxUs9S8ZiXUlj_0000]--></g></svg>