<?xml version="1.0" encoding="UTF-8" standalone="no"?><svg xmlns="http://www.w3.org/2000/svg" xmlns:xlink="http://www.w3.org/1999/xlink" contentStyleType="text/css" height="312px" preserveAspectRatio="none" style="width:435px;height:312px;background:#FFFFFF;" version="1.1" viewBox="0 0 435 312" width="435px" zoomAndPan="magnify"><defs/><g><!--class IRouter--><g id="elem_IRouter"><rect codeLine="1" fill="#F1F1F1" height="48" id="IRouter" rx="2.5" ry="2.5" style="stroke:#181818;stroke-width:0.5;" width="82" x="210.5" y="7"/><ellipse cx="225.5" cy="23" fill="#B4A7E5" rx="11" ry="11" style="stroke:#181818;stroke-width:1.0;"/><path d="M221.9277,19.2651 L221.9277,17.1069 L229.3071,17.1069 L229.3071,19.2651 L226.8418,19.2651 L226.8418,27.3418 L229.3071,27.3418 L229.3071,29.5 L221.9277,29.5 L221.9277,27.3418 L224.3931,27.3418 L224.3931,19.2651 Z " fill="#000000"/><text fill="#000000" font-family="sans-serif" font-size="14" font-style="italic" lengthAdjust="spacing" textLength="50" x="239.5" y="28.291">IRouter</text><line style="stroke:#181818;stroke-width:0.5;" x1="211.5" x2="291.5" y1="39" y2="39"/><line style="stroke:#181818;stroke-width:0.5;" x1="211.5" x2="291.5" y1="47" y2="47"/></g><!--class IStorage--><g id="elem_IStorage"><rect codeLine="2" fill="#F1F1F1" height="48" id="IStorage" rx="2.5" ry="2.5" style="stroke:#181818;stroke-width:0.5;" width="89" x="77" y="132"/><ellipse cx="92" cy="148" fill="#B4A7E5" rx="11" ry="11" style="stroke:#181818;stroke-width:1.0;"/><path d="M88.4277,144.2651 L88.4277,142.1069 L95.8071,142.1069 L95.8071,144.2651 L93.3418,144.2651 L93.3418,152.3418 L95.8071,152.3418 L95.8071,154.5 L88.4277,154.5 L88.4277,152.3418 L90.8931,152.3418 L90.8931,144.2651 Z " fill="#000000"/><text fill="#000000" font-family="sans-serif" font-size="14" font-style="italic" lengthAdjust="spacing" textLength="57" x="106" y="153.291">IStorage</text><line style="stroke:#181818;stroke-width:0.5;" x1="78" x2="165" y1="164" y2="164"/><line style="stroke:#181818;stroke-width:0.5;" x1="78" x2="165" y1="172" y2="172"/></g><!--class IPhoneVM--><g id="elem_IPhoneVM"><rect codeLine="3" fill="#F1F1F1" height="48" id="IPhoneVM" rx="2.5" ry="2.5" style="stroke:#181818;stroke-width:0.5;" width="100" x="201.5" y="132"/><ellipse cx="216.5" cy="148" fill="#B4A7E5" rx="11" ry="11" style="stroke:#181818;stroke-width:1.0;"/><path d="M212.9277,144.2651 L212.9277,142.1069 L220.3071,142.1069 L220.3071,144.2651 L217.8418,144.2651 L217.8418,152.3418 L220.3071,152.3418 L220.3071,154.5 L212.9277,154.5 L212.9277,152.3418 L215.3931,152.3418 L215.3931,144.2651 Z " fill="#000000"/><text fill="#000000" font-family="sans-serif" font-size="14" font-style="italic" lengthAdjust="spacing" textLength="68" x="230.5" y="153.291">IPhoneVM</text><line style="stroke:#181818;stroke-width:0.5;" x1="202.5" x2="300.5" y1="164" y2="164"/><line style="stroke:#181818;stroke-width:0.5;" x1="202.5" x2="300.5" y1="172" y2="172"/></g><!--class IAuthAPI--><g id="elem_IAuthAPI"><rect codeLine="4" fill="#F1F1F1" height="48" id="IAuthAPI" rx="2.5" ry="2.5" style="stroke:#181818;stroke-width:0.5;" width="91" x="337" y="132"/><ellipse cx="352" cy="148" fill="#B4A7E5" rx="11" ry="11" style="stroke:#181818;stroke-width:1.0;"/><path d="M348.4277,144.2651 L348.4277,142.1069 L355.8071,142.1069 L355.8071,144.2651 L353.3418,144.2651 L353.3418,152.3418 L355.8071,152.3418 L355.8071,154.5 L348.4277,154.5 L348.4277,152.3418 L350.8931,152.3418 L350.8931,144.2651 Z " fill="#000000"/><text fill="#000000" font-family="sans-serif" font-size="14" font-style="italic" lengthAdjust="spacing" textLength="59" x="366" y="153.291">IAuthAPI</text><line style="stroke:#181818;stroke-width:0.5;" x1="338" x2="427" y1="164" y2="164"/><line style="stroke:#181818;stroke-width:0.5;" x1="338" x2="427" y1="172" y2="172"/></g><!--class PhoneViewModel--><g id="elem_PhoneViewModel"><rect codeLine="5" fill="#F1F1F1" height="48" id="PhoneViewModel" rx="2.5" ry="2.5" style="stroke:#181818;stroke-width:0.5;" width="149" x="177" y="257"/><ellipse cx="192" cy="273" fill="#ADD1B2" rx="11" ry="11" style="stroke:#181818;stroke-width:1.0;"/><path d="M194.4731,279.1431 Q193.8921,279.4419 193.2529,279.5913 Q192.6138,279.7407 191.9082,279.7407 Q189.4014,279.7407 188.0815,278.0889 Q186.7617,276.437 186.7617,273.3159 Q186.7617,270.1865 188.0815,268.5347 Q189.4014,266.8828 191.9082,266.8828 Q192.6138,266.8828 193.2612,267.0322 Q193.9087,267.1816 194.4731,267.4805 L194.4731,270.2031 Q193.8423,269.6221 193.2488,269.3523 Q192.6553,269.0825 192.0244,269.0825 Q190.6797,269.0825 189.9949,270.1492 Q189.3101,271.2158 189.3101,273.3159 Q189.3101,275.4077 189.9949,276.4744 Q190.6797,277.541 192.0244,277.541 Q192.6553,277.541 193.2488,277.2712 Q193.8423,277.0015 194.4731,276.4204 Z " fill="#000000"/><text fill="#000000" font-family="sans-serif" font-size="14" lengthAdjust="spacing" textLength="117" x="206" y="278.291">PhoneViewModel</text><line style="stroke:#181818;stroke-width:0.5;" x1="178" x2="325" y1="289" y2="289"/><line style="stroke:#181818;stroke-width:0.5;" x1="178" x2="325" y1="297" y2="297"/></g><!--class PhoneOp--><g id="elem_PhoneOp"><rect codeLine="6" fill="#F1F1F1" height="48" id="PhoneOp" rx="2.5" ry="2.5" style="stroke:#181818;stroke-width:0.5;" width="95" x="7" y="257"/><ellipse cx="22" cy="273" fill="#ADD1B2" rx="11" ry="11" style="stroke:#181818;stroke-width:1.0;"/><path d="M24.4731,279.1431 Q23.8921,279.4419 23.2529,279.5913 Q22.6138,279.7407 21.9082,279.7407 Q19.4014,279.7407 18.0815,278.0889 Q16.7617,276.437 16.7617,273.3159 Q16.7617,270.1865 18.0815,268.5347 Q19.4014,266.8828 21.9082,266.8828 Q22.6138,266.8828 23.2612,267.0322 Q23.9087,267.1816 24.4731,267.4805 L24.4731,270.2031 Q23.8423,269.6221 23.2488,269.3523 Q22.6553,269.0825 22.0244,269.0825 Q20.6797,269.0825 19.9949,270.1492 Q19.3101,271.2158 19.3101,273.3159 Q19.3101,275.4077 19.9949,276.4744 Q20.6797,277.541 22.0244,277.541 Q22.6553,277.541 23.2488,277.2712 Q23.8423,277.0015 24.4731,276.4204 Z " fill="#000000"/><text fill="#000000" font-family="sans-serif" font-size="14" lengthAdjust="spacing" textLength="63" x="36" y="278.291">PhoneOp</text><line style="stroke:#181818;stroke-width:0.5;" x1="8" x2="101" y1="289" y2="289"/><line style="stroke:#181818;stroke-width:0.5;" x1="8" x2="101" y1="297" y2="297"/></g><!--reverse link IAuthAPI to PhoneViewModel--><g id="link_IAuthAPI_PhoneViewModel"><path codeLine="8" d="M353.05,184.65 C329.96,206.33 298.18,236.17 276.36,256.66 " fill="none" id="IAuthAPI-backto-PhoneViewModel" style="stroke:#181818;stroke-width:1.0;"/><polygon fill="#181818" points="356.45,181.46,347.148,184.6961,352.8019,184.8792,352.6187,190.5331,356.45,181.46" style="stroke:#181818;stroke-width:1.0;"/><text fill="#000000" font-family="sans-serif" font-size="13" lengthAdjust="spacing" textLength="22" x="326.5" y="223.5684">use</text></g><!--reverse link IPhoneVM to PhoneViewModel--><g id="link_IPhoneVM_PhoneViewModel"><path codeLine="9" d="M251.5,201.86 C251.5,220.44 251.5,241.21 251.5,256.66 " fill="none" id="IPhoneVM-backto-PhoneViewModel" style="stroke:#181818;stroke-width:1.0;"/><polygon fill="none" points="244.5,201.94,251.5,181.94,258.5,201.94,244.5,201.94" style="stroke:#181818;stroke-width:1.0;"/></g><!--reverse link IStorage to PhoneViewModel--><g id="link_IStorage_PhoneViewModel"><path codeLine="10" d="M150.72,184.65 C173.64,206.33 205.18,236.17 226.83,256.66 " fill="none" id="IStorage-backto-PhoneViewModel" style="stroke:#181818;stroke-width:1.0;"/><polygon fill="#181818" points="147.36,181.47,151.1545,190.5585,150.9943,184.904,156.6489,184.7437,147.36,181.47" style="stroke:#181818;stroke-width:1.0;"/><text fill="#000000" font-family="sans-serif" font-size="13" lengthAdjust="spacing" textLength="22" x="195.5" y="223.5684">use</text></g><!--link PhoneOp to PhoneViewModel--><g id="link_PhoneOp_PhoneViewModel"><path codeLine="11" d="M102.44,281 C122.84,281 147.22,281 170.29,281 " fill="none" id="PhoneOp-to-PhoneViewModel" style="stroke:#181818;stroke-width:1.0;"/><polygon fill="#181818" points="175.24,281,166.24,277,170.24,281,166.24,285,175.24,281" style="stroke:#181818;stroke-width:1.0;"/><text fill="#000000" font-family="sans-serif" font-size="13" lengthAdjust="spacing" textLength="38" x="120.5" y="274.5684">create</text></g><!--link IRouter to IPhoneVM--><g id="link_IRouter_IPhoneVM"><path codeLine="12" d="M251.5,55.42 C251.5,75.26 251.5,103.8 251.5,125.25 " fill="none" id="IRouter-to-IPhoneVM" style="stroke:#181818;stroke-width:1.0;"/><polygon fill="#181818" points="251.5,130.15,255.5,121.15,251.5,125.15,247.5,121.15,251.5,130.15" style="stroke:#181818;stroke-width:1.0;"/><text fill="#000000" font-family="sans-serif" font-size="13" lengthAdjust="spacing" textLength="22" x="252.5" y="98.5684">use</text></g><!--SRC=[oymhIIrAIqnELV0CoYy5ihao4IB19Vb5YUcfo4816VbvgM6-o4AEfIKPZW6UNCavYSN52X05cQdbllafgJd8Wlu5N5oeiWgwfGMwTd0J5AmKIejJiQcfiKFOZDq8g5EHZV0lKD0joapFA07AescoKaWkIaqiIUM2Ubf1DoM_F4yNOGl47000]--></g></svg>