<?xml version="1.0" encoding="UTF-8" standalone="no"?><svg xmlns="http://www.w3.org/2000/svg" xmlns:xlink="http://www.w3.org/1999/xlink" contentStyleType="text/css" height="912px" preserveAspectRatio="none" style="width:200px;height:912px;background:#FFFFFF;" version="1.1" viewBox="0 0 200 912" width="200px" zoomAndPan="magnify"><defs/><g><ellipse cx="87" cy="20" fill="#222222" rx="10" ry="10" style="stroke:#222222;stroke-width:1.0;"/><rect fill="#F1F1F1" height="48.2656" rx="12.5" ry="12.5" style="stroke:#1E4C7B;stroke-width:0.5;" width="96" x="39" y="50"/><text fill="#1E4C7B" font-family="sans-serif" font-size="12" lengthAdjust="spacing" textLength="40" x="65" y="71.6016">Запуск</text><text fill="#1E4C7B" font-family="sans-serif" font-size="12" lengthAdjust="spacing" textLength="76" x="49" y="85.7344">приложения</text><rect fill="#F1F1F1" height="34.1328" rx="12.5" ry="12.5" style="stroke:#1E4C7B;stroke-width:0.5;" width="85" x="44.5" y="166.7432"/><text fill="#1E4C7B" font-family="sans-serif" font-size="12" lengthAdjust="spacing" textLength="65" x="54.5" y="188.3447">запомнить</text><polygon fill="#F1F1F1" points="49,118.2656,125,118.2656,137,130.2656,125,142.2656,49,142.2656,37,130.2656,49,118.2656" style="stroke:#1E4C7B;stroke-width:0.5;"/><text fill="#000000" font-family="sans-serif" font-size="11" lengthAdjust="spacing" textLength="13" x="91" y="152.9004">да</text><text fill="#1E4C7B" font-family="sans-serif" font-size="11" lengthAdjust="spacing" textLength="76" x="49" y="134.4229">Есть deeplink?</text><polygon fill="#F1F1F1" points="87,220.876,99,232.876,87,244.876,75,232.876,87,220.876" style="stroke:#1E4C7B;stroke-width:0.5;"/><rect fill="#F1F1F1" height="48.2656" rx="12.5" ry="12.5" style="stroke:#1E4C7B;stroke-width:0.5;" width="87" x="43.5" y="313.3535"/><text fill="#1E4C7B" font-family="sans-serif" font-size="12" lengthAdjust="spacing" textLength="55" x="57.5" y="334.9551">Показать</text><text fill="#1E4C7B" font-family="sans-serif" font-size="12" lengthAdjust="spacing" textLength="67" x="53.5" y="349.0879">онбординг</text><polygon fill="#F1F1F1" points="44,264.876,130,264.876,142,276.876,130,288.876,44,288.876,32,276.876,44,264.876" style="stroke:#1E4C7B;stroke-width:0.5;"/><text fill="#000000" font-family="sans-serif" font-size="11" lengthAdjust="spacing" textLength="13" x="91" y="299.5107">да</text><text fill="#1E4C7B" font-family="sans-serif" font-size="11" lengthAdjust="spacing" textLength="86" x="44" y="281.0332">Первый запуск?</text><polygon fill="#F1F1F1" points="87,381.6191,99,393.6191,87,405.6191,75,393.6191,87,381.6191" style="stroke:#1E4C7B;stroke-width:0.5;"/><rect fill="#F1F1F1" height="34.1328" rx="12.5" ry="12.5" style="stroke:#1E4C7B;stroke-width:0.5;" width="107" x="33.5" y="518.0967"/><text fill="#1E4C7B" font-family="sans-serif" font-size="12" lengthAdjust="spacing" textLength="87" x="43.5" y="539.6982">Показать вход</text><polygon fill="#F1F1F1" points="87,474.0967,99,486.0967,87,498.0967,75,486.0967,87,474.0967" style="stroke:#1E4C7B;stroke-width:0.5;"/><polygon fill="#F1F1F1" points="62.5,572.2295,111.5,572.2295,123.5,584.2295,111.5,596.2295,62.5,596.2295,50.5,584.2295,62.5,572.2295" style="stroke:#1E4C7B;stroke-width:0.5;"/><text fill="#000000" font-family="sans-serif" font-size="11" lengthAdjust="spacing" textLength="18" x="91" y="606.8643">нет</text><text fill="#1E4C7B" font-family="sans-serif" font-size="11" lengthAdjust="spacing" textLength="49" x="62.5" y="588.3867">Ошибка?</text><text fill="#000000" font-family="sans-serif" font-size="11" lengthAdjust="spacing" textLength="13" x="123.5" y="581.9092">да</text><polygon fill="#F1F1F1" points="42.5,425.6191,131.5,425.6191,143.5,437.6191,131.5,449.6191,42.5,449.6191,30.5,437.6191,42.5,425.6191" style="stroke:#1E4C7B;stroke-width:0.5;"/><text fill="#000000" font-family="sans-serif" font-size="11" lengthAdjust="spacing" textLength="18" x="91" y="460.2539">нет</text><text fill="#1E4C7B" font-family="sans-serif" font-size="11" lengthAdjust="spacing" textLength="89" x="42.5" y="441.7764">Вход выполнен?</text><text fill="#000000" font-family="sans-serif" font-size="11" lengthAdjust="spacing" textLength="13" x="143.5" y="435.2988">да</text><polygon fill="#F1F1F1" points="87,620.707,99,632.707,87,644.707,75,632.707,87,620.707" style="stroke:#1E4C7B;stroke-width:0.5;"/><rect fill="#F1F1F1" height="34.1328" rx="12.5" ry="12.5" style="stroke:#1E4C7B;stroke-width:0.5;" width="126" x="24" y="664.707"/><text fill="#1E4C7B" font-family="sans-serif" font-size="12" lengthAdjust="spacing" textLength="106" x="34" y="686.3086">Показать каталог</text><rect fill="#F1F1F1" height="48.2656" rx="12.5" ry="12.5" style="stroke:#1E4C7B;stroke-width:0.5;" width="152" x="11" y="767.3174"/><text fill="#1E4C7B" font-family="sans-serif" font-size="12" lengthAdjust="spacing" textLength="132" x="21" y="788.9189">Обработать (показать</text><text fill="#1E4C7B" font-family="sans-serif" font-size="12" lengthAdjust="spacing" textLength="103" x="37" y="803.0518">карточку товара)</text><polygon fill="#F1F1F1" points="49,718.8398,125,718.8398,137,730.8398,125,742.8398,49,742.8398,37,730.8398,49,718.8398" style="stroke:#1E4C7B;stroke-width:0.5;"/><text fill="#000000" font-family="sans-serif" font-size="11" lengthAdjust="spacing" textLength="13" x="91" y="753.4746">да</text><text fill="#1E4C7B" font-family="sans-serif" font-size="11" lengthAdjust="spacing" textLength="76" x="49" y="734.9971">Есть deeplink?</text><polygon fill="#F1F1F1" points="87,835.583,99,847.583,87,859.583,75,847.583,87,835.583" style="stroke:#1E4C7B;stroke-width:0.5;"/><ellipse cx="87" cy="890.583" fill="none" rx="11" ry="11" style="stroke:#222222;stroke-width:1.0;"/><ellipse cx="87" cy="890.583" fill="#222222" rx="6" ry="6" style="stroke:#111111;stroke-width:1.0;"/><line style="stroke:#181818;stroke-width:1.0;" x1="87" x2="87" y1="30" y2="50"/><polygon fill="#181818" points="83,40,87,50,91,40,87,44" style="stroke:#181818;stroke-width:1.0;"/><line style="stroke:#181818;stroke-width:1.0;" x1="87" x2="87" y1="142.2656" y2="166.7432"/><polygon fill="#181818" points="83,156.7432,87,166.7432,91,156.7432,87,160.7432" style="stroke:#181818;stroke-width:1.0;"/><line style="stroke:#181818;stroke-width:1.0;" x1="137" x2="149" y1="130.2656" y2="130.2656"/><polygon fill="#181818" points="145,173.8096,149,183.8096,153,173.8096,149,177.8096" style="stroke:#181818;stroke-width:1.0;"/><line style="stroke:#181818;stroke-width:1.0;" x1="149" x2="149" y1="130.2656" y2="232.876"/><line style="stroke:#181818;stroke-width:1.0;" x1="149" x2="99" y1="232.876" y2="232.876"/><polygon fill="#181818" points="109,228.876,99,232.876,109,236.876,105,232.876" style="stroke:#181818;stroke-width:1.0;"/><line style="stroke:#181818;stroke-width:1.0;" x1="87" x2="87" y1="200.876" y2="220.876"/><polygon fill="#181818" points="83,210.876,87,220.876,91,210.876,87,214.876" style="stroke:#181818;stroke-width:1.0;"/><line style="stroke:#181818;stroke-width:1.0;" x1="87" x2="87" y1="98.2656" y2="118.2656"/><polygon fill="#181818" points="83,108.2656,87,118.2656,91,108.2656,87,112.2656" style="stroke:#181818;stroke-width:1.0;"/><line style="stroke:#181818;stroke-width:1.0;" x1="87" x2="87" y1="288.876" y2="313.3535"/><polygon fill="#181818" points="83,303.3535,87,313.3535,91,303.3535,87,307.3535" style="stroke:#181818;stroke-width:1.0;"/><line style="stroke:#181818;stroke-width:1.0;" x1="142" x2="154" y1="276.876" y2="276.876"/><polygon fill="#181818" points="150,327.4863,154,337.4863,158,327.4863,154,331.4863" style="stroke:#181818;stroke-width:1.0;"/><line style="stroke:#181818;stroke-width:1.0;" x1="154" x2="154" y1="276.876" y2="393.6191"/><line style="stroke:#181818;stroke-width:1.0;" x1="154" x2="99" y1="393.6191" y2="393.6191"/><polygon fill="#181818" points="109,389.6191,99,393.6191,109,397.6191,105,393.6191" style="stroke:#181818;stroke-width:1.0;"/><line style="stroke:#181818;stroke-width:1.0;" x1="87" x2="87" y1="361.6191" y2="381.6191"/><polygon fill="#181818" points="83,371.6191,87,381.6191,91,371.6191,87,375.6191" style="stroke:#181818;stroke-width:1.0;"/><line style="stroke:#181818;stroke-width:1.0;" x1="87" x2="87" y1="244.876" y2="264.876"/><polygon fill="#181818" points="83,254.876,87,264.876,91,254.876,87,258.876" style="stroke:#181818;stroke-width:1.0;"/><line style="stroke:#181818;stroke-width:1.0;" x1="87" x2="87" y1="498.0967" y2="518.0967"/><polygon fill="#181818" points="83,508.0967,87,518.0967,91,508.0967,87,512.0967" style="stroke:#181818;stroke-width:1.0;"/><line style="stroke:#181818;stroke-width:1.0;" x1="123.5" x2="152.5" y1="584.2295" y2="584.2295"/><polygon fill="#181818" points="148.5,545.1631,152.5,535.1631,156.5,545.1631,152.5,541.1631" style="stroke:#181818;stroke-width:1.0;"/><line style="stroke:#181818;stroke-width:1.0;" x1="152.5" x2="152.5" y1="486.0967" y2="584.2295"/><line style="stroke:#181818;stroke-width:1.0;" x1="152.5" x2="99" y1="486.0967" y2="486.0967"/><polygon fill="#181818" points="109,482.0967,99,486.0967,109,490.0967,105,486.0967" style="stroke:#181818;stroke-width:1.0;"/><line style="stroke:#181818;stroke-width:1.0;" x1="87" x2="87" y1="552.2295" y2="572.2295"/><polygon fill="#181818" points="83,562.2295,87,572.2295,91,562.2295,87,566.2295" style="stroke:#181818;stroke-width:1.0;"/><line style="stroke:#181818;stroke-width:1.0;" x1="87" x2="87" y1="449.6191" y2="474.0967"/><polygon fill="#181818" points="83,464.0967,87,474.0967,91,464.0967,87,468.0967" style="stroke:#181818;stroke-width:1.0;"/><line style="stroke:#181818;stroke-width:1.0;" x1="143.5" x2="174.5" y1="437.6191" y2="437.6191"/><polygon fill="#181818" points="170.5,525.1631,174.5,535.1631,178.5,525.1631,174.5,529.1631" style="stroke:#181818;stroke-width:1.0;"/><line style="stroke:#181818;stroke-width:1.0;" x1="174.5" x2="174.5" y1="437.6191" y2="632.707"/><line style="stroke:#181818;stroke-width:1.0;" x1="174.5" x2="99" y1="632.707" y2="632.707"/><polygon fill="#181818" points="109,628.707,99,632.707,109,636.707,105,632.707" style="stroke:#181818;stroke-width:1.0;"/><line style="stroke:#181818;stroke-width:1.0;" x1="87" x2="87" y1="596.2295" y2="620.707"/><polygon fill="#181818" points="83,610.707,87,620.707,91,610.707,87,614.707" style="stroke:#181818;stroke-width:1.0;"/><line style="stroke:#181818;stroke-width:1.0;" x1="87" x2="87" y1="405.6191" y2="425.6191"/><polygon fill="#181818" points="83,415.6191,87,425.6191,91,415.6191,87,419.6191" style="stroke:#181818;stroke-width:1.0;"/><line style="stroke:#181818;stroke-width:1.0;" x1="87" x2="87" y1="644.707" y2="664.707"/><polygon fill="#181818" points="83,654.707,87,664.707,91,654.707,87,658.707" style="stroke:#181818;stroke-width:1.0;"/><line style="stroke:#181818;stroke-width:1.0;" x1="87" x2="87" y1="742.8398" y2="767.3174"/><polygon fill="#181818" points="83,757.3174,87,767.3174,91,757.3174,87,761.3174" style="stroke:#181818;stroke-width:1.0;"/><line style="stroke:#181818;stroke-width:1.0;" x1="137" x2="173" y1="730.8398" y2="730.8398"/><polygon fill="#181818" points="169,781.4502,173,791.4502,177,781.4502,173,785.4502" style="stroke:#181818;stroke-width:1.0;"/><line style="stroke:#181818;stroke-width:1.0;" x1="173" x2="173" y1="730.8398" y2="847.583"/><line style="stroke:#181818;stroke-width:1.0;" x1="173" x2="99" y1="847.583" y2="847.583"/><polygon fill="#181818" points="109,843.583,99,847.583,109,851.583,105,847.583" style="stroke:#181818;stroke-width:1.0;"/><line style="stroke:#181818;stroke-width:1.0;" x1="87" x2="87" y1="815.583" y2="835.583"/><polygon fill="#181818" points="83,825.583,87,835.583,91,825.583,87,829.583" style="stroke:#181818;stroke-width:1.0;"/><line style="stroke:#181818;stroke-width:1.0;" x1="87" x2="87" y1="698.8398" y2="718.8398"/><polygon fill="#181818" points="83,708.8398,87,718.8398,91,708.8398,87,712.8398" style="stroke:#181818;stroke-width:1.0;"/><line style="stroke:#181818;stroke-width:1.0;" x1="87" x2="87" y1="859.583" y2="879.583"/><polygon fill="#181818" points="83,869.583,87,879.583,91,869.583,87,873.583" style="stroke:#181818;stroke-width:1.0;"/><!--SRC=[ZP7DIiD058NtynGNtBHBGH3QXTYYJ-4cc2aT6YSX6HGHeJ-8We8WYBlw2arjjQOsliATD_9CKggjBfpLPUwPxznx9kae7NcnTq9q8OZsZuqwLURyCDIc6GPXJ5lR1plDtSQFNYECVHclToz5OhpOY1hXy1EF-DCER8-p8usgopEUSywlFEK5p-nzNQWMLVZHzcpVtf4lPHGetTchacbBZSw4HrLOrlZDeV3qetW8SLr8xQkMA0dFF0LzR6_vdKfjQVkRHD3cd442cGDXiXpGb7CG9fXmmI_hy0Tx1Sc42huROWuDDjY0oo2HgD6oVMSLoqXwHhWaQfkcZbL0woiXdRLLu013UuCfKYU7WqgMVDAX-SOlv_i3dBa25oveBFBlX8US8e1H4KH_2QiKwww5LNoiy-X2bTjhpko0NCbZTmdQAhp4X97u0W00]--></g></svg>