<?xml version="1.0" standalone="no"?>
<!DOCTYPE svg PUBLIC "-//W3C//DTD SVG 20010904//EN"
 "http://www.w3.org/TR/2001/REC-SVG-20010904/DTD/svg10.dtd">
<svg version="1.0" xmlns="http://www.w3.org/2000/svg"
 width="832.000000pt" height="832.000000pt" viewBox="0 0 832.000000 832.000000"
 preserveAspectRatio="xMidYMid meet">
<metadata>
Created by potrace 1.14, written by Peter Selinger 2001-2017
</metadata>
<g transform="translate(0.000000,832.000000) scale(0.100000,-0.100000)"
fill="#000000" stroke="none">
<path d="M3908 7243 l-368 -3 -23 -38 c-117 -186 -558 -968 -554 -982 15 -58
650 -1121 707 -1184 5 -4 34 4 66 19 140 66 273 95 438 95 320 -1 613 -146
802 -400 l67 -90 279 0 279 0 -6 23 c-16 50 -74 177 -113 244 -235 402 -647
678 -1106 742 -136 19 -416 11 -497 -15 -13 -4 -39 38 -118 186 -56 105 -101
195 -101 199 0 8 42 18 195 47 112 21 397 29 520 15 239 -28 433 -84 644 -186
73 -36 136 -63 141 -60 13 8 230 314 230 324 0 5 -138 248 -306 540 l-307 531
-251 -2 c-138 -2 -416 -4 -618 -5z"/>
<path d="M2955 5072 c-103 -140 -191 -317 -240 -487 -79 -274 -73 -619 15
-885 59 -176 161 -363 267 -488 l45 -53 -112 -167 c-62 -92 -118 -173 -125
-180 -24 -26 -217 210 -325 396 -149 259 -249 617 -250 895 l0 87 -227 0 -228
0 -197 -343 c-109 -188 -242 -419 -296 -513 l-99 -171 316 -534 317 -534 585
-3 585 -2 16 27 c9 16 91 163 183 328 92 165 235 419 318 564 l151 264 -24 16
c-127 83 -225 182 -307 308 -199 305 -215 700 -42 1022 22 41 37 81 34 89 -8
21 -298 432 -304 432 -3 0 -28 -31 -56 -68z"/>
<path d="M5177 4083 c-14 -250 -112 -469 -292 -649 -193 -193 -394 -281 -689
-302 l-99 -7 -107 -221 -108 -222 31 -6 c93 -19 269 -26 385 -16 500 43 938
324 1190 763 27 48 63 118 78 157 l29 70 223 0 c125 0 222 -4 222 -9 0 -25
-78 -230 -125 -326 -153 -318 -404 -597 -709 -790 l-74 -47 101 -162 c55 -88
109 -176 120 -193 l19 -33 581 0 582 1 299 533 c165 294 299 538 298 542 -1 5
-134 237 -295 516 l-292 508 -681 0 -681 0 -6 -107z"/>
</g>
</svg>
