<?xml version="1.0" encoding="UTF-8" standalone="no"?><svg xmlns="http://www.w3.org/2000/svg" xmlns:xlink="http://www.w3.org/1999/xlink" contentStyleType="text/css" height="643px" preserveAspectRatio="none" style="width:363px;height:643px;background:#FFFFFF;" version="1.1" viewBox="0 0 363 643" width="363px" zoomAndPan="magnify"><defs/><g><!--cluster Управление доставками--><g id="cluster_Управление доставками"><rect fill="none" height="281" rx="2.5" ry="2.5" style="stroke:#181818;stroke-width:1.0;" width="212" x="145" y="356.5"/><text fill="#000000" font-family="sans-serif" font-size="14" font-weight="bold" lengthAdjust="spacing" textLength="177" x="162.5" y="372.0352">Управление доставками</text></g><!--cluster Управление аккаунтом--><g id="cluster_Управление аккаунтом"><rect fill="none" height="257" rx="2.5" ry="2.5" style="stroke:#181818;stroke-width:1.0;" width="184" x="159.5" y="75.5"/><text fill="#000000" font-family="sans-serif" font-size="14" font-weight="bold" lengthAdjust="spacing" textLength="168" x="167.5" y="91.0352">Управление аккаунтом</text></g><g id="elem_order_ship"><ellipse cx="250.9325" cy="418.318" fill="#F1F1F1" rx="65.9325" ry="26.318" style="stroke:#181818;stroke-width:0.5;"/><text fill="#000000" font-family="sans-serif" font-size="14" lengthAdjust="spacing" textLength="77" x="212.4325" y="413.3648">заказывать</text><text fill="#000000" font-family="sans-serif" font-size="14" lengthAdjust="spacing" textLength="62" x="219.9325" y="429.8531">доставку</text></g><g id="elem_pay_ship"><ellipse cx="250.8467" cy="506.318" fill="#F1F1F1" rx="67.3467" ry="26.318" style="stroke:#181818;stroke-width:0.5;"/><text fill="#000000" font-family="sans-serif" font-size="14" lengthAdjust="spacing" textLength="79" x="211.3467" y="501.3648">оплачивать</text><text fill="#000000" font-family="sans-serif" font-size="14" lengthAdjust="spacing" textLength="62" x="219.8467" y="517.8531">доставку</text></g><g id="elem_view_ships"><ellipse cx="250.9741" cy="594.318" fill="#F1F1F1" rx="89.9741" ry="26.318" style="stroke:#181818;stroke-width:0.5;"/><text fill="#000000" font-family="sans-serif" font-size="14" lengthAdjust="spacing" textLength="106" x="197.9741" y="589.3648">просматривать</text><text fill="#000000" font-family="sans-serif" font-size="14" lengthAdjust="spacing" textLength="111" x="195.4741" y="605.8531">статус доставки</text></g><g id="elem_auth"><ellipse cx="250.9178" cy="201.318" fill="#F1F1F1" rx="74.4178" ry="26.318" style="stroke:#181818;stroke-width:0.5;"/><text fill="#000000" font-family="sans-serif" font-size="14" lengthAdjust="spacing" textLength="89" x="206.4178" y="196.3648">регистрация</text><text fill="#000000" font-family="sans-serif" font-size="14" lengthAdjust="spacing" textLength="88" x="206.9178" y="212.8531">и/или логин</text></g><g id="elem_logout"><ellipse cx="251.0177" cy="125.6606" fill="#F1F1F1" rx="44.0177" ry="14.6606" style="stroke:#181818;stroke-width:0.5;"/><text fill="#000000" font-family="sans-serif" font-size="14" lengthAdjust="spacing" textLength="46" x="227.5408" y="129.0872">логаут</text></g><g id="elem_delete_account"><ellipse cx="251.1543" cy="289.318" fill="#F1F1F1" rx="58.1543" ry="26.318" style="stroke:#181818;stroke-width:0.5;"/><text fill="#000000" font-family="sans-serif" font-size="14" lengthAdjust="spacing" textLength="66" x="218.1543" y="284.3648">удаление</text><text fill="#000000" font-family="sans-serif" font-size="14" lengthAdjust="spacing" textLength="63" x="219.6543" y="300.8531">аккаунта</text></g><g id="elem_update_ships"><ellipse cx="250.9741" cy="32.318" fill="#F1F1F1" rx="89.9741" ry="26.318" style="stroke:#181818;stroke-width:0.5;"/><text fill="#000000" font-family="sans-serif" font-size="14" lengthAdjust="spacing" textLength="71" x="215.4741" y="27.3648">обновлять</text><text fill="#000000" font-family="sans-serif" font-size="14" lengthAdjust="spacing" textLength="111" x="195.4741" y="43.8531">статус доставок</text></g><!--entity user--><g id="elem_user"><ellipse cx="53.5" cy="324" fill="#F1F1F1" rx="8" ry="8" style="stroke:#181818;stroke-width:0.5;"/><path d="M53.5,332 L53.5,359 M40.5,340 L66.5,340 M53.5,359 L40.5,374 M53.5,359 L66.5,374 " fill="none" style="stroke:#181818;stroke-width:0.5;"/><text fill="#000000" font-family="sans-serif" font-size="14" lengthAdjust="spacing" textLength="95" x="6" y="389.0352">Пользователь</text></g><!--entity server--><g id="elem_server"><ellipse cx="53.5" cy="50" fill="#F1F1F1" rx="8" ry="8" style="stroke:#181818;stroke-width:0.5;"/><path d="M53.5,58 L53.5,85 M40.5,66 L66.5,66 M53.5,85 L40.5,100 M53.5,85 L66.5,100 " fill="none" style="stroke:#181818;stroke-width:0.5;"/><text fill="#000000" font-family="sans-serif" font-size="14" lengthAdjust="spacing" textLength="51" x="28" y="115.0352">Сервер</text></g><!--link user to order_ship--><g id="link_user_order_ship"><path d="M101.33,369.07 C128.96,378.26 164.12,389.95 193.31,399.65 " fill="none" id="user-to-order_ship" style="stroke:#181818;stroke-width:1.0;"/><polygon fill="#181818" points="198.01,401.21,190.7428,394.5626,193.268,399.6246,188.2061,402.1498,198.01,401.21" style="stroke:#181818;stroke-width:1.0;"/></g><!--link user to pay_ship--><g id="link_user_pay_ship"><path d="M76.06,391.89 C90.69,415.01 111.91,443.54 137,462.5 C152.17,473.96 170.69,482.81 188.32,489.47 " fill="none" id="user-to-pay_ship" style="stroke:#181818;stroke-width:1.0;"/><polygon fill="#181818" points="192.84,491.12,185.7622,484.2713,188.1444,489.4021,183.0136,491.7843,192.84,491.12" style="stroke:#181818;stroke-width:1.0;"/></g><!--link user to view_ships--><g id="link_user_view_ships"><path d="M61.23,391.91 C70.81,435.76 92.4,507.01 137,550.5 C147.68,560.92 161.11,568.94 174.95,575.09 " fill="none" id="user-to-view_ships" style="stroke:#181818;stroke-width:1.0;"/><polygon fill="#181818" points="179.5,577.03,172.7655,569.8435,174.894,575.0846,169.6528,577.2131,179.5,577.03" style="stroke:#181818;stroke-width:1.0;"/></g><!--link user to auth--><g id="link_user_auth"><path d="M76.3,315.21 C90.95,292.35 112.11,264.22 137,245.5 C151.24,234.79 168.4,226.36 185.01,219.86 " fill="none" id="user-to-auth" style="stroke:#181818;stroke-width:1.0;"/><polygon fill="#181818" points="189.68,218.09,179.8465,217.541,185.0048,219.8628,182.683,225.0212,189.68,218.09" style="stroke:#181818;stroke-width:1.0;"/></g><!--link user to logout--><g id="link_user_logout"><path d="M60.42,315.3 C69.28,271.01 90.26,198.84 137,157.5 C154.65,141.89 179.4,133.85 201.24,129.73 " fill="none" id="user-to-logout" style="stroke:#181818;stroke-width:1.0;"/><polygon fill="#181818" points="206.12,128.88,196.5677,126.4812,201.1939,129.7367,197.9385,134.3629,206.12,128.88" style="stroke:#181818;stroke-width:1.0;"/></g><!--link user to delete_account--><g id="link_user_delete_account"><path d="M101.33,338.17 C130.24,328.71 167.4,316.54 197.33,306.74 " fill="none" id="user-to-delete_account" style="stroke:#181818;stroke-width:1.0;"/><polygon fill="#181818" points="201.78,305.29,191.9813,304.297,197.0295,306.8497,194.4768,311.8978,201.78,305.29" style="stroke:#181818;stroke-width:1.0;"/></g><!--link server to update_ships--><g id="link_server_update_ships"><path d="M79.26,73.55 C103.15,67.8 140.56,58.81 174.28,50.7 " fill="none" id="server-to-update_ships" style="stroke:#181818;stroke-width:1.0;"/><polygon fill="#181818" points="179.05,49.56,169.3642,47.7751,174.1886,50.729,171.2347,55.5534,179.05,49.56" style="stroke:#181818;stroke-width:1.0;"/></g><!--link server to logout--><g id="link_server_logout"><path d="M79.26,85.33 C111.74,92.97 169.19,106.49 208.4,115.71 " fill="none" id="server-to-logout" style="stroke:#181818;stroke-width:1.0;"/><polygon fill="#181818" points="213.06,116.81,205.2115,110.8601,208.1922,115.668,203.3843,118.6486,213.06,116.81" style="stroke:#181818;stroke-width:1.0;"/></g><!--SRC=[jL9BQiCm4Dtx52AhTX6wpw8dAGHXgud1M46MKqef93QqYmPoX59w0JUjYSb7kSBCZJgIYsEdqAowqMTctfltHeh4hMPQCXMEnfe5eHA-3cNisPt7eqYm7hp30MTGm0gsKC8UAYWPV871EMOklA5r1rMFFNYCfOdmUIBO1QmfR5DhVA6Y0ZDStCHT8EQNZ2TCga2eOJ8E9nq20mTgMU0pjVoROCBlVyEjQYebQHOwQvFK17JESNxgfNACqr3SESh4Upm_3MkKh68EU-8ni3kP1I5A-8JAjh5eVABpainKLqImXOhHOcm5x5rxdkfnnqoTfWwOkO98ZcIgEproCb8SLH5xLrRXW868X1P3xlioZVK_3QpzXXyanzXnuV8Sbu6Duqed0IUDDHltjLHi0A-KtkA2lfMfTP5HkWyS816gANo3aiIlxEgIb9jIshEg5Elthzl_hOarNwY9j1mTW-vXcjlFApJta-5wTMkNwdXgnMkARm00]--></g></svg>