<?xml version="1.0" encoding="UTF-8" standalone="no"?><svg xmlns="http://www.w3.org/2000/svg" xmlns:xlink="http://www.w3.org/1999/xlink" contentStyleType="text/css" height="187px" preserveAspectRatio="none" style="width:229px;height:187px;background:#FFFFFF;" version="1.1" viewBox="0 0 229 187" width="229px" zoomAndPan="magnify"><defs/><g><!--class IStorage--><g id="elem_IStorage"><rect codeLine="1" fill="#F1F1F1" height="48" id="IStorage" rx="2.5" ry="2.5" style="stroke:#181818;stroke-width:0.5;" width="89" x="133" y="7"/><ellipse cx="148" cy="23" fill="#B4A7E5" rx="11" ry="11" style="stroke:#181818;stroke-width:1.0;"/><path d="M144.4277,19.2651 L144.4277,17.1069 L151.8071,17.1069 L151.8071,19.2651 L149.3418,19.2651 L149.3418,27.3418 L151.8071,27.3418 L151.8071,29.5 L144.4277,29.5 L144.4277,27.3418 L146.8931,27.3418 L146.8931,19.2651 Z " fill="#000000"/><text fill="#000000" font-family="sans-serif" font-size="14" font-style="italic" lengthAdjust="spacing" textLength="57" x="162" y="28.291">IStorage</text><line style="stroke:#181818;stroke-width:0.5;" x1="134" x2="221" y1="39" y2="39"/><line style="stroke:#181818;stroke-width:0.5;" x1="134" x2="221" y1="47" y2="47"/></g><!--class IAuthAPI--><g id="elem_IAuthAPI"><rect codeLine="2" fill="#F1F1F1" height="48" id="IAuthAPI" rx="2.5" ry="2.5" style="stroke:#181818;stroke-width:0.5;" width="91" x="7" y="7"/><ellipse cx="22" cy="23" fill="#B4A7E5" rx="11" ry="11" style="stroke:#181818;stroke-width:1.0;"/><path d="M18.4277,19.2651 L18.4277,17.1069 L25.8071,17.1069 L25.8071,19.2651 L23.3418,19.2651 L23.3418,27.3418 L25.8071,27.3418 L25.8071,29.5 L18.4277,29.5 L18.4277,27.3418 L20.8931,27.3418 L20.8931,19.2651 Z " fill="#000000"/><text fill="#000000" font-family="sans-serif" font-size="14" font-style="italic" lengthAdjust="spacing" textLength="59" x="36" y="28.291">IAuthAPI</text><line style="stroke:#181818;stroke-width:0.5;" x1="8" x2="97" y1="39" y2="39"/><line style="stroke:#181818;stroke-width:0.5;" x1="8" x2="97" y1="47" y2="47"/></g><!--class PhoneViewModel--><g id="elem_PhoneViewModel"><rect codeLine="3" fill="#F1F1F1" height="48" id="PhoneViewModel" rx="2.5" ry="2.5" style="stroke:#181818;stroke-width:0.5;" width="149" x="40" y="132"/><ellipse cx="55" cy="148" fill="#ADD1B2" rx="11" ry="11" style="stroke:#181818;stroke-width:1.0;"/><path d="M57.4731,154.1431 Q56.8921,154.4419 56.2529,154.5913 Q55.6138,154.7407 54.9082,154.7407 Q52.4014,154.7407 51.0815,153.0889 Q49.7617,151.437 49.7617,148.3159 Q49.7617,145.1865 51.0815,143.5347 Q52.4014,141.8828 54.9082,141.8828 Q55.6138,141.8828 56.2612,142.0322 Q56.9087,142.1816 57.4731,142.4805 L57.4731,145.2031 Q56.8423,144.6221 56.2488,144.3523 Q55.6553,144.0825 55.0244,144.0825 Q53.6797,144.0825 52.9949,145.1492 Q52.3101,146.2158 52.3101,148.3159 Q52.3101,150.4077 52.9949,151.4744 Q53.6797,152.541 55.0244,152.541 Q55.6553,152.541 56.2488,152.2712 Q56.8423,152.0015 57.4731,151.4204 Z " fill="#000000"/><text fill="#000000" font-family="sans-serif" font-size="14" lengthAdjust="spacing" textLength="117" x="69" y="153.291">PhoneViewModel</text><line style="stroke:#181818;stroke-width:0.5;" x1="41" x2="188" y1="164" y2="164"/><line style="stroke:#181818;stroke-width:0.5;" x1="41" x2="188" y1="172" y2="172"/></g><!--reverse link IStorage to PhoneViewModel--><g id="link_IStorage_PhoneViewModel"><path codeLine="5" d="M162.64,61.01 C151.6,82.57 136.73,111.6 126.45,131.66 " fill="none" id="IStorage-backto-PhoneViewModel" style="stroke:#181818;stroke-width:1.0;"/><polygon fill="#181818" points="164.81,56.77,157.1439,62.9531,162.5284,61.2191,164.2624,66.6036,164.81,56.77" style="stroke:#181818;stroke-width:1.0;"/><text fill="#000000" font-family="sans-serif" font-size="13" lengthAdjust="spacing" textLength="22" x="150.5" y="98.5684">use</text></g><!--reverse link IAuthAPI to PhoneViewModel--><g id="link_IAuthAPI_PhoneViewModel"><path codeLine="6" d="M67.12,61.01 C77.99,82.57 92.62,111.6 102.74,131.66 " fill="none" id="IAuthAPI-backto-PhoneViewModel" style="stroke:#181818;stroke-width:1.0;"/><polygon fill="#181818" points="64.99,56.78,65.4875,66.6163,67.2489,61.2406,72.6246,63.002,64.99,56.78" style="stroke:#181818;stroke-width:1.0;"/><text fill="#000000" font-family="sans-serif" font-size="13" lengthAdjust="spacing" textLength="22" x="88.5" y="98.5684">use</text></g><!--SRC=[oymhIIrAIqnELV0CBialIanFvSf423cMbcGu1dXo9USa5XSh16JavwM6PQQM- -QdfEPmSQ7o5NHB2tJjuCOeM2cK5gVYK0Cr5w860000]--></g></svg>