<?xml version="1.0" encoding="UTF-8" standalone="no"?><svg xmlns="http://www.w3.org/2000/svg" xmlns:xlink="http://www.w3.org/1999/xlink" contentStyleType="text/css" height="437px" preserveAspectRatio="none" style="width:365px;height:437px;background:#FFFFFF;" version="1.1" viewBox="0 0 365 437" width="365px" zoomAndPan="magnify"><defs/><g><!--class IRouter--><g id="elem_IRouter"><rect codeLine="1" fill="#F1F1F1" height="48" id="IRouter" rx="2.5" ry="2.5" style="stroke:#181818;stroke-width:0.5;" width="82" x="142.5" y="7"/><ellipse cx="157.5" cy="23" fill="#B4A7E5" rx="11" ry="11" style="stroke:#181818;stroke-width:1.0;"/><path d="M153.9277,19.2651 L153.9277,17.1069 L161.3071,17.1069 L161.3071,19.2651 L158.8418,19.2651 L158.8418,27.3418 L161.3071,27.3418 L161.3071,29.5 L153.9277,29.5 L153.9277,27.3418 L156.3931,27.3418 L156.3931,19.2651 Z " fill="#000000"/><text fill="#000000" font-family="sans-serif" font-size="14" font-style="italic" lengthAdjust="spacing" textLength="50" x="171.5" y="28.291">IRouter</text><line style="stroke:#181818;stroke-width:0.5;" x1="143.5" x2="223.5" y1="39" y2="39"/><line style="stroke:#181818;stroke-width:0.5;" x1="143.5" x2="223.5" y1="47" y2="47"/></g><!--class IStorage--><g id="elem_IStorage"><rect codeLine="2" fill="#F1F1F1" height="48" id="IStorage" rx="2.5" ry="2.5" style="stroke:#181818;stroke-width:0.5;" width="89" x="269" y="132"/><ellipse cx="284" cy="148" fill="#B4A7E5" rx="11" ry="11" style="stroke:#181818;stroke-width:1.0;"/><path d="M280.4277,144.2651 L280.4277,142.1069 L287.8071,142.1069 L287.8071,144.2651 L285.3418,144.2651 L285.3418,152.3418 L287.8071,152.3418 L287.8071,154.5 L280.4277,154.5 L280.4277,152.3418 L282.8931,152.3418 L282.8931,144.2651 Z " fill="#000000"/><text fill="#000000" font-family="sans-serif" font-size="14" font-style="italic" lengthAdjust="spacing" textLength="57" x="298" y="153.291">IStorage</text><line style="stroke:#181818;stroke-width:0.5;" x1="270" x2="357" y1="164" y2="164"/><line style="stroke:#181818;stroke-width:0.5;" x1="270" x2="357" y1="172" y2="172"/></g><!--class IPhoneVM--><g id="elem_IPhoneVM"><rect codeLine="3" fill="#F1F1F1" height="48" id="IPhoneVM" rx="2.5" ry="2.5" style="stroke:#181818;stroke-width:0.5;" width="100" x="133.5" y="132"/><ellipse cx="148.5" cy="148" fill="#B4A7E5" rx="11" ry="11" style="stroke:#181818;stroke-width:1.0;"/><path d="M144.9277,144.2651 L144.9277,142.1069 L152.3071,142.1069 L152.3071,144.2651 L149.8418,144.2651 L149.8418,152.3418 L152.3071,152.3418 L152.3071,154.5 L144.9277,154.5 L144.9277,152.3418 L147.3931,152.3418 L147.3931,144.2651 Z " fill="#000000"/><text fill="#000000" font-family="sans-serif" font-size="14" font-style="italic" lengthAdjust="spacing" textLength="68" x="162.5" y="153.291">IPhoneVM</text><line style="stroke:#181818;stroke-width:0.5;" x1="134.5" x2="232.5" y1="164" y2="164"/><line style="stroke:#181818;stroke-width:0.5;" x1="134.5" x2="232.5" y1="172" y2="172"/></g><!--class IAuthAPI--><g id="elem_IAuthAPI"><rect codeLine="4" fill="#F1F1F1" height="48" id="IAuthAPI" rx="2.5" ry="2.5" style="stroke:#181818;stroke-width:0.5;" width="91" x="7" y="132"/><ellipse cx="22" cy="148" fill="#B4A7E5" rx="11" ry="11" style="stroke:#181818;stroke-width:1.0;"/><path d="M18.4277,144.2651 L18.4277,142.1069 L25.8071,142.1069 L25.8071,144.2651 L23.3418,144.2651 L23.3418,152.3418 L25.8071,152.3418 L25.8071,154.5 L18.4277,154.5 L18.4277,152.3418 L20.8931,152.3418 L20.8931,144.2651 Z " fill="#000000"/><text fill="#000000" font-family="sans-serif" font-size="14" font-style="italic" lengthAdjust="spacing" textLength="59" x="36" y="153.291">IAuthAPI</text><line style="stroke:#181818;stroke-width:0.5;" x1="8" x2="97" y1="164" y2="164"/><line style="stroke:#181818;stroke-width:0.5;" x1="8" x2="97" y1="172" y2="172"/></g><!--class PhoneViewModel--><g id="elem_PhoneViewModel"><rect codeLine="5" fill="#F1F1F1" height="48" id="PhoneViewModel" rx="2.5" ry="2.5" style="stroke:#181818;stroke-width:0.5;" width="149" x="109" y="257"/><ellipse cx="124" cy="273" fill="#ADD1B2" rx="11" ry="11" style="stroke:#181818;stroke-width:1.0;"/><path d="M126.4731,279.1431 Q125.8921,279.4419 125.2529,279.5913 Q124.6138,279.7407 123.9082,279.7407 Q121.4014,279.7407 120.0815,278.0889 Q118.7617,276.437 118.7617,273.3159 Q118.7617,270.1865 120.0815,268.5347 Q121.4014,266.8828 123.9082,266.8828 Q124.6138,266.8828 125.2612,267.0322 Q125.9087,267.1816 126.4731,267.4805 L126.4731,270.2031 Q125.8423,269.6221 125.2488,269.3523 Q124.6553,269.0825 124.0244,269.0825 Q122.6797,269.0825 121.9949,270.1492 Q121.3101,271.2158 121.3101,273.3159 Q121.3101,275.4077 121.9949,276.4744 Q122.6797,277.541 124.0244,277.541 Q124.6553,277.541 125.2488,277.2712 Q125.8423,277.0015 126.4731,276.4204 Z " fill="#000000"/><text fill="#000000" font-family="sans-serif" font-size="14" lengthAdjust="spacing" textLength="117" x="138" y="278.291">PhoneViewModel</text><line style="stroke:#181818;stroke-width:0.5;" x1="110" x2="257" y1="289" y2="289"/><line style="stroke:#181818;stroke-width:0.5;" x1="110" x2="257" y1="297" y2="297"/></g><!--class PhoneOp--><g id="elem_PhoneOp"><rect codeLine="6" fill="#F1F1F1" height="48" id="PhoneOp" rx="2.5" ry="2.5" style="stroke:#181818;stroke-width:0.5;" width="95" x="136" y="382"/><ellipse cx="151" cy="398" fill="#ADD1B2" rx="11" ry="11" style="stroke:#181818;stroke-width:1.0;"/><path d="M153.4731,404.1431 Q152.8921,404.4419 152.2529,404.5913 Q151.6138,404.7407 150.9082,404.7407 Q148.4014,404.7407 147.0815,403.0889 Q145.7617,401.437 145.7617,398.3159 Q145.7617,395.1865 147.0815,393.5347 Q148.4014,391.8828 150.9082,391.8828 Q151.6138,391.8828 152.2612,392.0322 Q152.9087,392.1816 153.4731,392.4805 L153.4731,395.2031 Q152.8423,394.6221 152.2488,394.3523 Q151.6553,394.0825 151.0244,394.0825 Q149.6797,394.0825 148.9949,395.1492 Q148.3101,396.2158 148.3101,398.3159 Q148.3101,400.4077 148.9949,401.4744 Q149.6797,402.541 151.0244,402.541 Q151.6553,402.541 152.2488,402.2712 Q152.8423,402.0015 153.4731,401.4204 Z " fill="#000000"/><text fill="#000000" font-family="sans-serif" font-size="14" lengthAdjust="spacing" textLength="63" x="165" y="403.291">PhoneOp</text><line style="stroke:#181818;stroke-width:0.5;" x1="137" x2="230" y1="414" y2="414"/><line style="stroke:#181818;stroke-width:0.5;" x1="137" x2="230" y1="422" y2="422"/></g><!--reverse link IStorage to PhoneViewModel--><g id="link_IStorage_PhoneViewModel"><path codeLine="8" d="M284.28,184.65 C261.36,206.33 229.82,236.17 208.17,256.66 " fill="none" id="IStorage-backto-PhoneViewModel" style="stroke:#181818;stroke-width:1.0;"/><polygon fill="#181818" points="287.64,181.47,278.3511,184.7437,284.0057,184.904,283.8455,190.5585,287.64,181.47" style="stroke:#181818;stroke-width:1.0;"/><text fill="#000000" font-family="sans-serif" font-size="13" lengthAdjust="spacing" textLength="22" x="256.5" y="223.5684">use</text></g><!--reverse link IPhoneVM to PhoneViewModel--><g id="link_IPhoneVM_PhoneViewModel"><path codeLine="9" d="M183.5,201.86 C183.5,220.44 183.5,241.21 183.5,256.66 " fill="none" id="IPhoneVM-backto-PhoneViewModel" style="stroke:#181818;stroke-width:1.0;"/><polygon fill="none" points="176.5,201.94,183.5,181.94,190.5,201.94,176.5,201.94" style="stroke:#181818;stroke-width:1.0;"/></g><!--reverse link IAuthAPI to PhoneViewModel--><g id="link_IAuthAPI_PhoneViewModel"><path codeLine="10" d="M81.95,184.65 C105.04,206.33 136.82,236.17 158.64,256.66 " fill="none" id="IAuthAPI-backto-PhoneViewModel" style="stroke:#181818;stroke-width:1.0;"/><polygon fill="#181818" points="78.55,181.46,82.3813,190.5331,82.1981,184.8792,87.852,184.6961,78.55,181.46" style="stroke:#181818;stroke-width:1.0;"/><text fill="#000000" font-family="sans-serif" font-size="13" lengthAdjust="spacing" textLength="22" x="127.5" y="223.5684">use</text></g><!--reverse link PhoneViewModel to PhoneOp--><g id="link_PhoneViewModel_PhoneOp"><path codeLine="11" d="M183.5,311.84 C183.5,333.31 183.5,361.85 183.5,381.66 " fill="none" id="PhoneViewModel-backto-PhoneOp" style="stroke:#181818;stroke-width:1.0;"/><polygon fill="#181818" points="183.5,306.94,179.5,315.94,183.5,311.94,187.5,315.94,183.5,306.94" style="stroke:#181818;stroke-width:1.0;"/><text fill="#000000" font-family="sans-serif" font-size="13" lengthAdjust="spacing" textLength="38" x="184.5" y="348.5684">create</text></g><!--link IRouter to IPhoneVM--><g id="link_IRouter_IPhoneVM"><path codeLine="12" d="M183.5,55.42 C183.5,75.26 183.5,103.8 183.5,125.25 " fill="none" id="IRouter-to-IPhoneVM" style="stroke:#181818;stroke-width:1.0;"/><polygon fill="#181818" points="183.5,130.15,187.5,121.15,183.5,125.15,179.5,121.15,183.5,130.15" style="stroke:#181818;stroke-width:1.0;"/><text fill="#000000" font-family="sans-serif" font-size="13" lengthAdjust="spacing" textLength="22" x="184.5" y="98.5684">use</text></g><!--SRC=[oymhIIrAIqnELV0CoYy5ihao4IB19Vb5YUcfo4816VbvgM6-o4AEfIKPZW6UNCavYSN52X05cQdbllafgJd8Wlu5N5oeiWgwfGMwTd1x5AmKIejJiQcfiKFOZDq8g2EGZV0lW4gYwR1II2vAJIn9vOBwM44t9RyyJnTX1SGG0000]--></g></svg>