<?xml version="1.0" encoding="UTF-8" standalone="no"?><svg xmlns="http://www.w3.org/2000/svg" xmlns:xlink="http://www.w3.org/1999/xlink" contentStyleType="text/css" height="681px" preserveAspectRatio="none" style="width:928px;height:681px;background:#FFFFFF;" version="1.1" viewBox="0 0 928 681" width="928px" zoomAndPan="magnify"><defs/><g><rect fill="#DDDDDD" height="669.8086" style="stroke:#181818;stroke-width:0.5;" width="171" x="209.5" y="6"/><text fill="#000000" font-family="sans-serif" font-size="13" font-weight="bold" lengthAdjust="spacing" textLength="49" x="270.5" y="18.5684">IRouter</text><rect fill="#FFFFFF" height="98.2422" style="stroke:#181818;stroke-width:1.0;" width="10" x="248.5" y="138.7305"/><rect fill="#FFFFFF" height="314.7266" style="stroke:#181818;stroke-width:1.0;" width="10" x="335" y="291.5938"/><rect fill="#FFFFFF" height="467.5898" style="stroke:#181818;stroke-width:1.0;" width="10" x="508" y="138.7305"/><rect fill="none" height="91.2422" style="stroke:#000000;stroke-width:1.5;" width="610.5" x="72" y="153.7305"/><rect fill="none" height="253.1055" style="stroke:#000000;stroke-width:1.5;" width="850.5" x="72" y="324.9043"/><line style="stroke:#181818;stroke-width:0.5;stroke-dasharray:5.0,5.0;" x1="38" x2="38" y1="56.7988" y2="624.3203"/><line style="stroke:#181818;stroke-width:0.5;stroke-dasharray:5.0,5.0;" x1="106" x2="106" y1="56.7988" y2="624.3203"/><line style="stroke:#181818;stroke-width:0.5;stroke-dasharray:5.0,5.0;" x1="253.5" x2="253.5" y1="56.7988" y2="624.3203"/><line style="stroke:#181818;stroke-width:0.5;stroke-dasharray:5.0,5.0;" x1="339.5" x2="339.5" y1="56.7988" y2="624.3203"/><line style="stroke:#181818;stroke-width:0.5;stroke-dasharray:5.0,5.0;" x1="513" x2="513" y1="56.7988" y2="624.3203"/><line style="stroke:#181818;stroke-width:0.5;stroke-dasharray:5.0,5.0;" x1="636.5" x2="636.5" y1="56.7988" y2="624.3203"/><line style="stroke:#181818;stroke-width:0.5;stroke-dasharray:5.0,5.0;" x1="724" x2="724" y1="56.7988" y2="624.3203"/><line style="stroke:#181818;stroke-width:0.5;stroke-dasharray:5.0,5.0;" x1="872.5" x2="872.5" y1="56.7988" y2="624.3203"/><rect fill="#E2E2F0" height="30.4883" rx="2.5" ry="2.5" style="stroke:#181818;stroke-width:0.5;" width="67" x="5" y="25.3105"/><text fill="#000000" font-family="sans-serif" font-size="14" lengthAdjust="spacing" textLength="53" x="12" y="45.8457">AuthOp</text><rect fill="#E2E2F0" height="30.4883" rx="2.5" ry="2.5" style="stroke:#181818;stroke-width:0.5;" width="67" x="5" y="623.3203"/><text fill="#000000" font-family="sans-serif" font-size="14" lengthAdjust="spacing" textLength="53" x="12" y="643.8555">AuthOp</text><text fill="#000000" font-family="sans-serif" font-size="14" lengthAdjust="spacing" textLength="31" x="88" y="53.8457">User</text><path d="M86,12.3105 L86,36.3105 M86,24.3105 L103,24.3105 " fill="none" style="stroke:#181818;stroke-width:0.5;"/><ellipse cx="115" cy="24.3105" fill="#E2E2F0" rx="12" ry="12" style="stroke:#181818;stroke-width:0.5;"/><text fill="#000000" font-family="sans-serif" font-size="14" lengthAdjust="spacing" textLength="31" x="88" y="636.8555">User</text><path d="M86,643.8086 L86,667.8086 M86,655.8086 L103,655.8086 " fill="none" style="stroke:#181818;stroke-width:0.5;"/><ellipse cx="115" cy="655.8086" fill="#E2E2F0" rx="12" ry="12" style="stroke:#181818;stroke-width:0.5;"/><rect fill="#E2E2F0" height="30.4883" rx="2.5" ry="2.5" style="stroke:#181818;stroke-width:0.5;" width="80" x="213.5" y="25.3105"/><text fill="#000000" font-family="sans-serif" font-size="14" lengthAdjust="spacing" textLength="66" x="220.5" y="45.8457">IPhoneVС</text><rect fill="#E2E2F0" height="30.4883" rx="2.5" ry="2.5" style="stroke:#181818;stroke-width:0.5;" width="80" x="213.5" y="623.3203"/><text fill="#000000" font-family="sans-serif" font-size="14" lengthAdjust="spacing" textLength="66" x="220.5" y="643.8555">IPhoneVС</text><rect fill="#E2E2F0" height="30.4883" rx="2.5" ry="2.5" style="stroke:#181818;stroke-width:0.5;" width="73" x="303.5" y="25.3105"/><text fill="#000000" font-family="sans-serif" font-size="14" lengthAdjust="spacing" textLength="59" x="310.5" y="45.8457">ICodeVС</text><rect fill="#E2E2F0" height="30.4883" rx="2.5" ry="2.5" style="stroke:#181818;stroke-width:0.5;" width="73" x="303.5" y="623.3203"/><text fill="#000000" font-family="sans-serif" font-size="14" lengthAdjust="spacing" textLength="59" x="310.5" y="643.8555">ICodeVС</text><rect fill="#E2E2F0" height="30.4883" rx="2.5" ry="2.5" style="stroke:#181818;stroke-width:0.5;" width="72" x="477" y="25.3105"/><text fill="#000000" font-family="sans-serif" font-size="14" lengthAdjust="spacing" textLength="58" x="484" y="45.8457">IAuthVM</text><rect fill="#E2E2F0" height="30.4883" rx="2.5" ry="2.5" style="stroke:#181818;stroke-width:0.5;" width="72" x="477" y="623.3203"/><text fill="#000000" font-family="sans-serif" font-size="14" lengthAdjust="spacing" textLength="58" x="484" y="643.8555">IAuthVM</text><rect fill="#E2E2F0" height="30.4883" rx="2.5" ry="2.5" style="stroke:#181818;stroke-width:0.5;" width="71" x="601.5" y="25.3105"/><text fill="#000000" font-family="sans-serif" font-size="14" lengthAdjust="spacing" textLength="57" x="608.5" y="45.8457">IStorage</text><rect fill="#E2E2F0" height="30.4883" rx="2.5" ry="2.5" style="stroke:#181818;stroke-width:0.5;" width="71" x="601.5" y="623.3203"/><text fill="#000000" font-family="sans-serif" font-size="14" lengthAdjust="spacing" textLength="57" x="608.5" y="643.8555">IStorage</text><rect fill="#E2E2F0" height="30.4883" rx="2.5" ry="2.5" style="stroke:#181818;stroke-width:0.5;" width="73" x="688" y="25.3105"/><text fill="#000000" font-family="sans-serif" font-size="14" lengthAdjust="spacing" textLength="59" x="695" y="45.8457">IAuthAPI</text><rect fill="#E2E2F0" height="30.4883" rx="2.5" ry="2.5" style="stroke:#181818;stroke-width:0.5;" width="73" x="688" y="623.3203"/><text fill="#000000" font-family="sans-serif" font-size="14" lengthAdjust="spacing" textLength="59" x="695" y="643.8555">IAuthAPI</text><text fill="#000000" font-family="sans-serif" font-size="14" lengthAdjust="spacing" textLength="74" x="832.5" y="53.8457">SMS-шлюз</text><path d="M852,12.3105 L852,36.3105 M852,24.3105 L869,24.3105 " fill="none" style="stroke:#181818;stroke-width:0.5;"/><ellipse cx="881" cy="24.3105" fill="#E2E2F0" rx="12" ry="12" style="stroke:#181818;stroke-width:0.5;"/><text fill="#000000" font-family="sans-serif" font-size="14" lengthAdjust="spacing" textLength="74" x="832.5" y="636.8555">SMS-шлюз</text><path d="M852,643.8086 L852,667.8086 M852,655.8086 L869,655.8086 " fill="none" style="stroke:#181818;stroke-width:0.5;"/><ellipse cx="881" cy="655.8086" fill="#E2E2F0" rx="12" ry="12" style="stroke:#181818;stroke-width:0.5;"/><rect fill="#FFFFFF" height="98.2422" style="stroke:#181818;stroke-width:1.0;" width="10" x="248.5" y="138.7305"/><rect fill="#FFFFFF" height="314.7266" style="stroke:#181818;stroke-width:1.0;" width="10" x="335" y="291.5938"/><rect fill="#FFFFFF" height="467.5898" style="stroke:#181818;stroke-width:1.0;" width="10" x="508" y="138.7305"/><path d="M217,71.7988 L217,111.7988 L375,111.7988 L375,81.7988 L365,71.7988 L217,71.7988 " fill="#98FB98" style="stroke:#181818;stroke-width:0.5;"/><path d="M365,71.7988 L365,81.7988 L375,81.7988 L365,71.7988 " fill="#98FB98" style="stroke:#181818;stroke-width:0.5;"/><text fill="#000000" font-family="sans-serif" font-size="13" lengthAdjust="spacing" textLength="118" x="225" y="89.3672">Вью-контроллеры</text><text fill="#000000" font-family="sans-serif" font-size="13" lengthAdjust="spacing" textLength="133" x="225" y="104.6777">создаются роутером</text><path d="M429,71.7988 L429,111.7988 L597,111.7988 L597,81.7988 L587,71.7988 L429,71.7988 " fill="#98FB98" style="stroke:#181818;stroke-width:0.5;"/><path d="M587,71.7988 L587,81.7988 L597,81.7988 L587,71.7988 " fill="#98FB98" style="stroke:#181818;stroke-width:0.5;"/><text fill="#000000" font-family="sans-serif" font-size="13" lengthAdjust="spacing" textLength="147" x="435" y="89.3672">Одна вью-модель для</text><text fill="#000000" font-family="sans-serif" font-size="13" lengthAdjust="spacing" textLength="130" x="435" y="104.6777">двух экранов входа</text><path d="M642,71.7988 L642,111.7988 L807,111.7988 L807,81.7988 L797,71.7988 L642,71.7988 " fill="#98FB98" style="stroke:#181818;stroke-width:0.5;"/><path d="M797,71.7988 L797,81.7988 L807,81.7988 L797,71.7988 " fill="#98FB98" style="stroke:#181818;stroke-width:0.5;"/><text fill="#000000" font-family="sans-serif" font-size="13" lengthAdjust="spacing" textLength="144" x="648" y="89.3672">сервис инкпасулирует</text><text fill="#000000" font-family="sans-serif" font-size="13" lengthAdjust="spacing" textLength="106" x="648" y="104.6777">API авторизации</text><ellipse cx="248" cy="137.9805" fill="none" rx="4" ry="4" style="stroke:#181818;stroke-width:1.5;"/><polygon fill="#181818" points="231,134.7305,241,138.7305,231,142.7305,235,138.7305" style="stroke:#181818;stroke-width:1.0;"/><line style="stroke:#181818;stroke-width:1.0;" x1="38.5" x2="237" y1="138.7305" y2="138.7305"/><text fill="#800000" font-family="sans-serif" font-size="13" font-weight="bold" lengthAdjust="spacing" textLength="9" x="45.5" y="133.9883">1</text><text fill="#000000" font-family="sans-serif" font-size="13" lengthAdjust="spacing" textLength="45" x="58.5" y="133.9883">начало</text><path d="M72,153.7305 L332,153.7305 L332,161.041 L322,171.041 L72,171.041 L72,153.7305 " fill="#EEEEEE" style="stroke:#000000;stroke-width:1.5;"/><rect fill="none" height="91.2422" style="stroke:#000000;stroke-width:1.5;" width="610.5" x="72" y="153.7305"/><text fill="#000000" font-family="sans-serif" font-size="13" font-weight="bold" lengthAdjust="spacing" textLength="215" x="87" y="167.2988">Экран ввода номера телефона</text><polygon fill="#181818" points="236.5,188.3516,246.5,192.3516,236.5,196.3516,240.5,192.3516" style="stroke:#181818;stroke-width:1.0;"/><line style="stroke:#181818;stroke-width:1.0;" x1="106.5" x2="242.5" y1="192.3516" y2="192.3516"/><text fill="#800000" font-family="sans-serif" font-size="13" font-weight="bold" lengthAdjust="spacing" textLength="9" x="113.5" y="187.6094">2</text><text fill="#000000" font-family="sans-serif" font-size="13" lengthAdjust="spacing" textLength="40" x="126.5" y="187.6094">номер</text><text fill="#000000" font-family="sans-serif" font-size="13" lengthAdjust="spacing" textLength="4" x="166.5" y="187.6094"> </text><text fill="#000000" font-family="sans-serif" font-size="13" lengthAdjust="spacing" textLength="61" x="170.5" y="187.6094">телефона</text><polygon fill="#181818" points="625,232.9727,635,236.9727,625,240.9727,629,236.9727" style="stroke:#181818;stroke-width:1.0;"/><line style="stroke:#181818;stroke-width:1.0;" x1="518" x2="631" y1="236.9727" y2="236.9727"/><text fill="#800000" font-family="sans-serif" font-size="13" font-weight="bold" lengthAdjust="spacing" textLength="9" x="525" y="224.5752">3</text><text fill="#000000" font-family="sans-serif" font-size="13" lengthAdjust="spacing" textLength="36" x="538" y="216.9199">токен</text><text fill="#000000" font-family="sans-serif" font-size="13" lengthAdjust="spacing" textLength="82" x="538" y="232.2305">авторизации</text><polygon fill="#181818" points="356,287.5938,346,291.5938,356,295.5938,352,291.5938" style="stroke:#181818;stroke-width:1.0;"/><line style="stroke:#181818;stroke-width:1.0;" x1="350" x2="507" y1="291.5938" y2="291.5938"/><text fill="#800000" font-family="sans-serif" font-size="13" font-weight="bold" lengthAdjust="spacing" textLength="9" x="362" y="286.8516">4</text><text fill="#000000" font-family="sans-serif" font-size="13" lengthAdjust="spacing" textLength="36" x="375" y="286.8516">токен</text><text fill="#000000" font-family="sans-serif" font-size="13" lengthAdjust="spacing" textLength="4" x="411" y="286.8516"> </text><text fill="#000000" font-family="sans-serif" font-size="13" lengthAdjust="spacing" textLength="53" x="415" y="286.8516">получен</text><path d="M160,256.9727 L160,311.9727 L330,311.9727 L330,266.9727 L320,256.9727 L160,256.9727 " fill="#98FB98" style="stroke:#181818;stroke-width:0.5;"/><path d="M320,256.9727 L320,266.9727 L330,266.9727 L320,256.9727 " fill="#98FB98" style="stroke:#181818;stroke-width:0.5;"/><text fill="#000000" font-family="sans-serif" font-size="13" lengthAdjust="spacing" textLength="146" x="166" y="274.541">Привязка вью-модели</text><text fill="#000000" font-family="sans-serif" font-size="13" lengthAdjust="spacing" textLength="149" x="166" y="289.8516">и роутера выполняется</text><text fill="#000000" font-family="sans-serif" font-size="13" lengthAdjust="spacing" textLength="106" x="166" y="305.1621">в теле операции</text><path d="M72,324.9043 L356,324.9043 L356,332.2148 L346,342.2148 L72,342.2148 L72,324.9043 " fill="#EEEEEE" style="stroke:#000000;stroke-width:1.5;"/><rect fill="none" height="253.1055" style="stroke:#000000;stroke-width:1.5;" width="850.5" x="72" y="324.9043"/><text fill="#000000" font-family="sans-serif" font-size="13" font-weight="bold" lengthAdjust="spacing" textLength="239" x="87" y="338.4727">Экран ввода кода подтверждения</text><polygon fill="#181818" points="712.5,374.8359,722.5,378.8359,712.5,382.8359,716.5,378.8359" style="stroke:#181818;stroke-width:1.0;"/><line style="stroke:#181818;stroke-width:1.0;" x1="518" x2="718.5" y1="378.8359" y2="378.8359"/><text fill="#800000" font-family="sans-serif" font-size="13" font-weight="bold" lengthAdjust="spacing" textLength="9" x="525" y="366.4385">5</text><text fill="#000000" font-family="sans-serif" font-size="13" lengthAdjust="spacing" textLength="65" x="538" y="358.7832">запросить</text><text fill="#000000" font-family="sans-serif" font-size="13" lengthAdjust="spacing" textLength="55" x="538" y="374.0938">смс-код</text><polygon fill="#181818" points="860.5,404.1465,870.5,408.1465,860.5,412.1465,864.5,408.1465" style="stroke:#181818;stroke-width:1.0;"/><line style="stroke:#181818;stroke-width:1.0;" x1="724.5" x2="866.5" y1="408.1465" y2="408.1465"/><text fill="#800000" font-family="sans-serif" font-size="13" font-weight="bold" lengthAdjust="spacing" textLength="9" x="731.5" y="403.4043">6</text><text fill="#000000" font-family="sans-serif" font-size="13" lengthAdjust="spacing" textLength="40" x="744.5" y="403.4043">номер</text><text fill="#000000" font-family="sans-serif" font-size="13" lengthAdjust="spacing" textLength="4" x="784.5" y="403.4043"> </text><text fill="#000000" font-family="sans-serif" font-size="13" lengthAdjust="spacing" textLength="8" x="788.5" y="403.4043">и</text><text fill="#000000" font-family="sans-serif" font-size="13" lengthAdjust="spacing" textLength="4" x="796.5" y="403.4043"> </text><text fill="#000000" font-family="sans-serif" font-size="13" lengthAdjust="spacing" textLength="55" x="800.5" y="403.4043">смс-код</text><polygon fill="#181818" points="117.5,433.457,107.5,437.457,117.5,441.457,113.5,437.457" style="stroke:#181818;stroke-width:1.0;"/><line style="stroke:#181818;stroke-width:1.0;" x1="111.5" x2="871.5" y1="437.457" y2="437.457"/><text fill="#800000" font-family="sans-serif" font-size="13" font-weight="bold" lengthAdjust="spacing" textLength="9" x="123.5" y="432.7148">7</text><text fill="#000000" font-family="sans-serif" font-size="13" lengthAdjust="spacing" textLength="55" x="136.5" y="432.7148">смс-код</text><polygon fill="#181818" points="323,462.7676,333,466.7676,323,470.7676,327,466.7676" style="stroke:#181818;stroke-width:1.0;"/><line style="stroke:#181818;stroke-width:1.0;" x1="106.5" x2="329" y1="466.7676" y2="466.7676"/><text fill="#800000" font-family="sans-serif" font-size="13" font-weight="bold" lengthAdjust="spacing" textLength="9" x="113.5" y="462.0254">8</text><text fill="#000000" font-family="sans-serif" font-size="13" lengthAdjust="spacing" textLength="55" x="126.5" y="462.0254">смс-код</text><polygon fill="#181818" points="496,492.0781,506,496.0781,496,500.0781,500,496.0781" style="stroke:#181818;stroke-width:1.0;"/><line style="stroke:#181818;stroke-width:1.0;" x1="345" x2="502" y1="496.0781" y2="496.0781"/><text fill="#800000" font-family="sans-serif" font-size="13" font-weight="bold" lengthAdjust="spacing" textLength="9" x="352" y="491.3359">9</text><text fill="#000000" font-family="sans-serif" font-size="13" lengthAdjust="spacing" textLength="55" x="365" y="491.3359">смс-код</text><polygon fill="#181818" points="712.5,521.3887,722.5,525.3887,712.5,529.3887,716.5,525.3887" style="stroke:#181818;stroke-width:1.0;"/><line style="stroke:#181818;stroke-width:1.0;" x1="518" x2="718.5" y1="525.3887" y2="525.3887"/><text fill="#800000" font-family="sans-serif" font-size="13" font-weight="bold" lengthAdjust="spacing" textLength="18" x="525" y="520.6465">10</text><text fill="#000000" font-family="sans-serif" font-size="13" lengthAdjust="spacing" textLength="36" x="547" y="520.6465">токен</text><text fill="#000000" font-family="sans-serif" font-size="13" lengthAdjust="spacing" textLength="4" x="583" y="520.6465"> </text><text fill="#000000" font-family="sans-serif" font-size="13" lengthAdjust="spacing" textLength="8" x="587" y="520.6465">и</text><text fill="#000000" font-family="sans-serif" font-size="13" lengthAdjust="spacing" textLength="4" x="595" y="520.6465"> </text><text fill="#000000" font-family="sans-serif" font-size="13" lengthAdjust="spacing" textLength="55" x="599" y="520.6465">смс-код</text><polygon fill="#181818" points="529,566.0098,519,570.0098,529,574.0098,525,570.0098" style="stroke:#181818;stroke-width:1.0;"/><line style="stroke:#181818;stroke-width:1.0;stroke-dasharray:2.0,2.0;" x1="523" x2="723.5" y1="570.0098" y2="570.0098"/><text fill="#800000" font-family="sans-serif" font-size="13" font-weight="bold" lengthAdjust="spacing" textLength="18" x="535" y="557.6123">11</text><text fill="#000000" font-family="sans-serif" font-size="13" lengthAdjust="spacing" textLength="62" x="557" y="549.957">результат</text><text fill="#000000" font-family="sans-serif" font-size="13" lengthAdjust="spacing" textLength="61" x="557" y="565.2676">проверки</text><polygon fill="#181818" points="49.5,602.3203,39.5,606.3203,49.5,610.3203,45.5,606.3203" style="stroke:#181818;stroke-width:1.0;"/><ellipse cx="512.5" cy="605.5703" fill="none" rx="4" ry="4" style="stroke:#181818;stroke-width:1.5;"/><line style="stroke:#181818;stroke-width:1.0;" x1="43.5" x2="508" y1="606.3203" y2="606.3203"/><text fill="#800000" font-family="sans-serif" font-size="13" font-weight="bold" lengthAdjust="spacing" textLength="18" x="55.5" y="601.5781">12</text><text fill="#000000" font-family="sans-serif" font-size="13" lengthAdjust="spacing" textLength="76" x="77.5" y="601.5781">завершение</text><!--SRC=[ZLJTIXj16BtVfvYcXRRGrMX_4H54g7WHb8PwvSsQJCtIx0_x8xPN9j5Qq1he0xJq0GfXIUgInEGLPjwePsPdixinBPABdScSy_sSETyyCErQCwnJihJiKTy9FP_woqtpg17eGODQTCaDhQRcVpHjr_0CYrZ6IONwld54g-PdIbPMovfcX85ZXzOXzKZfKRPvwtYM4JnvMj8qS0EpPhg67P3IPXWqTjqICNnYo2Lnl3guAsNjq0djkk5z8gNtFlKa9CH20LO5u8IKTjuvOO3ZOjYTlOPZqttsIz9SjL7Kv-Kvy9PJds5hOhsba2_A6hNh18dc6ABi_SgixFsA8hoS3rqD70_wIAIVh1NqLNb1pCszdLdGJTTKqDTvCQgLgiw_iX6_PZT9MClVDe8qx1lSWUs8xJ5sQUVFqhuUxXbDkkrHQgyHzfrVyMkT3Tc4tV8sFyLtXD-0d_BB0vktiBzXVTRZrpXjyIuH4DxXRG71uLXR9bak9KGXmm_GRrcFi2X9DGQhpmQe_efWCUBT0nlV247F2V_6XeZR0sF28i4vb_3UdJH2cdmUb2egYbZCMuJ5231aKzJTuXtq4wEV3W3j0nlw4YI8qC84X1ZzzVWNV6FfNFXFtt1cgg415Cylm1YnYMRK0lDOA9rqckrJl7RaEQ5BsE-q3_I0d-o1oAx6iiuU4H9AfS-4zkZmSMPIVKCbMCjn5Z6Ku0eFJUv9MDTrFQC8AI3NG5IxM1avTSXIaEMVQRAgbD_law9Exug9oSi5I_nRZ3KLXeLrBiGsSNsJVWYA5lmfKqMyYtJ3HLPaCJmO5xqjOPT90in6LxX7J02GqQnbWjDf0bTj_FV-X-b2HEqZI2IvVsGLjt1fDtDKqgssw8OX6flAOblWj358M8nvAvdZlfREXxY0v6Ket9Vej81Fdm_WnKMlpHsdbp_Jlt2gNfMSPUyMCzT0_WBZnV0vWvu2V2Cc6HVNXjPjaWYW11n2-DGhk-wwxcJZ8xII83oOKcCso5jDpN7k7wNxNm00]--></g></svg>