<?xml version="1.0" encoding="UTF-8" standalone="no"?><svg xmlns="http://www.w3.org/2000/svg" xmlns:xlink="http://www.w3.org/1999/xlink" contentStyleType="text/css" height="428px" preserveAspectRatio="none" style="width:716px;height:428px;background:#FFFFFF;" version="1.1" viewBox="0 0 716 428" width="716px" zoomAndPan="magnify"><defs/><g><rect fill="#DDDDDD" height="416.7031" style="stroke:#181818;stroke-width:0.5;" width="81" x="166" y="6"/><text fill="#000000" font-family="sans-serif" font-size="13" font-weight="bold" lengthAdjust="spacing" textLength="49" x="182" y="18.5684">IRouter</text><rect fill="#FFFFFF" height="249.7949" style="stroke:#181818;stroke-width:1.0;" width="10" x="201.5" y="103.4199"/><rect fill="#FFFFFF" height="249.7949" style="stroke:#181818;stroke-width:1.0;" width="10" x="303.5" y="103.4199"/><line style="stroke:#181818;stroke-width:0.5;stroke-dasharray:5.0,5.0;" x1="40" x2="40" y1="56.7988" y2="371.2148"/><line style="stroke:#181818;stroke-width:0.5;stroke-dasharray:5.0,5.0;" x1="109" x2="109" y1="56.7988" y2="371.2148"/><line style="stroke:#181818;stroke-width:0.5;stroke-dasharray:5.0,5.0;" x1="206" x2="206" y1="56.7988" y2="371.2148"/><line style="stroke:#181818;stroke-width:0.5;stroke-dasharray:5.0,5.0;" x1="308" x2="308" y1="56.7988" y2="371.2148"/><line style="stroke:#181818;stroke-width:0.5;stroke-dasharray:5.0,5.0;" x1="527" x2="527" y1="56.7988" y2="371.2148"/><line style="stroke:#181818;stroke-width:0.5;stroke-dasharray:5.0,5.0;" x1="675.5" x2="675.5" y1="56.7988" y2="371.2148"/><rect fill="#E2E2F0" height="30.4883" rx="2.5" ry="2.5" style="stroke:#181818;stroke-width:0.5;" width="70" x="5" y="25.3105"/><text fill="#000000" font-family="sans-serif" font-size="14" lengthAdjust="spacing" textLength="56" x="12" y="45.8457">CodeOp</text><rect fill="#E2E2F0" height="30.4883" rx="2.5" ry="2.5" style="stroke:#181818;stroke-width:0.5;" width="70" x="5" y="370.2148"/><text fill="#000000" font-family="sans-serif" font-size="14" lengthAdjust="spacing" textLength="56" x="12" y="390.75">CodeOp</text><text fill="#000000" font-family="sans-serif" font-size="14" lengthAdjust="spacing" textLength="31" x="91" y="53.8457">User</text><path d="M89,12.3105 L89,36.3105 M89,24.3105 L106,24.3105 " fill="none" style="stroke:#181818;stroke-width:0.5;"/><ellipse cx="118" cy="24.3105" fill="#E2E2F0" rx="12" ry="12" style="stroke:#181818;stroke-width:0.5;"/><text fill="#000000" font-family="sans-serif" font-size="14" lengthAdjust="spacing" textLength="31" x="91" y="383.75">User</text><path d="M89,390.7031 L89,414.7031 M89,402.7031 L106,402.7031 " fill="none" style="stroke:#181818;stroke-width:0.5;"/><ellipse cx="118" cy="402.7031" fill="#E2E2F0" rx="12" ry="12" style="stroke:#181818;stroke-width:0.5;"/><rect fill="#E2E2F0" height="30.4883" rx="2.5" ry="2.5" style="stroke:#181818;stroke-width:0.5;" width="73" x="170" y="25.3105"/><text fill="#000000" font-family="sans-serif" font-size="14" lengthAdjust="spacing" textLength="59" x="177" y="45.8457">ICodeVС</text><rect fill="#E2E2F0" height="30.4883" rx="2.5" ry="2.5" style="stroke:#181818;stroke-width:0.5;" width="73" x="170" y="370.2148"/><text fill="#000000" font-family="sans-serif" font-size="14" lengthAdjust="spacing" textLength="59" x="177" y="390.75">ICodeVС</text><rect fill="#E2E2F0" height="30.4883" rx="2.5" ry="2.5" style="stroke:#181818;stroke-width:0.5;" width="75" x="271" y="25.3105"/><text fill="#000000" font-family="sans-serif" font-size="14" lengthAdjust="spacing" textLength="61" x="278" y="45.8457">ICodeVM</text><rect fill="#E2E2F0" height="30.4883" rx="2.5" ry="2.5" style="stroke:#181818;stroke-width:0.5;" width="75" x="271" y="370.2148"/><text fill="#000000" font-family="sans-serif" font-size="14" lengthAdjust="spacing" textLength="61" x="278" y="390.75">ICodeVM</text><rect fill="#E2E2F0" height="30.4883" rx="2.5" ry="2.5" style="stroke:#181818;stroke-width:0.5;" width="73" x="491" y="25.3105"/><text fill="#000000" font-family="sans-serif" font-size="14" lengthAdjust="spacing" textLength="59" x="498" y="45.8457">IAuthAPI</text><rect fill="#E2E2F0" height="30.4883" rx="2.5" ry="2.5" style="stroke:#181818;stroke-width:0.5;" width="73" x="491" y="370.2148"/><text fill="#000000" font-family="sans-serif" font-size="14" lengthAdjust="spacing" textLength="59" x="498" y="390.75">IAuthAPI</text><text fill="#000000" font-family="sans-serif" font-size="14" lengthAdjust="spacing" textLength="74" x="635.5" y="53.8457">SMS-шлюз</text><path d="M655,12.3105 L655,36.3105 M655,24.3105 L672,24.3105 " fill="none" style="stroke:#181818;stroke-width:0.5;"/><ellipse cx="684" cy="24.3105" fill="#E2E2F0" rx="12" ry="12" style="stroke:#181818;stroke-width:0.5;"/><text fill="#000000" font-family="sans-serif" font-size="14" lengthAdjust="spacing" textLength="74" x="635.5" y="383.75">SMS-шлюз</text><path d="M655,390.7031 L655,414.7031 M655,402.7031 L672,402.7031 " fill="none" style="stroke:#181818;stroke-width:0.5;"/><ellipse cx="684" cy="402.7031" fill="#E2E2F0" rx="12" ry="12" style="stroke:#181818;stroke-width:0.5;"/><rect fill="#FFFFFF" height="249.7949" style="stroke:#181818;stroke-width:1.0;" width="10" x="201.5" y="103.4199"/><rect fill="#FFFFFF" height="249.7949" style="stroke:#181818;stroke-width:1.0;" width="10" x="303.5" y="103.4199"/><ellipse cx="303" cy="102.6699" fill="none" rx="4" ry="4" style="stroke:#181818;stroke-width:1.5;"/><polygon fill="#181818" points="286,99.4199,296,103.4199,286,107.4199,290,103.4199" style="stroke:#181818;stroke-width:1.0;"/><line style="stroke:#181818;stroke-width:1.0;" x1="40" x2="292" y1="103.4199" y2="103.4199"/><text fill="#000000" font-family="sans-serif" font-size="13" font-weight="bold" lengthAdjust="spacing" textLength="9" x="47" y="91.0225">1</text><text fill="#000000" font-family="sans-serif" font-size="13" lengthAdjust="spacing" textLength="45" x="60" y="83.3672">начало</text><text fill="#000000" font-family="sans-serif" font-size="13" lengthAdjust="spacing" textLength="40" x="60" y="98.6777">[токен</text><text fill="#000000" font-family="sans-serif" font-size="13" lengthAdjust="spacing" textLength="4" x="100" y="98.6777"> </text><text fill="#000000" font-family="sans-serif" font-size="13" lengthAdjust="spacing" textLength="86" x="104" y="98.6777">авторизации]</text><polygon fill="#181818" points="515.5,128.7305,525.5,132.7305,515.5,136.7305,519.5,132.7305" style="stroke:#181818;stroke-width:1.0;"/><line style="stroke:#181818;stroke-width:1.0;" x1="313.5" x2="521.5" y1="132.7305" y2="132.7305"/><text fill="#000000" font-family="sans-serif" font-size="13" font-weight="bold" lengthAdjust="spacing" textLength="9" x="320.5" y="127.9883">2</text><text fill="#000000" font-family="sans-serif" font-size="13" lengthAdjust="spacing" textLength="44" x="333.5" y="127.9883">запрос</text><text fill="#000000" font-family="sans-serif" font-size="13" lengthAdjust="spacing" textLength="4" x="377.5" y="127.9883"> </text><text fill="#000000" font-family="sans-serif" font-size="13" lengthAdjust="spacing" textLength="62" x="381.5" y="127.9883">смс-кода</text><text fill="#000000" font-family="sans-serif" font-size="13" lengthAdjust="spacing" textLength="4" x="443.5" y="127.9883"> </text><text fill="#000000" font-family="sans-serif" font-size="13" lengthAdjust="spacing" textLength="16" x="447.5" y="127.9883">по</text><text fill="#000000" font-family="sans-serif" font-size="13" lengthAdjust="spacing" textLength="4" x="463.5" y="127.9883"> </text><text fill="#000000" font-family="sans-serif" font-size="13" lengthAdjust="spacing" textLength="43" x="467.5" y="127.9883">токену</text><polygon fill="#181818" points="663.5,158.041,673.5,162.041,663.5,166.041,667.5,162.041" style="stroke:#181818;stroke-width:1.0;"/><line style="stroke:#181818;stroke-width:1.0;" x1="527.5" x2="669.5" y1="162.041" y2="162.041"/><text fill="#000000" font-family="sans-serif" font-size="13" font-weight="bold" lengthAdjust="spacing" textLength="9" x="534.5" y="157.2988">3</text><text fill="#000000" font-family="sans-serif" font-size="13" lengthAdjust="spacing" textLength="40" x="547.5" y="157.2988">номер</text><text fill="#000000" font-family="sans-serif" font-size="13" lengthAdjust="spacing" textLength="4" x="587.5" y="157.2988"> </text><text fill="#000000" font-family="sans-serif" font-size="13" lengthAdjust="spacing" textLength="8" x="591.5" y="157.2988">и</text><text fill="#000000" font-family="sans-serif" font-size="13" lengthAdjust="spacing" textLength="4" x="599.5" y="157.2988"> </text><text fill="#000000" font-family="sans-serif" font-size="13" lengthAdjust="spacing" textLength="55" x="603.5" y="157.2988">смс-код</text><polygon fill="#181818" points="120.5,187.3516,110.5,191.3516,120.5,195.3516,116.5,191.3516" style="stroke:#181818;stroke-width:1.0;"/><line style="stroke:#181818;stroke-width:1.0;" x1="114.5" x2="674.5" y1="191.3516" y2="191.3516"/><text fill="#000000" font-family="sans-serif" font-size="13" font-weight="bold" lengthAdjust="spacing" textLength="9" x="126.5" y="186.6094">4</text><text fill="#000000" font-family="sans-serif" font-size="13" lengthAdjust="spacing" textLength="55" x="139.5" y="186.6094">смс-код</text><polygon fill="#181818" points="189.5,216.6621,199.5,220.6621,189.5,224.6621,193.5,220.6621" style="stroke:#181818;stroke-width:1.0;"/><line style="stroke:#181818;stroke-width:1.0;" x1="109.5" x2="195.5" y1="220.6621" y2="220.6621"/><text fill="#000000" font-family="sans-serif" font-size="13" font-weight="bold" lengthAdjust="spacing" textLength="9" x="116.5" y="215.9199">5</text><text fill="#000000" font-family="sans-serif" font-size="13" lengthAdjust="spacing" textLength="55" x="129.5" y="215.9199">смс-код</text><polygon fill="#181818" points="291.5,245.9727,301.5,249.9727,291.5,253.9727,295.5,249.9727" style="stroke:#181818;stroke-width:1.0;"/><line style="stroke:#181818;stroke-width:1.0;" x1="211.5" x2="297.5" y1="249.9727" y2="249.9727"/><text fill="#000000" font-family="sans-serif" font-size="13" font-weight="bold" lengthAdjust="spacing" textLength="9" x="218.5" y="245.2305">6</text><text fill="#000000" font-family="sans-serif" font-size="13" lengthAdjust="spacing" textLength="55" x="231.5" y="245.2305">смс-код</text><polygon fill="#181818" points="515.5,275.2832,525.5,279.2832,515.5,283.2832,519.5,279.2832" style="stroke:#181818;stroke-width:1.0;"/><line style="stroke:#181818;stroke-width:1.0;" x1="313.5" x2="521.5" y1="279.2832" y2="279.2832"/><text fill="#000000" font-family="sans-serif" font-size="13" font-weight="bold" lengthAdjust="spacing" textLength="9" x="320.5" y="274.541">7</text><text fill="#000000" font-family="sans-serif" font-size="13" lengthAdjust="spacing" textLength="36" x="333.5" y="274.541">токен</text><text fill="#000000" font-family="sans-serif" font-size="13" lengthAdjust="spacing" textLength="4" x="369.5" y="274.541"> </text><text fill="#000000" font-family="sans-serif" font-size="13" lengthAdjust="spacing" textLength="8" x="373.5" y="274.541">и</text><text fill="#000000" font-family="sans-serif" font-size="13" lengthAdjust="spacing" textLength="4" x="381.5" y="274.541"> </text><text fill="#000000" font-family="sans-serif" font-size="13" lengthAdjust="spacing" textLength="55" x="385.5" y="274.541">смс-код</text><polygon fill="#181818" points="324.5,304.5938,314.5,308.5938,324.5,312.5938,320.5,308.5938" style="stroke:#181818;stroke-width:1.0;"/><line style="stroke:#181818;stroke-width:1.0;stroke-dasharray:2.0,2.0;" x1="318.5" x2="526.5" y1="308.5938" y2="308.5938"/><text fill="#000000" font-family="sans-serif" font-size="13" font-weight="bold" lengthAdjust="spacing" textLength="9" x="330.5" y="303.8516">8</text><text fill="#000000" font-family="sans-serif" font-size="13" lengthAdjust="spacing" textLength="62" x="343.5" y="303.8516">результат</text><text fill="#000000" font-family="sans-serif" font-size="13" lengthAdjust="spacing" textLength="4" x="405.5" y="303.8516"> </text><text fill="#000000" font-family="sans-serif" font-size="13" lengthAdjust="spacing" textLength="61" x="409.5" y="303.8516">проверки</text><polygon fill="#181818" points="51,349.2148,41,353.2148,51,357.2148,47,353.2148" style="stroke:#181818;stroke-width:1.0;"/><ellipse cx="308" cy="352.4648" fill="none" rx="4" ry="4" style="stroke:#181818;stroke-width:1.5;"/><line style="stroke:#181818;stroke-width:1.0;" x1="45" x2="303.5" y1="353.2148" y2="353.2148"/><text fill="#000000" font-family="sans-serif" font-size="13" font-weight="bold" lengthAdjust="spacing" textLength="9" x="57" y="340.8174">9</text><text fill="#000000" font-family="sans-serif" font-size="13" lengthAdjust="spacing" textLength="76" x="70" y="333.1621">завершение</text><text fill="#000000" font-family="sans-serif" font-size="13" lengthAdjust="spacing" textLength="66" x="70" y="348.4727">[результат</text><text fill="#000000" font-family="sans-serif" font-size="13" lengthAdjust="spacing" textLength="4" x="136" y="348.4727"> </text><text fill="#000000" font-family="sans-serif" font-size="13" lengthAdjust="spacing" textLength="65" x="140" y="348.4727">проверки]</text><!--SRC=[XL7BJXj14BpFLpI-3oo4S4082Vc0V5WbmWeNu31uHtY5zw6TcOZaP8EKS43y0tzW8IolU2o_qFD7zAp7mLvPocaUNLNTrRKMfxs1YIIiRnHIPQPGKcqCuek-vhel4xcUcsJ0r6MSvg8G2IJYAfHAYGlPZNzBs0e29epEKfESou8n0kcu5-SYrT1gPv7ybhT0AEZLLyYAI1Qm6R3ppAIHA7v1wuUIHGqnTF60BGUuWbRdA3EQoiko7QTxZ0__X8_RdlSbO3ADWBYh6E4d8VI4xQ01F32wV_2zKoE5k-UnXtvT7BeRThcznHTxZzCQgn9rABJqs9s0iPbZlf_vZhk0RpYsVt6CBrYTfYVs6YjynWc-0VqzkgSTOebJGlsXipnZegVZdqvsvhBn3fdtmlVdir8JekCx2LLs17Q4htR4gKk5JpW6VCSAFllQ6pRtI1BUGZrdXQyuiKF0Sbc3pNqItkMrsoZN6L9jDc-pwhEQryELzMKxYqigLyFtEESBX261f_Q6ihaZyjXUmsmT-EWS4RNqqUpnXMZSrce0fKhDQFqJ5z7_nSvO99knD7_Qx0C0]--></g></svg>