<?xml version="1.0" encoding="UTF-8" standalone="no"?><svg xmlns="http://www.w3.org/2000/svg" xmlns:xlink="http://www.w3.org/1999/xlink" contentStyleType="text/css" height="508px" preserveAspectRatio="none" style="width:662px;height:508px;background:#FFFFFF;" version="1.1" viewBox="0 0 662 508" width="662px" zoomAndPan="magnify"><defs/><g><rect fill="#DDDDDD" height="496.6348" style="stroke:#181818;stroke-width:0.5;" width="81" x="166" y="6"/><text fill="#000000" font-family="sans-serif" font-size="13" font-weight="bold" lengthAdjust="spacing" textLength="49" x="182" y="18.5684">IRouter</text><rect fill="#FFFFFF" height="294.416" style="stroke:#181818;stroke-width:1.0;" width="10" x="201.5" y="138.7305"/><rect fill="#FFFFFF" height="294.416" style="stroke:#181818;stroke-width:1.0;" width="10" x="303.5" y="138.7305"/><line style="stroke:#181818;stroke-width:0.5;stroke-dasharray:5.0,5.0;" x1="40" x2="40" y1="56.7988" y2="451.1465"/><line style="stroke:#181818;stroke-width:0.5;stroke-dasharray:5.0,5.0;" x1="109" x2="109" y1="56.7988" y2="451.1465"/><line style="stroke:#181818;stroke-width:0.5;stroke-dasharray:5.0,5.0;" x1="206" x2="206" y1="56.7988" y2="451.1465"/><line style="stroke:#181818;stroke-width:0.5;stroke-dasharray:5.0,5.0;" x1="308" x2="308" y1="56.7988" y2="451.1465"/><line style="stroke:#181818;stroke-width:0.5;stroke-dasharray:5.0,5.0;" x1="391" x2="391" y1="56.7988" y2="451.1465"/><line style="stroke:#181818;stroke-width:0.5;stroke-dasharray:5.0,5.0;" x1="473" x2="473" y1="56.7988" y2="451.1465"/><line style="stroke:#181818;stroke-width:0.5;stroke-dasharray:5.0,5.0;" x1="621.5" x2="621.5" y1="56.7988" y2="451.1465"/><rect fill="#E2E2F0" height="30.4883" rx="2.5" ry="2.5" style="stroke:#181818;stroke-width:0.5;" width="70" x="5" y="25.3105"/><text fill="#000000" font-family="sans-serif" font-size="14" lengthAdjust="spacing" textLength="56" x="12" y="45.8457">CodeOp</text><rect fill="#E2E2F0" height="30.4883" rx="2.5" ry="2.5" style="stroke:#181818;stroke-width:0.5;" width="70" x="5" y="450.1465"/><text fill="#000000" font-family="sans-serif" font-size="14" lengthAdjust="spacing" textLength="56" x="12" y="470.6816">CodeOp</text><text fill="#000000" font-family="sans-serif" font-size="14" lengthAdjust="spacing" textLength="31" x="91" y="53.8457">User</text><path d="M89,12.3105 L89,36.3105 M89,24.3105 L106,24.3105 " fill="none" style="stroke:#181818;stroke-width:0.5;"/><ellipse cx="118" cy="24.3105" fill="#E2E2F0" rx="12" ry="12" style="stroke:#181818;stroke-width:0.5;"/><text fill="#000000" font-family="sans-serif" font-size="14" lengthAdjust="spacing" textLength="31" x="91" y="463.6816">User</text><path d="M89,470.6348 L89,494.6348 M89,482.6348 L106,482.6348 " fill="none" style="stroke:#181818;stroke-width:0.5;"/><ellipse cx="118" cy="482.6348" fill="#E2E2F0" rx="12" ry="12" style="stroke:#181818;stroke-width:0.5;"/><rect fill="#E2E2F0" height="30.4883" rx="2.5" ry="2.5" style="stroke:#181818;stroke-width:0.5;" width="73" x="170" y="25.3105"/><text fill="#000000" font-family="sans-serif" font-size="14" lengthAdjust="spacing" textLength="59" x="177" y="45.8457">ICodeVС</text><rect fill="#E2E2F0" height="30.4883" rx="2.5" ry="2.5" style="stroke:#181818;stroke-width:0.5;" width="73" x="170" y="450.1465"/><text fill="#000000" font-family="sans-serif" font-size="14" lengthAdjust="spacing" textLength="59" x="177" y="470.6816">ICodeVС</text><rect fill="#E2E2F0" height="30.4883" rx="2.5" ry="2.5" style="stroke:#181818;stroke-width:0.5;" width="75" x="271" y="25.3105"/><text fill="#000000" font-family="sans-serif" font-size="14" lengthAdjust="spacing" textLength="61" x="278" y="45.8457">ICodeVM</text><rect fill="#E2E2F0" height="30.4883" rx="2.5" ry="2.5" style="stroke:#181818;stroke-width:0.5;" width="75" x="271" y="450.1465"/><text fill="#000000" font-family="sans-serif" font-size="14" lengthAdjust="spacing" textLength="61" x="278" y="470.6816">ICodeVM</text><rect fill="#E2E2F0" height="30.4883" rx="2.5" ry="2.5" style="stroke:#181818;stroke-width:0.5;" width="71" x="356" y="25.3105"/><text fill="#000000" font-family="sans-serif" font-size="14" lengthAdjust="spacing" textLength="57" x="363" y="45.8457">IStorage</text><rect fill="#E2E2F0" height="30.4883" rx="2.5" ry="2.5" style="stroke:#181818;stroke-width:0.5;" width="71" x="356" y="450.1465"/><text fill="#000000" font-family="sans-serif" font-size="14" lengthAdjust="spacing" textLength="57" x="363" y="470.6816">IStorage</text><rect fill="#E2E2F0" height="30.4883" rx="2.5" ry="2.5" style="stroke:#181818;stroke-width:0.5;" width="73" x="437" y="25.3105"/><text fill="#000000" font-family="sans-serif" font-size="14" lengthAdjust="spacing" textLength="59" x="444" y="45.8457">IAuthAPI</text><rect fill="#E2E2F0" height="30.4883" rx="2.5" ry="2.5" style="stroke:#181818;stroke-width:0.5;" width="73" x="437" y="450.1465"/><text fill="#000000" font-family="sans-serif" font-size="14" lengthAdjust="spacing" textLength="59" x="444" y="470.6816">IAuthAPI</text><text fill="#000000" font-family="sans-serif" font-size="14" lengthAdjust="spacing" textLength="74" x="581.5" y="53.8457">SMS-шлюз</text><path d="M601,12.3105 L601,36.3105 M601,24.3105 L618,24.3105 " fill="none" style="stroke:#181818;stroke-width:0.5;"/><ellipse cx="630" cy="24.3105" fill="#E2E2F0" rx="12" ry="12" style="stroke:#181818;stroke-width:0.5;"/><text fill="#000000" font-family="sans-serif" font-size="14" lengthAdjust="spacing" textLength="74" x="581.5" y="463.6816">SMS-шлюз</text><path d="M601,470.6348 L601,494.6348 M601,482.6348 L618,482.6348 " fill="none" style="stroke:#181818;stroke-width:0.5;"/><ellipse cx="630" cy="482.6348" fill="#E2E2F0" rx="12" ry="12" style="stroke:#181818;stroke-width:0.5;"/><rect fill="#FFFFFF" height="294.416" style="stroke:#181818;stroke-width:1.0;" width="10" x="201.5" y="138.7305"/><rect fill="#FFFFFF" height="294.416" style="stroke:#181818;stroke-width:1.0;" width="10" x="303.5" y="138.7305"/><path d="M216,71.7988 L216,111.7988 L401,111.7988 L401,81.7988 L391,71.7988 L216,71.7988 " fill="#98FB98" style="stroke:#181818;stroke-width:0.5;"/><path d="M391,71.7988 L391,81.7988 L401,81.7988 L391,71.7988 " fill="#98FB98" style="stroke:#181818;stroke-width:0.5;"/><text fill="#000000" font-family="sans-serif" font-size="13" lengthAdjust="spacing" textLength="154" x="222" y="89.3672">Отдельная вью-модель</text><text fill="#000000" font-family="sans-serif" font-size="13" lengthAdjust="spacing" textLength="164" x="222" y="104.6777">для кода подтверждения</text><ellipse cx="201" cy="137.9805" fill="none" rx="4" ry="4" style="stroke:#181818;stroke-width:1.5;"/><polygon fill="#181818" points="184,134.7305,194,138.7305,184,142.7305,188,138.7305" style="stroke:#181818;stroke-width:1.0;"/><line style="stroke:#181818;stroke-width:1.0;" x1="40" x2="190" y1="138.7305" y2="138.7305"/><text fill="#000000" font-family="sans-serif" font-size="13" font-weight="bold" lengthAdjust="spacing" textLength="9" x="47" y="133.9883">1</text><text fill="#000000" font-family="sans-serif" font-size="13" lengthAdjust="spacing" textLength="45" x="60" y="133.9883">начало</text><polygon fill="#181818" points="324.5,164.041,314.5,168.041,324.5,172.041,320.5,168.041" style="stroke:#181818;stroke-width:1.0;"/><line style="stroke:#181818;stroke-width:1.0;" x1="318.5" x2="390.5" y1="168.041" y2="168.041"/><text fill="#000000" font-family="sans-serif" font-size="13" font-weight="bold" lengthAdjust="spacing" textLength="9" x="330.5" y="163.2988">2</text><text fill="#000000" font-family="sans-serif" font-size="13" lengthAdjust="spacing" textLength="36" x="343.5" y="163.2988">token</text><polygon fill="#181818" points="461.5,208.6621,471.5,212.6621,461.5,216.6621,465.5,212.6621" style="stroke:#181818;stroke-width:1.0;"/><line style="stroke:#181818;stroke-width:1.0;" x1="313.5" x2="467.5" y1="212.6621" y2="212.6621"/><text fill="#000000" font-family="sans-serif" font-size="13" font-weight="bold" lengthAdjust="spacing" textLength="9" x="320.5" y="200.2646">3</text><text fill="#000000" font-family="sans-serif" font-size="13" lengthAdjust="spacing" textLength="44" x="333.5" y="192.6094">запрос</text><text fill="#000000" font-family="sans-serif" font-size="13" lengthAdjust="spacing" textLength="4" x="377.5" y="192.6094"> </text><text fill="#000000" font-family="sans-serif" font-size="13" lengthAdjust="spacing" textLength="62" x="381.5" y="192.6094">смс-кода</text><text fill="#000000" font-family="sans-serif" font-size="13" lengthAdjust="spacing" textLength="16" x="333.5" y="207.9199">по</text><text fill="#000000" font-family="sans-serif" font-size="13" lengthAdjust="spacing" textLength="4" x="349.5" y="207.9199"> </text><text fill="#000000" font-family="sans-serif" font-size="13" lengthAdjust="spacing" textLength="43" x="353.5" y="207.9199">токену</text><polygon fill="#181818" points="609.5,237.9727,619.5,241.9727,609.5,245.9727,613.5,241.9727" style="stroke:#181818;stroke-width:1.0;"/><line style="stroke:#181818;stroke-width:1.0;" x1="473.5" x2="615.5" y1="241.9727" y2="241.9727"/><text fill="#000000" font-family="sans-serif" font-size="13" font-weight="bold" lengthAdjust="spacing" textLength="9" x="480.5" y="237.2305">4</text><text fill="#000000" font-family="sans-serif" font-size="13" lengthAdjust="spacing" textLength="40" x="493.5" y="237.2305">номер</text><text fill="#000000" font-family="sans-serif" font-size="13" lengthAdjust="spacing" textLength="4" x="533.5" y="237.2305"> </text><text fill="#000000" font-family="sans-serif" font-size="13" lengthAdjust="spacing" textLength="8" x="537.5" y="237.2305">и</text><text fill="#000000" font-family="sans-serif" font-size="13" lengthAdjust="spacing" textLength="4" x="545.5" y="237.2305"> </text><text fill="#000000" font-family="sans-serif" font-size="13" lengthAdjust="spacing" textLength="55" x="549.5" y="237.2305">смс-код</text><polygon fill="#181818" points="120.5,267.2832,110.5,271.2832,120.5,275.2832,116.5,271.2832" style="stroke:#181818;stroke-width:1.0;"/><line style="stroke:#181818;stroke-width:1.0;" x1="114.5" x2="620.5" y1="271.2832" y2="271.2832"/><text fill="#000000" font-family="sans-serif" font-size="13" font-weight="bold" lengthAdjust="spacing" textLength="9" x="126.5" y="266.541">5</text><text fill="#000000" font-family="sans-serif" font-size="13" lengthAdjust="spacing" textLength="55" x="139.5" y="266.541">смс-код</text><polygon fill="#181818" points="189.5,296.5938,199.5,300.5938,189.5,304.5938,193.5,300.5938" style="stroke:#181818;stroke-width:1.0;"/><line style="stroke:#181818;stroke-width:1.0;" x1="109.5" x2="195.5" y1="300.5938" y2="300.5938"/><text fill="#000000" font-family="sans-serif" font-size="13" font-weight="bold" lengthAdjust="spacing" textLength="9" x="116.5" y="295.8516">6</text><text fill="#000000" font-family="sans-serif" font-size="13" lengthAdjust="spacing" textLength="55" x="129.5" y="295.8516">смс-код</text><polygon fill="#181818" points="291.5,325.9043,301.5,329.9043,291.5,333.9043,295.5,329.9043" style="stroke:#181818;stroke-width:1.0;"/><line style="stroke:#181818;stroke-width:1.0;" x1="211.5" x2="297.5" y1="329.9043" y2="329.9043"/><text fill="#000000" font-family="sans-serif" font-size="13" font-weight="bold" lengthAdjust="spacing" textLength="9" x="218.5" y="325.1621">7</text><text fill="#000000" font-family="sans-serif" font-size="13" lengthAdjust="spacing" textLength="55" x="231.5" y="325.1621">смс-код</text><polygon fill="#181818" points="461.5,355.2148,471.5,359.2148,461.5,363.2148,465.5,359.2148" style="stroke:#181818;stroke-width:1.0;"/><line style="stroke:#181818;stroke-width:1.0;" x1="313.5" x2="467.5" y1="359.2148" y2="359.2148"/><text fill="#000000" font-family="sans-serif" font-size="13" font-weight="bold" lengthAdjust="spacing" textLength="9" x="320.5" y="354.4727">8</text><text fill="#000000" font-family="sans-serif" font-size="13" lengthAdjust="spacing" textLength="36" x="333.5" y="354.4727">токен</text><text fill="#000000" font-family="sans-serif" font-size="13" lengthAdjust="spacing" textLength="4" x="369.5" y="354.4727"> </text><text fill="#000000" font-family="sans-serif" font-size="13" lengthAdjust="spacing" textLength="8" x="373.5" y="354.4727">и</text><text fill="#000000" font-family="sans-serif" font-size="13" lengthAdjust="spacing" textLength="4" x="381.5" y="354.4727"> </text><text fill="#000000" font-family="sans-serif" font-size="13" lengthAdjust="spacing" textLength="55" x="385.5" y="354.4727">смс-код</text><polygon fill="#181818" points="324.5,399.8359,314.5,403.8359,324.5,407.8359,320.5,403.8359" style="stroke:#181818;stroke-width:1.0;"/><line style="stroke:#181818;stroke-width:1.0;stroke-dasharray:2.0,2.0;" x1="318.5" x2="472.5" y1="403.8359" y2="403.8359"/><text fill="#000000" font-family="sans-serif" font-size="13" font-weight="bold" lengthAdjust="spacing" textLength="9" x="330.5" y="391.4385">9</text><text fill="#000000" font-family="sans-serif" font-size="13" lengthAdjust="spacing" textLength="62" x="343.5" y="383.7832">результат</text><text fill="#000000" font-family="sans-serif" font-size="13" lengthAdjust="spacing" textLength="61" x="343.5" y="399.0938">проверки</text><polygon fill="#181818" points="51,429.1465,41,433.1465,51,437.1465,47,433.1465" style="stroke:#181818;stroke-width:1.0;"/><ellipse cx="308" cy="432.3965" fill="none" rx="4" ry="4" style="stroke:#181818;stroke-width:1.5;"/><line style="stroke:#181818;stroke-width:1.0;" x1="45" x2="303.5" y1="433.1465" y2="433.1465"/><text fill="#000000" font-family="sans-serif" font-size="13" font-weight="bold" lengthAdjust="spacing" textLength="18" x="57" y="428.4043">10</text><text fill="#000000" font-family="sans-serif" font-size="13" lengthAdjust="spacing" textLength="76" x="79" y="428.4043">завершение</text><!--SRC=[RLBBJXin5DtxAznqRHZeIueG4ie2PJ4gQbHMtPYCHKPax97jGRGh0ejsWU0FAl474MgQYC3m2zT_r3iUJo1JTjS-vnwVUwxVf78uBX91DpQrCAhGHfZDSNeyiioEH2OsyY8R4tEIofnhdj6CdyN267ui1kaFGRUs8y8BgsIH7GbD299iEanpBYtjz5GYFkSToWqT-f8gdGXDjo9of0gPSFsTThuQeJsbm28GjYl26UtqlwZ28hmkswzq3-5s9NpO2ttl8Y9aGh7tjOxukI4E3U-Z5d5WbSRPFDFKTQ1-Q5Ft2ZlQE-XxAg_gF0tKZo_d6yG3vdx1qbt3l9RDp3wtZUodY12fgkCfdeAvjmTyBFQr4B9BuRUxW3ymGuKhU8Ifkw5mvwxSDOC7A1lacyHgMM7t_d9AuQagiFSEPkuS_dhc8opS3I7rDjYk2l7XAvNoJvZ24ah2XpOzhIpMQEiSa-1oXpKHTQbL9q8s0Djj0a7XEOe-eO7IJQYRm8ERi3MF52sMU8Fct2LfWaI9a9FtLkAiE0M5nRe6QS94VlL_kYtO_od4cZ7NqV1t6Zn-5LyVvzdi_rvMiJ3sek4SoNDtMIq9cwVkWjPnXBtSmoAiOuUfbG-VcYVWr_5hWnb9H7iHxPiU-GS0]--></g></svg>