<?xml version="1.0" encoding="UTF-8" standalone="no"?><svg xmlns="http://www.w3.org/2000/svg" xmlns:xlink="http://www.w3.org/1999/xlink" contentStyleType="text/css" height="437px" preserveAspectRatio="none" style="width:365px;height:437px;background:#FFFFFF;" version="1.1" viewBox="0 0 365 437" width="365px" zoomAndPan="magnify"><defs/><g><!--class IRouter--><g id="elem_IRouter"><rect codeLine="2" fill="#F1F1F1" height="48" id="IRouter" rx="2.5" ry="2.5" style="stroke:#181818;stroke-width:0.5;" width="82" x="140.5" y="7"/><ellipse cx="155.5" cy="23" fill="#B4A7E5" rx="11" ry="11" style="stroke:#181818;stroke-width:1.0;"/><path d="M151.9277,19.2651 L151.9277,17.1069 L159.3071,17.1069 L159.3071,19.2651 L156.8418,19.2651 L156.8418,27.3418 L159.3071,27.3418 L159.3071,29.5 L151.9277,29.5 L151.9277,27.3418 L154.3931,27.3418 L154.3931,19.2651 Z " fill="#000000"/><text fill="#000000" font-family="sans-serif" font-size="14" font-style="italic" lengthAdjust="spacing" textLength="50" x="169.5" y="28.291">IRouter</text><line style="stroke:#181818;stroke-width:0.5;" x1="141.5" x2="221.5" y1="39" y2="39"/><line style="stroke:#181818;stroke-width:0.5;" x1="141.5" x2="221.5" y1="47" y2="47"/></g><!--class IStorage--><g id="elem_IStorage"><rect codeLine="3" fill="#F1F1F1" height="48" id="IStorage" rx="2.5" ry="2.5" style="stroke:#181818;stroke-width:0.5;" width="89" x="7" y="132"/><ellipse cx="22" cy="148" fill="#B4A7E5" rx="11" ry="11" style="stroke:#181818;stroke-width:1.0;"/><path d="M18.4277,144.2651 L18.4277,142.1069 L25.8071,142.1069 L25.8071,144.2651 L23.3418,144.2651 L23.3418,152.3418 L25.8071,152.3418 L25.8071,154.5 L18.4277,154.5 L18.4277,152.3418 L20.8931,152.3418 L20.8931,144.2651 Z " fill="#000000"/><text fill="#000000" font-family="sans-serif" font-size="14" font-style="italic" lengthAdjust="spacing" textLength="57" x="36" y="153.291">IStorage</text><line style="stroke:#181818;stroke-width:0.5;" x1="8" x2="95" y1="164" y2="164"/><line style="stroke:#181818;stroke-width:0.5;" x1="8" x2="95" y1="172" y2="172"/></g><!--class IPhoneVM--><g id="elem_IPhoneVM"><rect codeLine="4" fill="#F1F1F1" height="48" id="IPhoneVM" rx="2.5" ry="2.5" style="stroke:#181818;stroke-width:0.5;" width="100" x="131.5" y="132"/><ellipse cx="146.5" cy="148" fill="#B4A7E5" rx="11" ry="11" style="stroke:#181818;stroke-width:1.0;"/><path d="M142.9277,144.2651 L142.9277,142.1069 L150.3071,142.1069 L150.3071,144.2651 L147.8418,144.2651 L147.8418,152.3418 L150.3071,152.3418 L150.3071,154.5 L142.9277,154.5 L142.9277,152.3418 L145.3931,152.3418 L145.3931,144.2651 Z " fill="#000000"/><text fill="#000000" font-family="sans-serif" font-size="14" font-style="italic" lengthAdjust="spacing" textLength="68" x="160.5" y="153.291">IPhoneVM</text><line style="stroke:#181818;stroke-width:0.5;" x1="132.5" x2="230.5" y1="164" y2="164"/><line style="stroke:#181818;stroke-width:0.5;" x1="132.5" x2="230.5" y1="172" y2="172"/></g><!--class IAuthAPI--><g id="elem_IAuthAPI"><rect codeLine="5" fill="#F1F1F1" height="48" id="IAuthAPI" rx="2.5" ry="2.5" style="stroke:#181818;stroke-width:0.5;" width="91" x="267" y="132"/><ellipse cx="282" cy="148" fill="#B4A7E5" rx="11" ry="11" style="stroke:#181818;stroke-width:1.0;"/><path d="M278.4277,144.2651 L278.4277,142.1069 L285.8071,142.1069 L285.8071,144.2651 L283.3418,144.2651 L283.3418,152.3418 L285.8071,152.3418 L285.8071,154.5 L278.4277,154.5 L278.4277,152.3418 L280.8931,152.3418 L280.8931,144.2651 Z " fill="#000000"/><text fill="#000000" font-family="sans-serif" font-size="14" font-style="italic" lengthAdjust="spacing" textLength="59" x="296" y="153.291">IAuthAPI</text><line style="stroke:#181818;stroke-width:0.5;" x1="268" x2="357" y1="164" y2="164"/><line style="stroke:#181818;stroke-width:0.5;" x1="268" x2="357" y1="172" y2="172"/></g><!--class PhoneViewModel--><g id="elem_PhoneViewModel"><rect codeLine="6" fill="#F1F1F1" height="48" id="PhoneViewModel" rx="2.5" ry="2.5" style="stroke:#181818;stroke-width:0.5;" width="149" x="107" y="257"/><ellipse cx="122" cy="273" fill="#ADD1B2" rx="11" ry="11" style="stroke:#181818;stroke-width:1.0;"/><path d="M124.4731,279.1431 Q123.8921,279.4419 123.2529,279.5913 Q122.6138,279.7407 121.9082,279.7407 Q119.4014,279.7407 118.0815,278.0889 Q116.7617,276.437 116.7617,273.3159 Q116.7617,270.1865 118.0815,268.5347 Q119.4014,266.8828 121.9082,266.8828 Q122.6138,266.8828 123.2612,267.0322 Q123.9087,267.1816 124.4731,267.4805 L124.4731,270.2031 Q123.8423,269.6221 123.2488,269.3523 Q122.6553,269.0825 122.0244,269.0825 Q120.6797,269.0825 119.9949,270.1492 Q119.3101,271.2158 119.3101,273.3159 Q119.3101,275.4077 119.9949,276.4744 Q120.6797,277.541 122.0244,277.541 Q122.6553,277.541 123.2488,277.2712 Q123.8423,277.0015 124.4731,276.4204 Z " fill="#000000"/><text fill="#000000" font-family="sans-serif" font-size="14" lengthAdjust="spacing" textLength="117" x="136" y="278.291">PhoneViewModel</text><line style="stroke:#181818;stroke-width:0.5;" x1="108" x2="255" y1="289" y2="289"/><line style="stroke:#181818;stroke-width:0.5;" x1="108" x2="255" y1="297" y2="297"/></g><!--class PhoneOp--><g id="elem_PhoneOp"><rect codeLine="7" fill="#F1F1F1" height="48" id="PhoneOp" rx="2.5" ry="2.5" style="stroke:#181818;stroke-width:0.5;" width="95" x="134" y="382"/><ellipse cx="149" cy="398" fill="#ADD1B2" rx="11" ry="11" style="stroke:#181818;stroke-width:1.0;"/><path d="M151.4731,404.1431 Q150.8921,404.4419 150.2529,404.5913 Q149.6138,404.7407 148.9082,404.7407 Q146.4014,404.7407 145.0815,403.0889 Q143.7617,401.437 143.7617,398.3159 Q143.7617,395.1865 145.0815,393.5347 Q146.4014,391.8828 148.9082,391.8828 Q149.6138,391.8828 150.2612,392.0322 Q150.9087,392.1816 151.4731,392.4805 L151.4731,395.2031 Q150.8423,394.6221 150.2488,394.3523 Q149.6553,394.0825 149.0244,394.0825 Q147.6797,394.0825 146.9949,395.1492 Q146.3101,396.2158 146.3101,398.3159 Q146.3101,400.4077 146.9949,401.4744 Q147.6797,402.541 149.0244,402.541 Q149.6553,402.541 150.2488,402.2712 Q150.8423,402.0015 151.4731,401.4204 Z " fill="#000000"/><text fill="#000000" font-family="sans-serif" font-size="14" lengthAdjust="spacing" textLength="63" x="163" y="403.291">PhoneOp</text><line style="stroke:#181818;stroke-width:0.5;" x1="135" x2="228" y1="414" y2="414"/><line style="stroke:#181818;stroke-width:0.5;" x1="135" x2="228" y1="422" y2="422"/></g><!--reverse link IAuthAPI to PhoneViewModel--><g id="link_IAuthAPI_PhoneViewModel"><path codeLine="9" d="M283.05,184.65 C259.96,206.33 228.18,236.17 206.36,256.66 " fill="none" id="IAuthAPI-backto-PhoneViewModel" style="stroke:#181818;stroke-width:1.0;"/><polygon fill="#181818" points="286.45,181.46,277.148,184.6961,282.8019,184.8792,282.6187,190.5331,286.45,181.46" style="stroke:#181818;stroke-width:1.0;"/><text fill="#000000" font-family="sans-serif" font-size="13" lengthAdjust="spacing" textLength="22" x="255.5" y="223.5684">use</text></g><!--reverse link IPhoneVM to PhoneViewModel--><g id="link_IPhoneVM_PhoneViewModel"><path codeLine="10" d="M181.5,201.86 C181.5,220.44 181.5,241.21 181.5,256.66 " fill="none" id="IPhoneVM-backto-PhoneViewModel" style="stroke:#181818;stroke-width:1.0;"/><polygon fill="none" points="174.5,201.94,181.5,181.94,188.5,201.94,174.5,201.94" style="stroke:#181818;stroke-width:1.0;"/></g><!--reverse link IStorage to PhoneViewModel--><g id="link_IStorage_PhoneViewModel"><path codeLine="11" d="M80.72,184.65 C103.64,206.33 135.18,236.17 156.83,256.66 " fill="none" id="IStorage-backto-PhoneViewModel" style="stroke:#181818;stroke-width:1.0;"/><polygon fill="#181818" points="77.36,181.47,81.1545,190.5585,80.9943,184.904,86.6489,184.7437,77.36,181.47" style="stroke:#181818;stroke-width:1.0;"/><text fill="#000000" font-family="sans-serif" font-size="13" lengthAdjust="spacing" textLength="22" x="125.5" y="223.5684">use</text></g><!--reverse link PhoneViewModel to PhoneOp--><g id="link_PhoneViewModel_PhoneOp"><path codeLine="12" d="M181.5,311.84 C181.5,333.31 181.5,361.85 181.5,381.66 " fill="none" id="PhoneViewModel-backto-PhoneOp" style="stroke:#181818;stroke-width:1.0;"/><polygon fill="#181818" points="181.5,306.94,177.5,315.94,181.5,311.94,185.5,315.94,181.5,306.94" style="stroke:#181818;stroke-width:1.0;"/><text fill="#000000" font-family="sans-serif" font-size="13" lengthAdjust="spacing" textLength="38" x="182.5" y="348.5684">create</text></g><!--link IRouter to IPhoneVM--><g id="link_IRouter_IPhoneVM"><path codeLine="13" d="M181.5,55.42 C181.5,75.26 181.5,103.8 181.5,125.25 " fill="none" id="IRouter-to-IPhoneVM" style="stroke:#181818;stroke-width:1.0;"/><polygon fill="#181818" points="181.5,130.15,185.5,121.15,181.5,125.15,177.5,121.15,181.5,130.15" style="stroke:#181818;stroke-width:1.0;"/><text fill="#000000" font-family="sans-serif" font-size="13" lengthAdjust="spacing" textLength="22" x="182.5" y="98.5684">use</text></g><!--SRC=[RO_D2eCm48JlUOhj0qJl7WIF7aHfeVSGfoOGav0VlFJXMr1gMdfRlfcTsRreAqsUGLKT45qE4R4sUb699uKLbS-hOTecX8UGeFxgydikoIsv81QKQ5BEuZwKgCj9TLFFf14nqcxGs0OtmvHmz8nzgyIpv-qdWHhA4Vyyp_Pi_Xznd5f6ZFuGVpOQaW4YWHqV4v_TPlbPiOUy0000]--></g></svg>