<?xml version="1.0" encoding="UTF-8" standalone="no"?><svg xmlns="http://www.w3.org/2000/svg" xmlns:xlink="http://www.w3.org/1999/xlink" contentStyleType="text/css" height="489px" preserveAspectRatio="none" style="width:569px;height:489px;background:#FFFFFF;" version="1.1" viewBox="0 0 569 489" width="569px" zoomAndPan="magnify"><defs/><g><rect fill="#DDDDDD" height="477.9453" style="stroke:#181818;stroke-width:0.5;" width="72" x="183.5" y="6"/><text fill="#000000" font-family="sans-serif" font-size="13" font-weight="bold" lengthAdjust="spacing" textLength="49" x="195" y="18.5684">IRouter</text><rect fill="#FFFFFF" height="326.3477" style="stroke:#181818;stroke-width:1.0;" width="10" x="214.5" y="88.1094"/><rect fill="#FFFFFF" height="326.3477" style="stroke:#181818;stroke-width:1.0;" width="10" x="338.5" y="88.1094"/><line style="stroke:#181818;stroke-width:0.5;stroke-dasharray:5.0,5.0;" x1="35" x2="35" y1="56.7988" y2="432.457"/><line style="stroke:#181818;stroke-width:0.5;stroke-dasharray:5.0,5.0;" x1="100" x2="100" y1="56.7988" y2="432.457"/><line style="stroke:#181818;stroke-width:0.5;stroke-dasharray:5.0,5.0;" x1="219.5" x2="219.5" y1="56.7988" y2="432.457"/><line style="stroke:#181818;stroke-width:0.5;stroke-dasharray:5.0,5.0;" x1="343.5" x2="343.5" y1="56.7988" y2="432.457"/><line style="stroke:#181818;stroke-width:0.5;stroke-dasharray:5.0,5.0;" x1="421.5" x2="421.5" y1="56.7988" y2="432.457"/><line style="stroke:#181818;stroke-width:0.5;stroke-dasharray:5.0,5.0;" x1="529" x2="529" y1="56.7988" y2="432.457"/><rect fill="#E2E2F0" height="30.4883" rx="2.5" ry="2.5" style="stroke:#181818;stroke-width:0.5;" width="61" x="5" y="25.3105"/><text fill="#000000" font-family="sans-serif" font-size="14" lengthAdjust="spacing" textLength="47" x="12" y="45.8457">TouOp</text><rect fill="#E2E2F0" height="30.4883" rx="2.5" ry="2.5" style="stroke:#181818;stroke-width:0.5;" width="61" x="5" y="431.457"/><text fill="#000000" font-family="sans-serif" font-size="14" lengthAdjust="spacing" textLength="47" x="12" y="451.9922">TouOp</text><text fill="#000000" font-family="sans-serif" font-size="14" lengthAdjust="spacing" textLength="31" x="82" y="53.8457">User</text><path d="M80,12.3105 L80,36.3105 M80,24.3105 L97,24.3105 " fill="none" style="stroke:#181818;stroke-width:0.5;"/><ellipse cx="109" cy="24.3105" fill="#E2E2F0" rx="12" ry="12" style="stroke:#181818;stroke-width:0.5;"/><text fill="#000000" font-family="sans-serif" font-size="14" lengthAdjust="spacing" textLength="31" x="82" y="444.9922">User</text><path d="M80,451.9453 L80,475.9453 M80,463.9453 L97,463.9453 " fill="none" style="stroke:#181818;stroke-width:0.5;"/><ellipse cx="109" cy="463.9453" fill="#E2E2F0" rx="12" ry="12" style="stroke:#181818;stroke-width:0.5;"/><rect fill="#E2E2F0" height="30.4883" rx="2.5" ry="2.5" style="stroke:#181818;stroke-width:0.5;" width="64" x="187.5" y="25.3105"/><text fill="#000000" font-family="sans-serif" font-size="14" lengthAdjust="spacing" textLength="50" x="194.5" y="45.8457">ITouVС</text><rect fill="#E2E2F0" height="30.4883" rx="2.5" ry="2.5" style="stroke:#181818;stroke-width:0.5;" width="64" x="187.5" y="431.457"/><text fill="#000000" font-family="sans-serif" font-size="14" lengthAdjust="spacing" textLength="50" x="194.5" y="451.9922">ITouVС</text><rect fill="#E2E2F0" height="30.4883" rx="2.5" ry="2.5" style="stroke:#181818;stroke-width:0.5;" width="66" x="310.5" y="25.3105"/><text fill="#000000" font-family="sans-serif" font-size="14" lengthAdjust="spacing" textLength="52" x="317.5" y="45.8457">ITouVM</text><rect fill="#E2E2F0" height="30.4883" rx="2.5" ry="2.5" style="stroke:#181818;stroke-width:0.5;" width="66" x="310.5" y="431.457"/><text fill="#000000" font-family="sans-serif" font-size="14" lengthAdjust="spacing" textLength="52" x="317.5" y="451.9922">ITouVM</text><rect fill="#E2E2F0" height="30.4883" rx="2.5" ry="2.5" style="stroke:#181818;stroke-width:0.5;" width="71" x="386.5" y="25.3105"/><text fill="#000000" font-family="sans-serif" font-size="14" lengthAdjust="spacing" textLength="57" x="393.5" y="45.8457">IStorage</text><rect fill="#E2E2F0" height="30.4883" rx="2.5" ry="2.5" style="stroke:#181818;stroke-width:0.5;" width="71" x="386.5" y="431.457"/><text fill="#000000" font-family="sans-serif" font-size="14" lengthAdjust="spacing" textLength="57" x="393.5" y="451.9922">IStorage</text><rect fill="#E2E2F0" height="30.4883" rx="2.5" ry="2.5" style="stroke:#181818;stroke-width:0.5;" width="67" x="496" y="25.3105"/><text fill="#000000" font-family="sans-serif" font-size="14" lengthAdjust="spacing" textLength="53" x="503" y="45.8457">ITouAPI</text><rect fill="#E2E2F0" height="30.4883" rx="2.5" ry="2.5" style="stroke:#181818;stroke-width:0.5;" width="67" x="496" y="431.457"/><text fill="#000000" font-family="sans-serif" font-size="14" lengthAdjust="spacing" textLength="53" x="503" y="451.9922">ITouAPI</text><rect fill="#FFFFFF" height="326.3477" style="stroke:#181818;stroke-width:1.0;" width="10" x="214.5" y="88.1094"/><rect fill="#FFFFFF" height="326.3477" style="stroke:#181818;stroke-width:1.0;" width="10" x="338.5" y="88.1094"/><ellipse cx="214" cy="87.3594" fill="none" rx="4" ry="4" style="stroke:#181818;stroke-width:1.5;"/><polygon fill="#181818" points="197,84.1094,207,88.1094,197,92.1094,201,88.1094" style="stroke:#181818;stroke-width:1.0;"/><line style="stroke:#181818;stroke-width:1.0;" x1="35.5" x2="203" y1="88.1094" y2="88.1094"/><text fill="#000000" font-family="sans-serif" font-size="13" font-weight="bold" lengthAdjust="spacing" textLength="9" x="42.5" y="83.3672">1</text><text fill="#000000" font-family="sans-serif" font-size="13" lengthAdjust="spacing" textLength="45" x="55.5" y="83.3672">начало</text><polygon fill="#181818" points="359.5,113.4199,349.5,117.4199,359.5,121.4199,355.5,117.4199" style="stroke:#181818;stroke-width:1.0;"/><line style="stroke:#181818;stroke-width:1.0;" x1="353.5" x2="421" y1="117.4199" y2="117.4199"/><text fill="#000000" font-family="sans-serif" font-size="13" font-weight="bold" lengthAdjust="spacing" textLength="9" x="365.5" y="112.6777">2</text><text fill="#000000" font-family="sans-serif" font-size="13" lengthAdjust="spacing" textLength="36" x="378.5" y="112.6777">token</text><polygon fill="#181818" points="517.5,173.3516,527.5,177.3516,517.5,181.3516,521.5,177.3516" style="stroke:#181818;stroke-width:1.0;"/><line style="stroke:#181818;stroke-width:1.0;" x1="348.5" x2="523.5" y1="177.3516" y2="177.3516"/><text fill="#000000" font-family="sans-serif" font-size="13" font-weight="bold" lengthAdjust="spacing" textLength="9" x="355.5" y="157.2988">3</text><text fill="#000000" font-family="sans-serif" font-size="13" lengthAdjust="spacing" textLength="44" x="368.5" y="141.9883">запрос</text><text fill="#000000" font-family="sans-serif" font-size="13" lengthAdjust="spacing" textLength="77" x="368.5" y="157.2988">соглашения</text><text fill="#000000" font-family="sans-serif" font-size="13" lengthAdjust="spacing" textLength="4" x="445.5" y="157.2988"> </text><text fill="#000000" font-family="sans-serif" font-size="13" lengthAdjust="spacing" textLength="16" x="449.5" y="157.2988">по</text><text fill="#000000" font-family="sans-serif" font-size="13" lengthAdjust="spacing" textLength="43" x="368.5" y="172.6094">токену</text><polygon fill="#181818" points="359.5,217.9727,349.5,221.9727,359.5,225.9727,355.5,221.9727" style="stroke:#181818;stroke-width:1.0;"/><line style="stroke:#181818;stroke-width:1.0;stroke-dasharray:2.0,2.0;" x1="353.5" x2="528.5" y1="221.9727" y2="221.9727"/><text fill="#000000" font-family="sans-serif" font-size="13" font-weight="bold" lengthAdjust="spacing" textLength="9" x="365.5" y="209.5752">4</text><text fill="#000000" font-family="sans-serif" font-size="13" lengthAdjust="spacing" textLength="144" x="378.5" y="201.9199">персонализированное</text><text fill="#000000" font-family="sans-serif" font-size="13" lengthAdjust="spacing" textLength="77" x="378.5" y="217.2305">соглашение</text><polygon fill="#181818" points="235.5,247.2832,225.5,251.2832,235.5,255.2832,231.5,251.2832" style="stroke:#181818;stroke-width:1.0;"/><line style="stroke:#181818;stroke-width:1.0;" x1="229.5" x2="337.5" y1="251.2832" y2="251.2832"/><text fill="#000000" font-family="sans-serif" font-size="13" font-weight="bold" lengthAdjust="spacing" textLength="9" x="241.5" y="246.541">5</text><text fill="#000000" font-family="sans-serif" font-size="13" lengthAdjust="spacing" textLength="77" x="254.5" y="246.541">соглашение</text><polygon fill="#181818" points="202.5,291.9043,212.5,295.9043,202.5,299.9043,206.5,295.9043" style="stroke:#181818;stroke-width:1.0;"/><line style="stroke:#181818;stroke-width:1.0;" x1="100.5" x2="208.5" y1="295.9043" y2="295.9043"/><text fill="#000000" font-family="sans-serif" font-size="13" font-weight="bold" lengthAdjust="spacing" textLength="9" x="107.5" y="283.5068">6</text><text fill="#000000" font-family="sans-serif" font-size="13" lengthAdjust="spacing" textLength="77" x="120.5" y="275.8516">соглашение</text><text fill="#000000" font-family="sans-serif" font-size="13" lengthAdjust="spacing" textLength="53" x="120.5" y="291.1621">принято</text><polygon fill="#181818" points="326.5,336.5254,336.5,340.5254,326.5,344.5254,330.5,340.5254" style="stroke:#181818;stroke-width:1.0;"/><line style="stroke:#181818;stroke-width:1.0;" x1="224.5" x2="332.5" y1="340.5254" y2="340.5254"/><text fill="#000000" font-family="sans-serif" font-size="13" font-weight="bold" lengthAdjust="spacing" textLength="9" x="231.5" y="328.1279">7</text><text fill="#000000" font-family="sans-serif" font-size="13" lengthAdjust="spacing" textLength="77" x="244.5" y="320.4727">соглашение</text><text fill="#000000" font-family="sans-serif" font-size="13" lengthAdjust="spacing" textLength="53" x="244.5" y="335.7832">принято</text><polygon fill="#181818" points="517.5,381.1465,527.5,385.1465,517.5,389.1465,521.5,385.1465" style="stroke:#181818;stroke-width:1.0;"/><line style="stroke:#181818;stroke-width:1.0;" x1="348.5" x2="523.5" y1="385.1465" y2="385.1465"/><text fill="#000000" font-family="sans-serif" font-size="13" font-weight="bold" lengthAdjust="spacing" textLength="9" x="355.5" y="372.749">8</text><text fill="#000000" font-family="sans-serif" font-size="13" lengthAdjust="spacing" textLength="77" x="368.5" y="365.0938">соглашение</text><text fill="#000000" font-family="sans-serif" font-size="13" lengthAdjust="spacing" textLength="53" x="368.5" y="380.4043">принято</text><polygon fill="#181818" points="46.5,410.457,36.5,414.457,46.5,418.457,42.5,414.457" style="stroke:#181818;stroke-width:1.0;"/><ellipse cx="343" cy="413.707" fill="none" rx="4" ry="4" style="stroke:#181818;stroke-width:1.5;"/><line style="stroke:#181818;stroke-width:1.0;" x1="40.5" x2="338.5" y1="414.457" y2="414.457"/><text fill="#000000" font-family="sans-serif" font-size="13" font-weight="bold" lengthAdjust="spacing" textLength="9" x="52.5" y="409.7148">9</text><text fill="#000000" font-family="sans-serif" font-size="13" lengthAdjust="spacing" textLength="76" x="65.5" y="409.7148">завершение</text><!--SRC=[ZP6zRi8m4CTtFuNB7Xhenu0G4c9YYAXAosw81H4aZlnHqKxG3kt6C_GD41KgQaLu1VkDwZWE29e1UR7l_lUx_vqlWcWm4Jw6vKkA6H6KONOv2OOZxl0H3d4v5k44i74GnOYY48Pewc76q11tWnSCArKN8C599C8-fW1e4Gy6GOmY3aiFH7JY4aGCylG62VKnXHKNz8c8V4IVOUcHOMeKGb-ie9eAfh3KlYU2w_GnjAsfFVcPOtijMtNb0XpvK5SMwBsztBFoQ_T4rkM4wgcCa6LtAxrn_nERT-qSsOm3Axnr0J2JEWsIUQj1kPLBzIwNybSc00ruy8GupfB7JmzazkfEthwcusCSsRZJiCqqyrlpTcec4pM7QYuJ-QNnI_KXrxhTHYsWtCa4gbUT-KbZwcqFTvm3PYVNQcRgjyRWHeCtALQkz7khJoBN1Gta6cIRhpkPzLgnoFnfvZjTHP46cZassk8YjMkvjiOxl-PeFsSMTUAwG_96PgShiv3303u- -QAJG0ly0G00]--></g></svg>