<?xml version="1.0" encoding="UTF-8" standalone="no"?><svg xmlns="http://www.w3.org/2000/svg" xmlns:xlink="http://www.w3.org/1999/xlink" contentStyleType="text/css" height="598px" preserveAspectRatio="none" style="width:356px;height:598px;background:#FFFFFF;" version="1.1" viewBox="0 0 356 598" width="356px" zoomAndPan="magnify"><defs/><g><!--cluster Управление заказами--><g id="cluster_Управление заказами"><rect fill="none" height="236" rx="2.5" ry="2.5" style="stroke:#181818;stroke-width:1.0;" width="205" x="145" y="356.5"/><text fill="#000000" font-family="sans-serif" font-size="14" font-weight="bold" lengthAdjust="spacing" textLength="158" x="168.5" y="372.0352">Управление заказами</text></g><!--cluster Управление аккаунтом--><g id="cluster_Управление аккаунтом"><rect fill="none" height="257" rx="2.5" ry="2.5" style="stroke:#181818;stroke-width:1.0;" width="184" x="156" y="75.5"/><text fill="#000000" font-family="sans-serif" font-size="14" font-weight="bold" lengthAdjust="spacing" textLength="168" x="164" y="91.0352">Управление аккаунтом</text></g><g id="elem_order_ship"><ellipse cx="247.6072" cy="406.7214" fill="#F1F1F1" rx="64.1072" ry="15.2214" style="stroke:#181818;stroke-width:0.5;"/><text fill="#000000" font-family="sans-serif" font-size="14" lengthAdjust="spacing" textLength="77" x="206.1072" y="410.739">заказывать</text></g><g id="elem_pay_ship"><ellipse cx="247.2907" cy="472.3581" fill="#F1F1F1" rx="64.7907" ry="15.3581" style="stroke:#181818;stroke-width:0.5;"/><text fill="#000000" font-family="sans-serif" font-size="14" lengthAdjust="spacing" textLength="79" x="204.7907" y="476.3757">оплачивать</text></g><g id="elem_view_ships"><ellipse cx="247.4386" cy="549.318" fill="#F1F1F1" rx="86.4386" ry="26.318" style="stroke:#181818;stroke-width:0.5;"/><text fill="#000000" font-family="sans-serif" font-size="14" lengthAdjust="spacing" textLength="106" x="194.4386" y="544.3648">просматривать</text><text fill="#000000" font-family="sans-serif" font-size="14" lengthAdjust="spacing" textLength="93" x="200.9386" y="560.8531">статус заказа</text></g><g id="elem_auth"><ellipse cx="247.4178" cy="201.318" fill="#F1F1F1" rx="74.4178" ry="26.318" style="stroke:#181818;stroke-width:0.5;"/><text fill="#000000" font-family="sans-serif" font-size="14" lengthAdjust="spacing" textLength="89" x="202.9178" y="196.3648">регистрация</text><text fill="#000000" font-family="sans-serif" font-size="14" lengthAdjust="spacing" textLength="88" x="203.4178" y="212.8531">и/или логин</text></g><g id="elem_logout"><ellipse cx="247.5177" cy="125.6606" fill="#F1F1F1" rx="44.0177" ry="14.6606" style="stroke:#181818;stroke-width:0.5;"/><text fill="#000000" font-family="sans-serif" font-size="14" lengthAdjust="spacing" textLength="46" x="224.0408" y="129.0872">логаут</text></g><g id="elem_delete_account"><ellipse cx="247.6543" cy="289.318" fill="#F1F1F1" rx="58.1543" ry="26.318" style="stroke:#181818;stroke-width:0.5;"/><text fill="#000000" font-family="sans-serif" font-size="14" lengthAdjust="spacing" textLength="66" x="214.6543" y="284.3648">удаление</text><text fill="#000000" font-family="sans-serif" font-size="14" lengthAdjust="spacing" textLength="63" x="216.1543" y="300.8531">аккаунта</text></g><g id="elem_update_ships"><ellipse cx="247.7462" cy="32.318" fill="#F1F1F1" rx="77.2462" ry="26.318" style="stroke:#181818;stroke-width:0.5;"/><text fill="#000000" font-family="sans-serif" font-size="14" lengthAdjust="spacing" textLength="71" x="212.2462" y="27.3648">обновлять</text><text fill="#000000" font-family="sans-serif" font-size="14" lengthAdjust="spacing" textLength="93" x="201.2462" y="43.8531">статус заказа</text></g><!--entity user--><g id="elem_user"><ellipse cx="53.5" cy="318" fill="#F1F1F1" rx="8" ry="8" style="stroke:#181818;stroke-width:0.5;"/><path d="M53.5,326 L53.5,353 M40.5,334 L66.5,334 M53.5,353 L40.5,368 M53.5,353 L66.5,368 " fill="none" style="stroke:#181818;stroke-width:0.5;"/><text fill="#000000" font-family="sans-serif" font-size="14" lengthAdjust="spacing" textLength="95" x="6" y="383.0352">Пользователь</text></g><!--entity server--><g id="elem_server"><ellipse cx="53.5" cy="50" fill="#F1F1F1" rx="8" ry="8" style="stroke:#181818;stroke-width:0.5;"/><path d="M53.5,58 L53.5,85 M40.5,66 L66.5,66 M53.5,85 L40.5,100 M53.5,85 L66.5,100 " fill="none" style="stroke:#181818;stroke-width:0.5;"/><text fill="#000000" font-family="sans-serif" font-size="14" lengthAdjust="spacing" textLength="51" x="28" y="115.0352">Сервер</text></g><!--link user to order_ship--><g id="link_user_order_ship"><path d="M101.47,361.93 C131.96,371.3 171.48,383.45 201.56,392.69 " fill="none" id="user-to-order_ship" style="stroke:#181818;stroke-width:1.0;"/><polygon fill="#181818" points="206,394.06,198.573,387.5917,201.2208,392.5906,196.2219,395.2384,206,394.06" style="stroke:#181818;stroke-width:1.0;"/></g><!--link user to pay_ship--><g id="link_user_pay_ship"><path d="M81.34,385.61 C95.95,403.89 115.42,424.74 137,438.5 C152.91,448.65 172.05,455.94 189.84,461.1 " fill="none" id="user-to-pay_ship" style="stroke:#181818;stroke-width:1.0;"/><polygon fill="#181818" points="194.36,462.36,186.7656,456.089,189.5438,461.0166,184.6162,463.7948,194.36,462.36" style="stroke:#181818;stroke-width:1.0;"/></g><!--link user to view_ships--><g id="link_user_view_ships"><path d="M65.93,385.82 C78.26,421.18 101.1,472.99 137,505.5 C148.03,515.49 161.61,523.35 175.42,529.49 " fill="none" id="user-to-view_ships" style="stroke:#181818;stroke-width:1.0;"/><polygon fill="#181818" points="179.94,531.42,173.2244,524.2158,175.3391,529.4625,170.0924,531.5772,179.94,531.42" style="stroke:#181818;stroke-width:1.0;"/></g><!--link user to auth--><g id="link_user_auth"><path d="M78.17,309.49 C92.93,288.33 113.55,262.83 137,245.5 C150.79,235.31 167.28,227.07 183.21,220.61 " fill="none" id="user-to-auth" style="stroke:#181818;stroke-width:1.0;"/><polygon fill="#181818" points="187.65,218.86,177.8096,218.4521,183.0008,220.6997,180.7532,225.8909,187.65,218.86" style="stroke:#181818;stroke-width:1.0;"/></g><!--link user to logout--><g id="link_user_logout"><path d="M61.06,309.36 C70.45,266.39 91.82,197.34 137,157.5 C153.83,142.66 177.2,134.69 198.04,130.41 " fill="none" id="user-to-logout" style="stroke:#181818;stroke-width:1.0;"/><polygon fill="#181818" points="202.92,129.48,193.3326,127.2257,198.0074,130.411,194.8221,135.0858,202.92,129.48" style="stroke:#181818;stroke-width:1.0;"/></g><!--link user to delete_account--><g id="link_user_delete_account"><path d="M101.47,333.31 C128.93,325.01 163.72,314.51 192.34,305.86 " fill="none" id="user-to-delete_account" style="stroke:#181818;stroke-width:1.0;"/><polygon fill="#181818" points="196.9,304.48,187.1285,303.2482,192.1128,305.9233,189.4377,310.9077,196.9,304.48" style="stroke:#181818;stroke-width:1.0;"/></g><!--link server to update_ships--><g id="link_server_update_ships"><path d="M79.21,73.45 C104.1,67.36 143.65,57.68 178.04,49.26 " fill="none" id="server-to-update_ships" style="stroke:#181818;stroke-width:1.0;"/><polygon fill="#181818" points="182.48,48.17,172.7881,46.4185,177.6226,49.3558,174.6854,54.1903,182.48,48.17" style="stroke:#181818;stroke-width:1.0;"/></g><!--link server to logout--><g id="link_server_logout"><path d="M79.21,85.42 C111.03,93.04 166.79,106.4 205.13,115.59 " fill="none" id="server-to-logout" style="stroke:#181818;stroke-width:1.0;"/><polygon fill="#181818" points="209.66,116.67,201.832,110.6932,204.7961,115.5113,199.978,118.4754,209.66,116.67" style="stroke:#181818;stroke-width:1.0;"/></g><!--SRC=[jL9BJiCm4Dtd5AEkO56nxuAJLAginBIHehXod2A4aFgHO46b7W4XBb0A4H5jqolCt8YnWzoaB6338euzyzwRDsCdyig0KQ3ZuSX056iPcbYbWVsBT9X8wE0B7cYAQzpW5WlSOua5u0S7Flcp_nsM7RWD0F9CXYAJS7PCqoFprZIdvJc839IEf1vaetZSWbTuOF4rFR1u4puMDp_1rar5CovhWTCZfP_IZEPklw1PowDJcyJosibbmTtl7Lekisc1UnQjS7VI8pCAVCFIrhHikkVzgfzYUS42Moo1byeYSE_AYzoCMetKQQv0SmT8r53bfbLZWUzinBjYzRQjkh589jB8WGX3bQVc7uRLlAbNjbBPKT7gBphvE1BihLOIeL4QUlZ42bjQCgYg_N23VEuvGYQr1pvZmQOtTdL9paqu7LX76hhTo-QByZ7_R7oaqSqnw2x4dxwdxyydGmtgqYxLwgaHhoM-0000]--></g></svg>